<?xml version="1.0" encoding="UTF-8" standalone="no"?>
<!-- Generator: Adobe Illustrator 16.0.0, SVG Export Plug-In . SVG Version: 6.00 Build 0)  -->

<svg
   xmlns:dc="http://purl.org/dc/elements/1.1/"
   xmlns:cc="http://creativecommons.org/ns#"
   xmlns:rdf="http://www.w3.org/1999/02/22-rdf-syntax-ns#"
   xmlns:svg="http://www.w3.org/2000/svg"
   xmlns="http://www.w3.org/2000/svg"
   xmlns:sodipodi="http://sodipodi.sourceforge.net/DTD/sodipodi-0.dtd"
   xmlns:inkscape="http://www.inkscape.org/namespaces/inkscape"
   version="1.1"
   id="Layer_1"
   x="0px"
   y="0px"
   width="420"
   height="210"
   viewBox="0 0 420 210"
   enable-background="new 0 0 792 612"
   xml:space="preserve"
   inkscape:version="0.91 r13725"
   sodipodi:docname="diyRect.svg"><metadata
     id="metadata4693"><rdf:RDF><cc:Work
         rdf:about=""><dc:format>image/svg+xml</dc:format><dc:type
           rdf:resource="http://purl.org/dc/dcmitype/StillImage" /><dc:title></dc:title></cc:Work></rdf:RDF></metadata><defs
     id="defs4691" /><sodipodi:namedview
     pagecolor="#ffffff"
     bordercolor="#666666"
     borderopacity="1"
     objecttolerance="10"
     gridtolerance="10"
     guidetolerance="10"
     inkscape:pageopacity="0"
     inkscape:pageshadow="2"
     inkscape:window-width="1301"
     inkscape:window-height="744"
     id="namedview4689"
     showgrid="false"
     fit-margin-top="0"
     fit-margin-left="0"
     fit-margin-right="0"
     fit-margin-bottom="0"
     inkscape:zoom="0.75252525"
     inkscape:cx="43.217579"
     inkscape:cy="-8.96276"
     inkscape:window-x="65"
     inkscape:window-y="24"
     inkscape:window-maximized="1"
     inkscape:current-layer="Layer_1" /><rect
     x="5.0026793"
     y="5.0026765"
     stroke-miterlimit="10"
     width="409.99463"
     height="199.99464"
     id="rect4557"
     style="fill:#584c6d;stroke:#e6e6e6;stroke-width:10.0053587;stroke-miterlimit:10;stroke-dasharray:none" /><path
     d="M -69.305995,215.44401"
     id="path4559"
     inkscape:connector-curvature="0"
     style="fill:#a0baa1" /><path
     d="M -69.305995,215.44401"
     id="path4561"
     inkscape:connector-curvature="0"
     style="fill:#a0baa1" /><path
     stroke-miterlimit="10"
     d="M -63.832995,91.794003"
     id="path4563"
     inkscape:connector-curvature="0"
     style="fill:#a0baa1;stroke:#ffffff;stroke-miterlimit:10" /><path
     d="M 210,158.80501"
     id="path4565"
     inkscape:connector-curvature="0"
     style="fill:#a0baa1" /><g
     id="g4567"
     transform="translate(-223.689,-119.92299)"><g
       id="g4569"><g
         id="g4571"><path
           stroke-miterlimit="10"
           d="m 600.809,196.415 c 0.086,2.072 0.78,4.179 2.034,5.601 1.128,1.27 2.515,1.692 3.815,1.303 l -0.038,-0.033 c -0.079,-0.066 -0.162,-0.154 -0.252,-0.24 l -0.134,-0.142 -0.069,-0.073 -0.068,-0.078 -0.139,-0.16 -0.142,-0.174 c -0.097,-0.115 -0.187,-0.243 -0.278,-0.366 l -0.067,-0.093 -0.065,-0.097 -0.133,-0.195 c -0.044,-0.07 -0.084,-0.133 -0.126,-0.198 l -0.12,-0.195 c -0.04,-0.069 -0.075,-0.13 -0.111,-0.193 l -0.103,-0.187 c -0.071,-0.119 -0.131,-0.243 -0.188,-0.353 -0.028,-0.055 -0.055,-0.107 -0.081,-0.158 l -0.038,-0.073 -0.032,-0.072 c -0.042,-0.092 -0.078,-0.173 -0.108,-0.239 -0.06,-0.131 -0.094,-0.207 -0.094,-0.207 0,0 0.04,0.069 0.11,0.19 0.035,0.06 0.078,0.133 0.127,0.218 l 0.038,0.065 0.043,0.065 c 0.029,0.044 0.06,0.092 0.092,0.142 0.065,0.098 0.132,0.208 0.212,0.313 l 0.118,0.164 c 0.039,0.055 0.078,0.108 0.122,0.168 l 0.131,0.167 c 0.045,0.055 0.088,0.109 0.136,0.167 l 0.143,0.163 0.071,0.083 0.074,0.077 c 0.099,0.102 0.191,0.205 0.291,0.295 l 0.146,0.138 0.145,0.125 0.07,0.062 0.07,0.056 0.137,0.108 c 0.09,0.063 0.173,0.121 0.252,0.177 0.039,0.025 0.076,0.05 0.111,0.073 0.036,0.021 0.07,0.042 0.103,0.061 0.029,0.017 0.058,0.033 0.084,0.048 0.19,-2.198 -0.553,-4.58 -1.936,-5.942 -1.442,-1.399 -2.397,-0.181 -4.353,-0.561 z"
           id="path4573"
           inkscape:connector-curvature="0"
           style="fill:#a0baa1;stroke:#c1d1c1;stroke-width:0.25;stroke-miterlimit:10" /><path
           d="m 597.92,184.91 c 0.553,1.744 1.682,3.377 3.121,4.358 1.321,0.866 2.655,0.95 3.653,0.208 l -0.041,-0.021 c -0.09,-0.048 -0.185,-0.099 -0.286,-0.153 l -0.155,-0.092 -0.08,-0.047 -0.081,-0.053 -0.166,-0.107 -0.167,-0.119 c -0.113,-0.078 -0.225,-0.167 -0.336,-0.254 l -0.083,-0.066 -0.082,-0.07 -0.161,-0.139 c -0.055,-0.05 -0.105,-0.097 -0.156,-0.144 l -0.149,-0.142 c -0.05,-0.051 -0.097,-0.097 -0.143,-0.144 l -0.139,-0.138 c -0.095,-0.097 -0.176,-0.18 -0.253,-0.259 -0.038,-0.041 -0.075,-0.08 -0.11,-0.117 l -0.051,-0.054 -0.047,-0.054 c -0.06,-0.069 -0.111,-0.13 -0.154,-0.181 -0.085,-0.099 -0.134,-0.157 -0.134,-0.157 0,0 0.053,0.05 0.144,0.138 0.046,0.043 0.102,0.097 0.165,0.158 l 0.05,0.047 0.054,0.046 c 0.036,0.032 0.075,0.065 0.116,0.1 0.08,0.067 0.165,0.138 0.263,0.219 l 0.146,0.113 c 0.048,0.038 0.096,0.076 0.148,0.117 l 0.152,0.115 c 0.052,0.038 0.103,0.074 0.157,0.115 l 0.161,0.108 0.081,0.055 0.082,0.05 c 0.11,0.066 0.219,0.133 0.328,0.188 l 0.161,0.085 0.158,0.075 0.076,0.036 0.076,0.031 0.146,0.061 c 0.095,0.033 0.183,0.063 0.266,0.092 0.041,0.013 0.08,0.025 0.117,0.037 0.037,0.01 0.072,0.019 0.105,0.027 0.03,0.007 0.06,0.014 0.086,0.021 -0.412,-1.984 -1.615,-3.845 -3.146,-4.679 -1.554,-0.859 -2.106,0.428 -3.892,0.59 z"
           id="path4575"
           inkscape:connector-curvature="0"
           style="fill:#a0baa1" /><path
           d="m 591.849,175.093 c 0.241,0.32 0.522,0.609 0.816,0.883 0.277,0.291 0.582,0.553 0.908,0.783 0.324,0.231 0.681,0.422 1.035,0.59 0.343,0.178 0.704,0.317 1.075,0.41 1.339,0.332 2.512,0.001 3.128,-0.892 l -0.042,-0.004 c -0.09,-0.014 -0.184,-0.028 -0.285,-0.043 l -0.156,-0.032 -0.081,-0.016 -0.083,-0.02 -0.169,-0.042 -0.174,-0.049 c -0.12,-0.039 -0.237,-0.076 -0.353,-0.113 l -0.089,-0.03 -0.088,-0.035 -0.175,-0.068 c -0.06,-0.026 -0.115,-0.05 -0.171,-0.074 l -0.165,-0.074 c -0.057,-0.027 -0.107,-0.052 -0.159,-0.077 l -0.151,-0.077 c -0.102,-0.056 -0.19,-0.104 -0.274,-0.15 l -0.127,-0.063 -0.059,-0.029 -0.056,-0.03 c -0.07,-0.039 -0.132,-0.073 -0.184,-0.102 -0.101,-0.056 -0.158,-0.088 -0.158,-0.088 0,0 0.06,0.025 0.162,0.069 0.051,0.022 0.112,0.049 0.186,0.08 l 0.055,0.023 0.06,0.021 c 0.04,0.015 0.082,0.03 0.127,0.047 0.084,0.034 0.173,0.069 0.275,0.11 l 0.148,0.056 c 0.05,0.018 0.1,0.035 0.154,0.055 l 0.16,0.05 c 0.054,0.016 0.106,0.032 0.164,0.049 l 0.165,0.043 0.084,0.022 0.083,0.017 0.328,0.062 0.159,0.023 0.153,0.016 0.074,0.008 0.072,0.003 0.14,0.008 c 0.089,0 0.171,0 0.249,0 l 0.109,-0.004 c 0.033,-0.002 0.065,-0.005 0.096,-0.007 l 0.078,-0.008 c -0.896,-1.54 -2.454,-2.721 -3.954,-2.973 -1.578,-0.213 -1.644,1 -3.09,1.672 z"
           id="path4577"
           inkscape:connector-curvature="0"
           style="fill:#a0baa1" /><path
           d="m 582.662,167.897 c 1.194,0.834 2.737,1.175 4.047,1.06 1.205,-0.146 2.047,-0.792 2.261,-1.72 l -0.035,0.009 c -0.077,0.018 -0.158,0.036 -0.245,0.056 l -0.138,0.024 -0.07,0.012 -0.074,0.01 -0.151,0.02 -0.157,0.015 c -0.109,0.006 -0.217,0.012 -0.323,0.018 l -0.081,0.003 -0.084,-0.001 -0.164,0 c -0.057,-0.002 -0.109,-0.004 -0.163,-0.007 l -0.158,-0.009 c -0.056,-0.004 -0.105,-0.009 -0.155,-0.013 l -0.148,-0.016 c -0.101,-0.014 -0.188,-0.026 -0.271,-0.038 l -0.12,-0.019 -0.058,-0.006 -0.056,-0.007 c -0.07,-0.009 -0.134,-0.018 -0.186,-0.025 -0.101,-0.014 -0.159,-0.021 -0.159,-0.021 0,0 0.057,0.002 0.156,0.005 0.05,0.002 0.11,0.004 0.18,0.007 l 0.054,0.002 0.056,-0.001 c 0.037,0.001 0.076,0.003 0.117,0.004 0.079,0.002 0.162,0.004 0.258,0.007 l 0.139,-0.001 c 0.047,-10e-4 0.094,-0.002 0.146,-0.003 l 0.146,-0.009 c 0.049,-0.004 0.097,-0.007 0.149,-0.011 l 0.148,-0.017 0.075,-0.009 0.072,-0.012 0.287,-0.054 0.138,-0.031 0.13,-0.035 0.062,-0.017 0.061,-0.02 0.116,-0.038 c 0.072,-0.028 0.139,-0.055 0.202,-0.08 l 0.087,-0.037 c 0.027,-0.013 0.053,-0.025 0.076,-0.037 l 0.061,-0.031 c -0.625,-0.458 -1.305,-0.88 -2.048,-1.065 -0.74,-0.191 -1.479,-0.247 -2.138,-0.132 -1.356,0.249 -1.04,1.287 -2.042,2.27 z"
           id="path4579"
           inkscape:connector-curvature="0"
           style="fill:#a0baa1" /><path
           d="m 571.04,163.755 c 1.25,0.422 2.702,0.309 3.773,-0.125 0.976,-0.419 1.478,-1.168 1.393,-1.99 l -0.026,0.017 c -0.059,0.034 -0.12,0.07 -0.186,0.108 l -0.106,0.055 -0.055,0.028 -0.059,0.027 -0.119,0.054 -0.125,0.052 c -0.09,0.033 -0.177,0.065 -0.264,0.097 l -0.066,0.023 -0.069,0.021 -0.137,0.041 c -0.048,0.012 -0.092,0.023 -0.138,0.035 l -0.135,0.033 c -0.047,0.01 -0.09,0.019 -0.133,0.028 l -0.128,0.024 c -0.09,0.019 -0.169,0.035 -0.242,0.051 l -0.108,0.022 -0.051,0.01 -0.049,0.008 c -0.062,0.009 -0.117,0.018 -0.162,0.025 -0.089,0.014 -0.141,0.021 -0.141,0.021 0,0 0.048,-0.012 0.134,-0.034 0.042,-0.011 0.094,-0.024 0.152,-0.039 l 0.046,-0.011 0.047,-0.015 0.101,-0.031 c 0.068,-0.023 0.14,-0.046 0.223,-0.074 l 0.116,-0.037 c 0.039,-0.013 0.078,-0.025 0.12,-0.039 l 0.12,-0.044 c 0.04,-0.016 0.079,-0.031 0.121,-0.047 l 0.119,-0.051 0.06,-0.026 0.058,-0.028 0.223,-0.117 0.104,-0.06 0.098,-0.062 0.048,-0.03 0.044,-0.032 0.085,-0.06 c 0.051,-0.042 0.099,-0.081 0.145,-0.117 l 0.061,-0.053 0.052,-0.049 0.042,-0.042 c -1.262,-0.503 -2.757,-0.419 -3.809,0.084 -1.088,0.532 -0.567,1.321 -1.177,2.349 z"
           id="path4581"
           inkscape:connector-curvature="0"
           style="fill:#a0baa1" /><path
           d="m 558.144,162.301 c 1.138,0.129 2.348,-0.125 3.179,-0.732 0.748,-0.549 1.015,-1.258 0.786,-1.901 l -0.019,0.019 c -0.042,0.04 -0.086,0.082 -0.134,0.127 l -0.077,0.067 -0.04,0.034 -0.044,0.034 -0.089,0.069 -0.095,0.069 -0.2,0.135 -0.052,0.033 -0.055,0.031 -0.106,0.062 c -0.039,0.021 -0.073,0.04 -0.108,0.059 l -0.107,0.056 c -0.038,0.019 -0.071,0.035 -0.105,0.051 l -0.104,0.047 c -0.072,0.03 -0.134,0.057 -0.193,0.082 l -0.087,0.035 -0.04,0.016 -0.039,0.014 c -0.051,0.018 -0.095,0.033 -0.132,0.046 -0.071,0.025 -0.113,0.04 -0.113,0.04 0,0 0.039,-0.018 0.105,-0.048 0.034,-0.016 0.074,-0.034 0.121,-0.056 l 0.036,-0.017 0.036,-0.019 0.079,-0.041 c 0.053,-0.029 0.107,-0.059 0.173,-0.095 l 0.09,-0.054 c 0.03,-0.019 0.061,-0.037 0.094,-0.058 l 0.092,-0.061 0.094,-0.064 0.09,-0.067 0.045,-0.034 0.042,-0.035 0.164,-0.142 0.076,-0.071 0.069,-0.071 0.034,-0.034 0.03,-0.035 0.06,-0.067 c 0.034,-0.044 0.066,-0.086 0.097,-0.125 l 0.041,-0.056 0.033,-0.051 0.026,-0.042 c -1.139,-0.098 -2.351,0.159 -3.146,0.745 -0.821,0.604 -0.257,1.168 -0.607,2.105 z"
           id="path4583"
           inkscape:connector-curvature="0"
           style="fill:#a0baa1" /><path
           d="m 608.234,203.527 c 0,0 0.051,-1.179 -0.093,-3.293 -0.137,-2.108 -0.476,-5.131 -1.317,-8.666 -0.828,-3.53 -2.198,-7.574 -4.342,-11.552 -1.06,-1.997 -2.364,-3.934 -3.8,-5.813 -1.505,-1.819 -3.103,-3.627 -4.954,-5.16 -1.79,-1.604 -3.802,-2.935 -5.814,-4.175 -1.046,-0.555 -2.077,-1.122 -3.119,-1.633 -1.072,-0.451 -2.111,-0.942 -3.168,-1.346 -4.225,-1.644 -8.427,-2.452 -12.029,-2.948 -0.904,-0.112 -1.771,-0.219 -2.597,-0.321 -0.828,-0.071 -1.619,-0.103 -2.359,-0.152 -0.74,-0.044 -1.435,-0.086 -2.075,-0.125 -0.642,-0.032 -1.234,-0.009 -1.768,-0.017 -2.136,-0.002 -3.356,-0.003 -3.356,-0.003 0,0 1.221,-0.03 3.357,-0.083 0.534,-0.006 1.128,-0.044 1.771,-0.028 0.644,0.022 1.34,0.046 2.083,0.072 0.743,0.031 1.537,0.042 2.371,0.092 0.83,0.081 1.704,0.167 2.615,0.256 3.633,0.405 7.888,1.11 12.213,2.666 1.081,0.381 2.149,0.853 3.251,1.285 1.073,0.492 2.138,1.042 3.22,1.583 2.086,1.211 4.18,2.524 6.06,4.122 1.941,1.527 3.633,3.343 5.231,5.182 1.528,1.898 2.926,3.866 4.071,5.898 2.315,4.051 3.835,8.19 4.781,11.812 0.96,3.627 1.388,6.741 1.585,8.93 0.204,2.188 0.182,3.473 0.182,3.472"
           id="path4585"
           inkscape:connector-curvature="0"
           style="fill:#a0baa1" /><path
           stroke-miterlimit="10"
           d="m 614.287,184.392 c 1.154,2.579 1.343,5.657 0.519,7.778 -0.736,1.922 -2.1,2.643 -3.442,2.324 l 0.032,-0.045 c 0.066,-0.093 0.133,-0.207 0.206,-0.32 0.033,-0.061 0.068,-0.123 0.104,-0.187 l 0.051,-0.096 0.051,-0.103 0.101,-0.212 0.097,-0.227 c 0.065,-0.151 0.123,-0.317 0.182,-0.481 l 0.044,-0.124 0.039,-0.128 0.078,-0.255 c 0.024,-0.092 0.046,-0.174 0.068,-0.259 l 0.064,-0.256 c 0.021,-0.083 0.032,-0.17 0.048,-0.253 0.014,-0.083 0.028,-0.166 0.041,-0.245 0.03,-0.157 0.045,-0.316 0.062,-0.459 0.009,-0.072 0.017,-0.14 0.024,-0.207 l 0.011,-0.096 0.008,-0.092 c 0.008,-0.12 0.016,-0.225 0.021,-0.312 0.013,-0.171 0.02,-0.271 0.02,-0.271 0,0 -0.015,0.093 -0.041,0.257 -0.013,0.081 -0.028,0.179 -0.047,0.292 l -0.014,0.086 -0.02,0.088 c -0.013,0.061 -0.026,0.125 -0.04,0.191 -0.029,0.131 -0.056,0.278 -0.098,0.419 -0.021,0.072 -0.04,0.146 -0.061,0.221 -0.021,0.075 -0.04,0.153 -0.066,0.227 l -0.077,0.225 c -0.028,0.075 -0.056,0.147 -0.086,0.227 l -0.095,0.221 -0.048,0.11 -0.052,0.105 c -0.069,0.139 -0.136,0.279 -0.211,0.403 l -0.108,0.188 -0.112,0.171 -0.054,0.083 -0.057,0.076 -0.108,0.147 c -0.074,0.087 -0.141,0.176 -0.208,0.245 -0.033,0.036 -0.064,0.069 -0.095,0.102 -0.03,0.03 -0.06,0.059 -0.087,0.085 -0.026,0.024 -0.05,0.046 -0.073,0.068 -0.6,-2.371 -0.742,-4.947 -0.137,-7.005 0.596,-2.144 2.049,-1.29 3.566,-2.706 z"
           id="path4587"
           inkscape:connector-curvature="0"
           style="fill:#a0baa1;stroke:#c1d1c1;stroke-width:0.25;stroke-miterlimit:10" /><path
           d="m 605.802,170.265 c 1.697,1.838 2.685,4.398 2.566,6.393 -0.094,1.805 -1.068,2.769 -2.264,2.849 l 0.015,-0.045 c 0.028,-0.102 0.058,-0.208 0.09,-0.322 0.013,-0.06 0.026,-0.121 0.04,-0.185 l 0.02,-0.095 0.018,-0.101 0.033,-0.206 0.018,-0.214 c 0.013,-0.143 0.017,-0.295 0.02,-0.448 l 0.002,-0.114 -0.002,-0.117 -0.006,-0.233 c -0.006,-0.082 -0.01,-0.157 -0.015,-0.234 l -0.018,-0.23 c -0.009,-0.08 -0.017,-0.153 -0.024,-0.226 -0.01,-0.075 -0.019,-0.146 -0.028,-0.219 -0.023,-0.151 -0.044,-0.281 -0.063,-0.405 -0.012,-0.063 -0.022,-0.123 -0.032,-0.181 l -0.016,-0.084 -0.018,-0.081 c -0.023,-0.102 -0.045,-0.193 -0.062,-0.268 -0.041,-0.146 -0.064,-0.229 -0.064,-0.229 0,0 0.016,0.081 0.042,0.223 0.016,0.069 0.025,0.158 0.039,0.258 l 0.01,0.077 0.006,0.081 c 0.005,0.054 0.01,0.111 0.015,0.171 0.01,0.12 0.022,0.25 0.025,0.381 l 0.005,0.203 c 10e-4,0.067 0.002,0.134 0.003,0.208 l -0.006,0.21 c -0.003,0.068 -0.007,0.138 -0.01,0.211 l -0.018,0.209 -0.01,0.104 -0.014,0.101 c -0.02,0.134 -0.038,0.267 -0.065,0.391 l -0.039,0.185 -0.046,0.172 -0.022,0.083 -0.025,0.079 -0.05,0.15 c -0.041,0.093 -0.078,0.18 -0.113,0.262 -0.02,0.039 -0.037,0.076 -0.055,0.111 -0.019,0.034 -0.036,0.065 -0.053,0.095 -0.016,0.027 -0.03,0.053 -0.045,0.077 -0.573,-0.907 -1.054,-1.892 -1.387,-2.892 -0.375,-0.976 -0.568,-1.993 -0.599,-2.932 -0.116,-1.941 1.34,-1.629 2.202,-3.223 z"
           id="path4589"
           inkscape:connector-curvature="0"
           style="fill:#a0baa1" /><path
           d="m 593.116,159.897 c 0.463,0.239 0.918,0.509 1.342,0.816 0.408,0.332 0.793,0.69 1.139,1.063 0.688,0.752 1.24,1.539 1.479,2.384 0.46,1.492 0.023,2.528 -0.92,2.984 l -0.003,-0.041 c -0.011,-0.089 -0.021,-0.182 -0.032,-0.281 l -0.027,-0.158 -0.015,-0.081 -0.019,-0.084 -0.04,-0.172 -0.049,-0.18 c -0.04,-0.125 -0.078,-0.248 -0.116,-0.37 l -0.032,-0.093 -0.037,-0.095 -0.073,-0.188 c -0.028,-0.065 -0.054,-0.125 -0.08,-0.186 l -0.081,-0.182 c -0.027,-0.059 -0.056,-0.12 -0.088,-0.174 L 595.37,164.7 c -0.069,-0.109 -0.128,-0.203 -0.184,-0.291 -0.03,-0.045 -0.059,-0.088 -0.085,-0.129 l -0.04,-0.06 -0.04,-0.056 c -0.052,-0.071 -0.099,-0.136 -0.137,-0.188 -0.076,-0.104 -0.119,-0.163 -0.119,-0.163 0,0 0.036,0.06 0.1,0.166 0.031,0.052 0.069,0.115 0.113,0.188 l 0.033,0.056 0.031,0.06 c 0.021,0.041 0.044,0.083 0.068,0.128 0.044,0.087 0.09,0.18 0.144,0.286 l 0.071,0.154 c 0.022,0.052 0.045,0.104 0.069,0.161 l 0.058,0.172 c 0.018,0.057 0.035,0.114 0.055,0.175 l 0.047,0.175 0.023,0.088 0.02,0.086 c 0.023,0.115 0.049,0.229 0.063,0.338 l 0.023,0.162 0.015,0.154 0.007,0.075 0.003,0.071 0.005,0.138 c -0.003,0.086 -0.006,0.166 -0.008,0.242 -0.003,0.037 -0.005,0.072 -0.008,0.105 -0.004,0.032 -0.008,0.063 -0.011,0.092 l -0.012,0.074 c -0.73,-0.555 -1.397,-1.21 -2.001,-1.865 -0.594,-0.665 -1.042,-1.439 -1.358,-2.16 -0.669,-1.503 0.583,-1.708 0.801,-3.237 z"
           id="path4591"
           inkscape:connector-curvature="0"
           style="fill:#a0baa1" /><path
           d="m 578.255,154.643 c 0.812,0.145 1.634,0.374 2.343,0.771 0.708,0.407 1.318,0.903 1.739,1.451 0.763,0.99 0.735,1.921 0.141,2.565 l -0.015,-0.03 c -0.034,-0.064 -0.069,-0.132 -0.107,-0.205 l -0.066,-0.112 -0.035,-0.058 -0.038,-0.058 -0.08,-0.12 -0.089,-0.122 c -0.067,-0.084 -0.132,-0.166 -0.196,-0.246 l -0.051,-0.062 -0.055,-0.061 -0.11,-0.121 -0.113,-0.117 -0.114,-0.113 c -0.04,-0.038 -0.078,-0.073 -0.115,-0.107 l -0.113,-0.102 c -0.08,-0.068 -0.151,-0.127 -0.217,-0.183 l -0.099,-0.08 -0.046,-0.037 -0.045,-0.034 c -0.06,-0.044 -0.11,-0.082 -0.153,-0.113 -0.084,-0.062 -0.133,-0.098 -0.133,-0.098 0,0 0.043,0.038 0.119,0.105 0.037,0.033 0.083,0.074 0.135,0.121 l 0.04,0.035 0.04,0.04 0.085,0.083 c 0.057,0.058 0.116,0.119 0.185,0.189 l 0.095,0.104 c 0.031,0.036 0.062,0.071 0.096,0.109 l 0.093,0.113 c 0.03,0.039 0.06,0.076 0.092,0.117 l 0.086,0.119 0.042,0.06 0.039,0.06 c 0.052,0.08 0.103,0.159 0.146,0.238 l 0.064,0.116 0.056,0.113 0.026,0.055 0.022,0.054 0.044,0.104 c 0.022,0.067 0.044,0.129 0.064,0.188 l 0.023,0.083 0.019,0.074 0.013,0.06 c -1.46,-0.366 -2.828,-1.234 -3.688,-2.175 -0.889,-1.023 0.026,-1.507 -0.169,-2.773 z"
           id="path4593"
           inkscape:connector-curvature="0"
           style="fill:#a0baa1" /><path
           d="m 563.21,153.556 c 1.27,-0.051 2.618,0.285 3.459,0.945 0.762,0.584 0.938,1.361 0.62,1.958 l -0.018,-0.021 c -0.038,-0.045 -0.079,-0.092 -0.122,-0.144 l -0.074,-0.076 -0.037,-0.039 -0.042,-0.037 -0.085,-0.074 -0.092,-0.075 -0.197,-0.147 -0.051,-0.036 -0.055,-0.035 -0.106,-0.069 c -0.039,-0.023 -0.073,-0.043 -0.109,-0.065 l -0.108,-0.062 c -0.039,-0.021 -0.072,-0.039 -0.107,-0.058 l -0.105,-0.054 c -0.075,-0.036 -0.139,-0.065 -0.199,-0.094 l -0.09,-0.041 -0.042,-0.019 -0.04,-0.016 c -0.053,-0.021 -0.1,-0.039 -0.138,-0.054 -0.075,-0.03 -0.118,-0.047 -0.118,-0.047 0,0 0.04,0.02 0.109,0.055 0.035,0.018 0.076,0.039 0.125,0.063 l 0.036,0.019 0.038,0.021 0.08,0.046 c 0.055,0.033 0.11,0.066 0.176,0.106 l 0.092,0.06 c 0.03,0.021 0.061,0.041 0.094,0.063 l 0.093,0.067 c 0.03,0.023 0.06,0.045 0.092,0.07 l 0.088,0.073 0.045,0.037 0.041,0.038 c 0.055,0.05 0.11,0.1 0.157,0.152 l 0.072,0.076 0.065,0.075 0.031,0.037 0.028,0.037 0.054,0.07 c 0.031,0.046 0.061,0.089 0.088,0.13 l 0.035,0.058 0.029,0.053 0.021,0.045 c -1.189,0.021 -2.412,-0.307 -3.232,-0.945 -0.855,-0.658 -0.24,-1.185 -0.601,-2.146 z"
           id="path4595"
           inkscape:connector-curvature="0"
           style="fill:#a0baa1" /></g></g></g><g
     id="g4597"
     transform="translate(-223.689,-329.92279)"><g
       id="g4599"><g
         id="g4601"><path
           stroke-miterlimit="10"
           d="m 303.433,503.123 c 2.777,0.198 5.741,-0.607 7.519,-2.122 1.619,-1.371 1.908,-2.922 1.06,-4.05 l -0.034,0.046 c -0.077,0.097 -0.156,0.197 -0.242,0.306 l -0.146,0.163 -0.075,0.084 -0.083,0.085 -0.171,0.172 -0.184,0.17 c -0.122,0.115 -0.263,0.227 -0.4,0.339 l -0.104,0.084 -0.11,0.082 -0.218,0.157 c -0.079,0.053 -0.151,0.101 -0.225,0.149 l -0.223,0.144 c -0.081,0.049 -0.151,0.091 -0.225,0.135 -0.075,0.043 -0.148,0.086 -0.221,0.127 -0.138,0.082 -0.284,0.147 -0.414,0.213 -0.064,0.032 -0.127,0.062 -0.188,0.092 l -0.087,0.043 -0.086,0.038 c -0.11,0.048 -0.208,0.09 -0.288,0.125 -0.158,0.068 -0.25,0.108 -0.25,0.108 0,0 0.084,-0.045 0.229,-0.124 0.072,-0.039 0.16,-0.087 0.262,-0.142 l 0.077,-0.043 0.078,-0.048 c 0.053,-0.032 0.108,-0.066 0.167,-0.102 0.114,-0.071 0.245,-0.146 0.365,-0.233 l 0.188,-0.133 c 0.062,-0.047 0.124,-0.092 0.193,-0.143 l 0.188,-0.151 c 0.062,-0.052 0.121,-0.102 0.188,-0.156 l 0.178,-0.161 0.09,-0.081 0.082,-0.082 c 0.109,-0.111 0.223,-0.225 0.315,-0.338 l 0.143,-0.167 0.125,-0.165 0.062,-0.079 0.054,-0.08 0.103,-0.152 c 0.058,-0.1 0.121,-0.196 0.164,-0.284 0.022,-0.044 0.044,-0.086 0.065,-0.126 0.018,-0.04 0.035,-0.078 0.051,-0.113 0.015,-0.033 0.027,-0.064 0.04,-0.093 -2.485,0.259 -4.942,0.994 -6.677,2.244 -1.808,1.28 -0.522,2.36 -1.335,4.262 z"
           id="path4603"
           inkscape:connector-curvature="0"
           style="fill:#a0baa1;stroke:#c1d1c1;stroke-width:0.25;stroke-miterlimit:10" /><path
           d="m 287.505,500.778 c 2.396,0.847 5.175,0.887 7.032,-0.007 1.684,-0.776 2.249,-2.03 1.884,-3.221 l -0.039,0.031 c -0.081,0.067 -0.178,0.128 -0.275,0.198 l -0.161,0.103 -0.084,0.052 -0.09,0.051 -0.185,0.104 -0.198,0.1 c -0.133,0.068 -0.277,0.131 -0.422,0.193 l -0.108,0.046 -0.113,0.043 -0.226,0.085 c -0.08,0.027 -0.154,0.053 -0.229,0.078 l -0.226,0.072 c -0.079,0.023 -0.152,0.044 -0.226,0.065 l -0.218,0.052 c -0.141,0.034 -0.281,0.057 -0.41,0.08 -0.064,0.012 -0.125,0.022 -0.185,0.033 l -0.085,0.015 -0.083,0.012 c -0.106,0.014 -0.201,0.025 -0.278,0.036 -0.154,0.02 -0.243,0.031 -0.243,0.031 0,0 0.083,-0.019 0.229,-0.05 0.072,-0.017 0.159,-0.035 0.261,-0.058 l 0.076,-0.018 0.079,-0.021 c 0.054,-0.015 0.109,-0.03 0.169,-0.047 0.117,-0.032 0.245,-0.065 0.372,-0.109 0.063,-0.022 0.128,-0.044 0.194,-0.066 0.066,-0.021 0.136,-0.046 0.2,-0.076 l 0.198,-0.087 c 0.065,-0.03 0.13,-0.06 0.199,-0.092 l 0.192,-0.098 0.097,-0.05 0.091,-0.052 c 0.121,-0.07 0.242,-0.141 0.351,-0.215 l 0.162,-0.108 0.147,-0.11 0.072,-0.054 0.065,-0.056 0.126,-0.105 c 0.074,-0.072 0.143,-0.139 0.208,-0.202 0.03,-0.031 0.059,-0.062 0.087,-0.09 0.025,-0.03 0.049,-0.058 0.071,-0.084 l 0.057,-0.069 c -2.169,-0.409 -4.504,-0.357 -6.319,0.296 -1.899,0.694 -1.036,1.927 -2.216,3.369 z"
           id="path4605"
           inkscape:connector-curvature="0"
           style="fill:#a0baa1" /><path
           d="m 272.799,493.595 c 0.444,0.357 0.916,0.699 1.412,0.986 0.509,0.267 1.032,0.497 1.555,0.684 0.522,0.183 1.039,0.332 1.547,0.408 0.514,0.062 1.009,0.073 1.47,0.027 1.666,-0.165 2.489,-1.029 2.523,-2.156 l -0.041,0.014 c -0.092,0.027 -0.188,0.056 -0.29,0.085 l -0.167,0.038 -0.086,0.02 -0.091,0.017 -0.187,0.033 -0.197,0.026 c -0.133,0.018 -0.273,0.028 -0.414,0.038 l -0.105,0.007 -0.109,0.003 -0.216,0.006 c -0.076,-0.001 -0.146,-0.002 -0.218,-0.003 l -0.214,-0.005 c -0.074,-0.005 -0.142,-0.009 -0.21,-0.013 -0.07,-0.005 -0.137,-0.01 -0.204,-0.015 -0.141,-0.016 -0.262,-0.028 -0.377,-0.041 -0.058,-0.011 -0.112,-0.021 -0.165,-0.03 l -0.076,-0.014 -0.073,-0.017 c -0.095,-0.021 -0.178,-0.04 -0.246,-0.056 -0.136,-0.031 -0.214,-0.05 -0.214,-0.05 0,0 0.076,0.011 0.208,0.029 0.065,0.009 0.144,0.021 0.235,0.033 l 0.07,0.009 0.072,0.006 c 0.05,0.005 0.102,0.009 0.156,0.014 0.106,0.012 0.229,0.012 0.352,0.01 0.062,-10e-4 0.124,-0.003 0.188,-0.004 0.062,-0.003 0.124,-0.005 0.192,-0.008 l 0.194,-0.015 c 0.064,-0.006 0.127,-0.013 0.196,-0.019 l 0.191,-0.026 0.097,-0.013 0.093,-0.018 c 0.123,-0.023 0.246,-0.046 0.359,-0.077 l 0.169,-0.044 0.158,-0.05 0.075,-0.024 0.072,-0.027 0.137,-0.052 c 0.084,-0.039 0.161,-0.075 0.235,-0.108 l 0.099,-0.052 c 0.03,-0.018 0.059,-0.034 0.085,-0.05 l 0.067,-0.042 c -1.732,-0.966 -3.713,-1.634 -5.452,-1.609 -1.784,-0.029 -1.434,1.293 -2.855,2.145 z"
           id="path4607"
           inkscape:connector-curvature="0"
           style="fill:#a0baa1" /><path
           d="m 261.542,481.899 c 1.046,1.638 2.601,3.096 4.196,3.486 1.405,0.385 2.358,-0.052 2.747,-0.954 l -0.038,-0.003 c -0.083,-0.007 -0.17,-0.015 -0.264,-0.022 l -0.148,-0.021 -0.076,-0.012 -0.08,-0.016 -0.163,-0.032 -0.169,-0.041 c -0.119,-0.034 -0.234,-0.066 -0.351,-0.1 l -0.088,-0.027 -0.09,-0.032 -0.178,-0.062 c -0.062,-0.024 -0.119,-0.048 -0.177,-0.07 l -0.172,-0.072 c -0.06,-0.026 -0.113,-0.051 -0.168,-0.075 l -0.16,-0.076 c -0.11,-0.056 -0.206,-0.104 -0.296,-0.15 l -0.13,-0.069 -0.059,-0.035 -0.054,-0.036 c -0.068,-0.047 -0.129,-0.089 -0.18,-0.123 -0.099,-0.067 -0.155,-0.106 -0.155,-0.106 0,0 0.057,0.032 0.157,0.089 0.05,0.027 0.11,0.062 0.18,0.1 l 0.053,0.03 0.057,0.027 c 0.041,0.018 0.082,0.036 0.127,0.056 0.088,0.035 0.18,0.072 0.286,0.114 l 0.154,0.056 c 0.052,0.018 0.103,0.035 0.16,0.054 l 0.162,0.049 c 0.055,0.016 0.107,0.03 0.166,0.047 l 0.164,0.039 0.083,0.02 0.081,0.016 c 0.108,0.02 0.216,0.039 0.318,0.051 l 0.152,0.018 0.144,0.009 0.07,0.005 0.067,0 0.129,10e-4 c 0.08,-0.005 0.155,-0.01 0.226,-0.014 0.034,-0.004 0.066,-0.007 0.098,-0.01 0.03,-0.005 0.059,-0.01 0.086,-0.014 l 0.068,-0.013 c -0.529,-0.69 -1.21,-1.271 -1.855,-1.811 -0.65,-0.535 -1.359,-0.953 -2.077,-1.197 -1.486,-0.527 -1.59,0.643 -3.003,0.926 z"
           id="path4609"
           inkscape:connector-curvature="0"
           style="fill:#a0baa1" /><path
           d="m 254.798,467.81 c 0.458,1.526 1.3,3.031 2.479,3.739 1.037,0.65 1.938,0.557 2.498,-0.062 l -0.031,-0.012 c -0.066,-0.027 -0.136,-0.056 -0.21,-0.087 l -0.115,-0.056 -0.06,-0.029 -0.062,-0.032 -0.124,-0.067 -0.127,-0.077 c -0.089,-0.057 -0.175,-0.112 -0.26,-0.168 l -0.065,-0.044 -0.064,-0.049 -0.128,-0.095 c -0.044,-0.035 -0.084,-0.067 -0.125,-0.101 l -0.121,-0.101 c -0.042,-0.036 -0.079,-0.068 -0.117,-0.102 l -0.11,-0.102 c -0.072,-0.063 -0.129,-0.135 -0.187,-0.196 l -0.081,-0.091 -0.037,-0.042 -0.034,-0.042 c -0.044,-0.054 -0.083,-0.102 -0.115,-0.141 -0.062,-0.077 -0.099,-0.122 -0.099,-0.122 0,0 0.037,0.039 0.104,0.108 0.034,0.034 0.074,0.075 0.12,0.122 l 0.036,0.037 0.039,0.036 0.083,0.076 c 0.059,0.052 0.118,0.105 0.188,0.167 l 0.109,0.083 c 0.037,0.027 0.074,0.054 0.116,0.084 l 0.119,0.079 c 0.04,0.025 0.079,0.051 0.122,0.079 l 0.124,0.073 0.062,0.035 0.062,0.033 0.245,0.121 0.12,0.053 0.115,0.045 0.057,0.021 0.055,0.018 0.104,0.034 c 0.067,0.017 0.13,0.032 0.189,0.047 l 0.082,0.018 0.073,0.012 0.061,0.008 c -0.566,-1.356 -1.357,-2.676 -2.411,-3.4 -1.077,-0.758 -1.441,0.163 -2.679,0.09 z"
           id="path4611"
           inkscape:connector-curvature="0"
           style="fill:#a0baa1" /><path
           d="m 251.584,453.128 c 0.11,1.279 0.615,2.589 1.378,3.354 0.688,0.693 1.429,0.789 2.009,0.396 l -0.022,-0.016 c -0.047,-0.034 -0.096,-0.07 -0.149,-0.108 l -0.08,-0.065 -0.041,-0.034 -0.042,-0.037 -0.085,-0.077 -0.086,-0.084 -0.172,-0.181 -0.042,-0.047 -0.041,-0.051 -0.082,-0.099 c -0.028,-0.036 -0.054,-0.069 -0.079,-0.103 l -0.075,-0.102 c -0.026,-0.036 -0.049,-0.068 -0.071,-0.102 l -0.067,-0.1 c -0.044,-0.07 -0.082,-0.131 -0.118,-0.188 l -0.052,-0.086 -0.024,-0.039 -0.021,-0.039 c -0.028,-0.051 -0.052,-0.095 -0.071,-0.131 -0.039,-0.072 -0.062,-0.114 -0.062,-0.114 0,0 0.024,0.038 0.068,0.104 0.021,0.033 0.048,0.072 0.079,0.118 l 0.023,0.035 0.025,0.035 0.056,0.075 c 0.04,0.051 0.08,0.103 0.128,0.164 l 0.07,0.085 c 0.024,0.027 0.049,0.056 0.075,0.087 l 0.078,0.084 0.082,0.085 0.083,0.08 0.042,0.04 0.043,0.037 c 0.057,0.049 0.113,0.1 0.171,0.141 l 0.084,0.063 0.083,0.057 0.04,0.027 0.04,0.024 0.077,0.046 c 0.05,0.026 0.097,0.05 0.141,0.072 l 0.062,0.029 0.057,0.022 0.046,0.018 c -0.128,-1.201 -0.612,-2.394 -1.35,-3.141 -0.763,-0.774 -1.208,-0.089 -2.208,-0.334 z"
           id="path4613"
           inkscape:connector-curvature="0"
           style="fill:#a0baa1" /><path
           d="m 311.894,495.362 c 0,0 -1.267,0.291 -3.463,0.549 -2.198,0.264 -5.355,0.495 -9.144,0.309 -3.78,-0.174 -8.205,-0.804 -12.742,-2.255 -2.273,-0.713 -4.542,-1.69 -6.776,-2.821 -2.189,-1.211 -4.384,-2.529 -6.345,-4.16 -2.02,-1.558 -3.801,-3.391 -5.479,-5.245 -0.78,-0.977 -1.568,-1.938 -2.299,-2.92 -0.675,-1.02 -1.384,-2.003 -2.003,-3.016 -2.509,-4.047 -4.137,-8.188 -5.326,-11.762 -0.285,-0.9 -0.559,-1.762 -0.819,-2.582 -0.229,-0.827 -0.411,-1.621 -0.602,-2.362 -0.185,-0.742 -0.358,-1.438 -0.519,-2.08 -0.153,-0.644 -0.243,-1.244 -0.351,-1.782 -0.404,-2.156 -0.636,-3.388 -0.636,-3.388 0,0 0.262,1.226 0.72,3.371 0.121,0.534 0.226,1.132 0.395,1.771 0.176,0.638 0.366,1.327 0.569,2.063 0.208,0.734 0.409,1.521 0.658,2.34 0.28,0.811 0.574,1.662 0.881,2.551 1.272,3.528 2.992,7.599 5.569,11.53 0.636,0.984 1.359,1.936 2.048,2.922 0.743,0.949 1.542,1.873 2.33,2.812 1.692,1.778 3.477,3.526 5.485,4.995 1.95,1.542 4.12,2.769 6.272,3.892 2.199,1.043 4.422,1.936 6.644,2.57 4.434,1.295 8.737,1.796 12.406,1.871 3.676,0.087 6.727,-0.216 8.835,-0.524 2.113,-0.303 3.271,-0.604 3.271,-0.604"
           id="path4615"
           inkscape:connector-curvature="0"
           style="fill:#a0baa1" /><path
           stroke-miterlimit="10"
           d="m 295.891,486.731 c 2.035,0.05 4.16,0.646 5.673,1.877 1.358,1.115 1.892,2.488 1.436,3.797 l -0.036,-0.037 c -0.082,-0.078 -0.167,-0.159 -0.258,-0.246 l -0.15,-0.131 -0.077,-0.069 -0.083,-0.069 -0.169,-0.14 -0.182,-0.139 c -0.119,-0.094 -0.253,-0.182 -0.382,-0.271 l -0.098,-0.066 -0.103,-0.063 -0.201,-0.125 c -0.072,-0.042 -0.138,-0.079 -0.204,-0.117 l -0.201,-0.113 c -0.071,-0.039 -0.135,-0.074 -0.199,-0.109 -0.065,-0.035 -0.131,-0.07 -0.193,-0.104 -0.121,-0.069 -0.248,-0.124 -0.36,-0.179 -0.056,-0.026 -0.109,-0.052 -0.161,-0.076 l -0.074,-0.035 -0.073,-0.031 c -0.094,-0.039 -0.177,-0.073 -0.244,-0.102 -0.134,-0.056 -0.211,-0.088 -0.211,-0.088 0,0 0.07,0.038 0.194,0.105 0.062,0.033 0.137,0.073 0.224,0.12 l 0.066,0.036 0.066,0.041 c 0.046,0.028 0.095,0.058 0.146,0.088 0.1,0.062 0.214,0.126 0.321,0.203 l 0.168,0.115 c 0.057,0.04 0.112,0.079 0.174,0.123 l 0.173,0.129 c 0.057,0.042 0.112,0.083 0.174,0.129 l 0.168,0.135 0.086,0.068 0.08,0.07 c 0.105,0.095 0.215,0.188 0.31,0.285 l 0.145,0.143 0.131,0.144 0.064,0.069 0.058,0.069 0.113,0.135 c 0.065,0.09 0.136,0.173 0.187,0.252 0.027,0.039 0.053,0.076 0.078,0.112 0.022,0.036 0.044,0.07 0.064,0.103 0.018,0.029 0.034,0.058 0.05,0.084 -2.248,0.233 -4.629,-0.458 -6.026,-1.792 -1.427,-1.401 -0.241,-2.388 -0.664,-4.33 z"
           id="path4617"
           inkscape:connector-curvature="0"
           style="fill:#a0baa1;stroke:#c1d1c1;stroke-width:0.25;stroke-miterlimit:10" /><path
           d="m 284.352,484.408 c 1.646,0.601 3.227,1.637 4.148,3.064 0.823,1.294 0.923,2.559 0.196,3.542 l -0.021,-0.04 c -0.048,-0.086 -0.097,-0.176 -0.15,-0.272 l -0.092,-0.146 -0.047,-0.075 -0.052,-0.077 -0.105,-0.155 -0.114,-0.166 c -0.083,-0.113 -0.163,-0.223 -0.243,-0.333 l -0.063,-0.083 -0.067,-0.08 -0.133,-0.161 c -0.048,-0.054 -0.092,-0.104 -0.137,-0.154 l -0.136,-0.149 c -0.049,-0.05 -0.093,-0.096 -0.138,-0.142 l -0.134,-0.133 c -0.095,-0.088 -0.176,-0.164 -0.254,-0.236 -0.039,-0.036 -0.077,-0.07 -0.113,-0.104 l -0.054,-0.048 -0.053,-0.043 c -0.068,-0.056 -0.129,-0.102 -0.176,-0.146 -0.094,-0.087 -0.147,-0.136 -0.147,-0.136 0,0 0.047,0.053 0.129,0.146 0.041,0.048 0.095,0.097 0.153,0.157 l 0.046,0.046 0.045,0.052 c 0.031,0.034 0.063,0.07 0.098,0.108 0.066,0.076 0.136,0.155 0.215,0.247 l 0.11,0.138 c 0.036,0.047 0.073,0.093 0.112,0.145 l 0.11,0.151 c 0.035,0.05 0.07,0.101 0.108,0.155 l 0.104,0.16 0.053,0.08 0.047,0.081 0.18,0.323 0.082,0.159 0.071,0.156 0.034,0.075 0.03,0.074 0.059,0.145 c 0.032,0.091 0.062,0.175 0.091,0.254 0.013,0.04 0.024,0.076 0.036,0.112 0.01,0.035 0.019,0.068 0.026,0.1 0.008,0.029 0.015,0.057 0.021,0.083 -0.961,-0.209 -1.897,-0.608 -2.694,-1.129 -0.779,-0.564 -1.435,-1.21 -1.832,-1.956 -0.783,-1.568 0.461,-2.055 0.651,-3.789 z"
           id="path4619"
           inkscape:connector-curvature="0"
           style="fill:#a0baa1" /><path
           d="m 274.251,478.269 c 0.299,0.25 0.57,0.535 0.822,0.834 0.271,0.278 0.515,0.581 0.726,0.901 0.427,0.638 0.705,1.378 0.88,2.061 0.281,1.267 -0.073,2.348 -0.947,2.886 l -0.003,-0.039 c -0.011,-0.085 -0.021,-0.173 -0.032,-0.268 l -0.025,-0.148 -0.014,-0.076 -0.017,-0.078 -0.034,-0.16 -0.042,-0.165 c -0.033,-0.113 -0.066,-0.224 -0.099,-0.335 l -0.026,-0.083 -0.03,-0.084 -0.061,-0.166 c -0.022,-0.057 -0.044,-0.11 -0.065,-0.163 l -0.065,-0.158 c -0.024,-0.054 -0.046,-0.104 -0.068,-0.153 l -0.062,-0.154 c -0.046,-0.104 -0.084,-0.194 -0.121,-0.279 -0.02,-0.043 -0.038,-0.084 -0.057,-0.124 l -0.025,-0.057 -0.027,-0.054 c -0.035,-0.067 -0.066,-0.128 -0.092,-0.178 -0.05,-0.098 -0.079,-0.154 -0.079,-0.154 0,0 0.022,0.058 0.062,0.156 0.02,0.05 0.043,0.109 0.07,0.179 l 0.021,0.054 0.019,0.057 c 0.013,0.039 0.026,0.079 0.041,0.122 0.027,0.084 0.056,0.173 0.088,0.274 l 0.042,0.149 c 0.014,0.051 0.027,0.101 0.042,0.156 l 0.044,0.151 c 0.014,0.051 0.027,0.101 0.042,0.155 l 0.036,0.156 0.019,0.079 0.014,0.078 0.049,0.31 0.019,0.149 0.01,0.145 0.006,0.069 10e-4,0.068 0.004,0.131 c -0.003,0.083 -0.006,0.159 -0.008,0.232 -0.003,0.036 -0.005,0.069 -0.007,0.102 -0.004,0.031 -0.007,0.062 -0.01,0.09 l -0.011,0.072 c -0.714,-0.457 -1.358,-1.047 -1.805,-1.751 -0.456,-0.692 -0.805,-1.394 -0.887,-2.132 -0.161,-1.514 0.99,-1.514 1.662,-2.857 z"
           id="path4621"
           inkscape:connector-curvature="0"
           style="fill:#a0baa1" /><path
           d="m 266.442,468.534 c 0.376,0.581 0.616,1.257 0.8,1.905 0.191,0.644 0.259,1.307 0.177,1.929 -0.15,1.123 -0.753,1.859 -1.592,2.011 l 0.009,-0.033 c 0.018,-0.069 0.036,-0.144 0.056,-0.223 l 0.025,-0.125 0.013,-0.065 0.011,-0.067 0.021,-0.139 0.017,-0.145 c 0.009,-0.102 0.017,-0.2 0.024,-0.299 l 0.004,-0.075 0.002,-0.077 0.002,-0.152 c -0.001,-0.053 -0.001,-0.103 -0.002,-0.152 l -0.005,-0.148 c -0.003,-0.051 -0.006,-0.098 -0.009,-0.145 l -0.011,-0.139 c -0.011,-0.095 -0.02,-0.178 -0.028,-0.255 -0.005,-0.04 -0.01,-0.077 -0.015,-0.114 l -0.006,-0.053 -0.009,-0.05 c -0.012,-0.064 -0.022,-0.121 -0.03,-0.167 -0.017,-0.092 -0.025,-0.145 -0.025,-0.145 0,0 0.004,0.051 0.011,0.142 0.004,0.044 0.008,0.099 0.013,0.161 l 0.004,0.048 10e-4,0.051 c 0.001,0.035 0.001,0.07 0.003,0.108 0,0.074 0,0.152 10e-4,0.241 l -0.004,0.13 c -0.002,0.044 -0.004,0.087 -0.006,0.135 l -0.011,0.136 c -0.005,0.046 -0.009,0.09 -0.014,0.139 l -0.019,0.138 -0.01,0.068 -0.012,0.067 -0.055,0.264 -0.03,0.125 -0.035,0.118 -0.017,0.059 -0.02,0.054 -0.036,0.105 c -0.027,0.065 -0.052,0.125 -0.076,0.183 l -0.036,0.078 -0.034,0.068 -0.03,0.054 c -0.802,-1.187 -1.318,-2.639 -1.049,-3.888 0.24,-1.263 1.168,-0.949 2.032,-1.861 z"
           id="path4623"
           inkscape:connector-curvature="0"
           style="fill:#a0baa1" /><path
           d="m 261.188,456.398 c 0.402,1.085 0.451,2.334 0.065,3.301 -0.359,0.874 -0.93,1.296 -1.634,1.239 l 0.012,-0.023 c 0.026,-0.051 0.054,-0.104 0.083,-0.16 l 0.04,-0.092 0.022,-0.047 0.022,-0.052 0.046,-0.104 0.043,-0.11 c 0.028,-0.079 0.055,-0.155 0.081,-0.231 l 0.02,-0.059 0.018,-0.061 0.034,-0.121 c 0.011,-0.043 0.02,-0.081 0.029,-0.121 l 0.028,-0.119 c 0.009,-0.042 0.016,-0.079 0.023,-0.117 l 0.021,-0.113 c 0.013,-0.079 0.022,-0.146 0.032,-0.21 l 0.013,-0.094 0.006,-0.044 0.003,-0.042 c 0.005,-0.054 0.009,-0.102 0.013,-0.141 0.007,-0.076 0.011,-0.121 0.011,-0.121 0,0 -0.008,0.042 -0.021,0.116 -0.007,0.037 -0.015,0.081 -0.024,0.132 l -0.007,0.039 -0.01,0.041 -0.021,0.088 c -0.016,0.06 -0.031,0.12 -0.05,0.193 l -0.03,0.103 c -0.011,0.034 -0.021,0.067 -0.032,0.105 l -0.037,0.106 c -0.013,0.035 -0.025,0.069 -0.04,0.107 l -0.043,0.104 -0.021,0.053 -0.023,0.051 -0.098,0.196 -0.05,0.093 -0.052,0.086 -0.025,0.042 -0.026,0.038 -0.05,0.075 c -0.035,0.045 -0.067,0.087 -0.098,0.127 l -0.044,0.054 -0.041,0.046 -0.033,0.035 c -0.377,-1.098 -0.424,-2.356 -0.051,-3.282 0.387,-0.954 1.072,-0.535 1.896,-1.106 z"
           id="path4625"
           inkscape:connector-curvature="0"
           style="fill:#a0baa1" /></g></g></g><g
     id="g4627"
     transform="translate(-223.689,-119.92299)"><g
       id="g4629"><g
         id="g4631"><path
           stroke-miterlimit="10"
           d="m 249.24,194.098 c -0.684,2.7 -0.412,5.759 0.768,7.775 1.065,1.834 2.54,2.392 3.801,1.754 l -0.04,-0.042 c -0.082,-0.093 -0.167,-0.189 -0.258,-0.292 l -0.136,-0.171 -0.069,-0.089 -0.068,-0.096 -0.14,-0.199 -0.135,-0.211 c -0.092,-0.14 -0.177,-0.298 -0.264,-0.453 l -0.064,-0.117 -0.061,-0.123 -0.117,-0.242 c -0.038,-0.087 -0.072,-0.166 -0.107,-0.247 l -0.103,-0.245 c -0.033,-0.087 -0.062,-0.165 -0.093,-0.245 -0.029,-0.081 -0.059,-0.161 -0.086,-0.239 -0.057,-0.151 -0.096,-0.306 -0.138,-0.445 -0.02,-0.069 -0.039,-0.137 -0.058,-0.201 l -0.026,-0.094 -0.022,-0.09 c -0.027,-0.118 -0.052,-0.221 -0.072,-0.306 -0.04,-0.168 -0.062,-0.266 -0.062,-0.266 0,0 0.029,0.091 0.082,0.249 0.025,0.078 0.057,0.173 0.093,0.283 l 0.028,0.083 0.033,0.085 c 0.022,0.058 0.047,0.119 0.071,0.183 0.051,0.125 0.101,0.267 0.165,0.4 l 0.099,0.21 c 0.034,0.07 0.068,0.138 0.106,0.215 l 0.115,0.212 c 0.04,0.069 0.078,0.137 0.121,0.211 l 0.127,0.204 0.063,0.103 0.067,0.096 c 0.09,0.126 0.182,0.258 0.277,0.369 l 0.14,0.17 0.14,0.153 0.067,0.074 0.069,0.066 0.132,0.128 c 0.088,0.074 0.172,0.154 0.251,0.211 0.039,0.03 0.076,0.059 0.112,0.086 0.036,0.025 0.07,0.048 0.103,0.071 0.03,0.02 0.059,0.038 0.085,0.055 0.182,-2.492 -0.11,-5.041 -1.036,-6.967 -0.94,-2.006 -2.23,-0.931 -3.96,-2.066 z"
           id="path4633"
           inkscape:connector-curvature="0"
           style="fill:#a0baa1;stroke:#c1d1c1;stroke-width:0.25;stroke-miterlimit:10" /><path
           d="m 254.349,178.831 c -1.255,2.21 -1.783,4.938 -1.229,6.924 0.468,1.794 1.604,2.571 2.84,2.421 l -0.024,-0.043 c -0.052,-0.092 -0.095,-0.198 -0.147,-0.307 l -0.071,-0.177 -0.037,-0.091 -0.034,-0.098 -0.069,-0.199 -0.063,-0.214 c -0.043,-0.143 -0.079,-0.295 -0.115,-0.449 l -0.027,-0.115 -0.022,-0.119 -0.044,-0.237 c -0.013,-0.084 -0.023,-0.161 -0.036,-0.239 l -0.031,-0.235 c -0.009,-0.082 -0.017,-0.158 -0.024,-0.233 l -0.013,-0.224 c -0.009,-0.144 -0.007,-0.287 -0.007,-0.417 0,-0.065 0,-0.128 0,-0.188 l 0,-0.086 0.004,-0.084 c 0.005,-0.107 0.009,-0.203 0.013,-0.281 0.008,-0.155 0.013,-0.244 0.013,-0.244 0,0 0.003,0.085 0.009,0.233 0.003,0.074 0.006,0.164 0.011,0.267 l 0.003,0.079 0.008,0.082 c 0.005,0.055 0.011,0.113 0.016,0.174 0.012,0.121 0.022,0.253 0.043,0.385 0.011,0.067 0.021,0.134 0.031,0.204 0.01,0.068 0.021,0.141 0.039,0.21 l 0.052,0.21 c 0.018,0.069 0.035,0.138 0.055,0.212 l 0.062,0.207 0.032,0.104 0.035,0.1 c 0.048,0.131 0.095,0.263 0.149,0.382 l 0.078,0.179 0.083,0.165 0.04,0.08 0.043,0.074 0.082,0.143 c 0.058,0.086 0.111,0.165 0.162,0.241 0.026,0.036 0.05,0.069 0.074,0.101 0.024,0.03 0.048,0.059 0.069,0.085 l 0.059,0.068 c 0.784,-2.064 1.144,-4.372 0.819,-6.273 -0.352,-1.995 -1.718,-1.362 -2.931,-2.777 z"
           id="path4635"
           inkscape:connector-curvature="0"
           style="fill:#a0baa1" /><path
           d="m 264.006,165.618 c -0.431,0.374 -0.849,0.778 -1.219,1.216 -0.353,0.454 -0.672,0.929 -0.946,1.41 -0.272,0.483 -0.511,0.965 -0.674,1.451 -0.151,0.495 -0.25,0.98 -0.285,1.442 -0.131,1.669 0.575,2.632 1.679,2.863 l -0.007,-0.043 c -0.011,-0.095 -0.021,-0.194 -0.032,-0.3 -0.003,-0.055 -0.006,-0.112 -0.009,-0.17 l -0.004,-0.088 -0.001,-0.093 0.001,-0.189 0.009,-0.199 c 0.006,-0.133 0.021,-0.274 0.035,-0.414 l 0.012,-0.105 0.017,-0.107 0.032,-0.214 c 0.015,-0.075 0.027,-0.144 0.041,-0.213 l 0.043,-0.209 c 0.018,-0.073 0.033,-0.139 0.049,-0.206 0.017,-0.067 0.034,-0.132 0.051,-0.198 0.039,-0.135 0.073,-0.253 0.106,-0.364 0.021,-0.054 0.04,-0.106 0.059,-0.157 l 0.026,-0.073 0.029,-0.069 c 0.038,-0.089 0.071,-0.167 0.099,-0.232 0.055,-0.128 0.086,-0.202 0.086,-0.202 0,0 -0.023,0.073 -0.065,0.199 -0.021,0.063 -0.045,0.138 -0.073,0.227 l -0.021,0.067 -0.019,0.07 c -0.013,0.048 -0.026,0.098 -0.041,0.151 -0.03,0.103 -0.052,0.224 -0.071,0.345 -0.009,0.061 -0.019,0.122 -0.028,0.186 -0.009,0.062 -0.018,0.123 -0.027,0.191 l -0.02,0.194 c -0.005,0.064 -0.01,0.127 -0.016,0.196 l -0.009,0.193 -0.004,0.098 10e-4,0.094 c 0.002,0.125 0.003,0.25 0.013,0.368 l 0.014,0.174 0.021,0.164 0.01,0.079 0.015,0.075 0.027,0.144 c 0.023,0.089 0.045,0.172 0.065,0.25 l 0.033,0.106 c 0.013,0.033 0.023,0.063 0.034,0.092 l 0.029,0.074 c 1.256,-1.535 2.262,-3.368 2.543,-5.084 0.343,-1.755 -1.019,-1.642 -1.608,-3.19 z"
           id="path4637"
           inkscape:connector-curvature="0"
           style="fill:#a0baa1" /><path
           d="m 277.497,156.591 c -1.795,0.742 -3.504,2.016 -4.169,3.518 -0.626,1.315 -0.363,2.331 0.457,2.873 l 0.009,-0.037 c 0.021,-0.081 0.044,-0.166 0.068,-0.256 l 0.048,-0.142 0.024,-0.074 0.029,-0.075 0.061,-0.155 0.07,-0.16 c 0.054,-0.111 0.106,-0.219 0.159,-0.327 l 0.042,-0.082 0.048,-0.083 0.094,-0.164 c 0.034,-0.056 0.067,-0.109 0.1,-0.162 l 0.102,-0.157 c 0.036,-0.054 0.07,-0.103 0.104,-0.152 l 0.104,-0.145 c 0.074,-0.098 0.139,-0.184 0.199,-0.264 l 0.092,-0.117 0.045,-0.051 0.045,-0.047 c 0.058,-0.059 0.109,-0.112 0.152,-0.155 0.084,-0.085 0.132,-0.134 0.132,-0.134 0,0 -0.041,0.05 -0.114,0.139 -0.036,0.044 -0.08,0.098 -0.131,0.159 l -0.038,0.047 -0.037,0.051 c -0.024,0.037 -0.05,0.075 -0.077,0.115 -0.05,0.08 -0.103,0.164 -0.163,0.261 l -0.081,0.142 c -0.026,0.047 -0.053,0.095 -0.082,0.148 l -0.077,0.152 c -0.024,0.05 -0.048,0.1 -0.074,0.154 l -0.067,0.155 -0.034,0.078 -0.029,0.077 c -0.038,0.103 -0.076,0.205 -0.105,0.304 l -0.044,0.146 -0.035,0.14 -0.017,0.068 -0.012,0.066 -0.023,0.127 c -0.01,0.08 -0.018,0.154 -0.026,0.225 -0.002,0.034 -0.005,0.066 -0.007,0.098 -10e-4,0.031 -0.002,0.06 -0.002,0.086 l 0,0.07 c 0.772,-0.399 1.465,-0.968 2.108,-1.509 0.641,-0.546 1.178,-1.171 1.544,-1.834 0.773,-1.368 -0.361,-1.677 -0.392,-3.117 z"
           id="path4639"
           inkscape:connector-curvature="0"
           style="fill:#a0baa1" /><path
           d="m 292.554,152.429 c -1.583,0.184 -3.212,0.747 -4.117,1.784 -0.822,0.906 -0.889,1.809 -0.379,2.469 l 0.018,-0.028 c 0.038,-0.06 0.079,-0.124 0.123,-0.191 l 0.074,-0.104 0.039,-0.054 0.043,-0.055 0.089,-0.11 0.098,-0.112 0.211,-0.226 0.055,-0.056 0.06,-0.055 0.116,-0.109 c 0.042,-0.037 0.081,-0.071 0.121,-0.106 l 0.119,-0.102 c 0.043,-0.034 0.082,-0.065 0.121,-0.097 l 0.119,-0.091 c 0.076,-0.06 0.155,-0.104 0.227,-0.149 l 0.104,-0.064 0.048,-0.029 0.047,-0.026 c 0.061,-0.034 0.114,-0.063 0.159,-0.088 0.087,-0.048 0.138,-0.076 0.138,-0.076 0,0 -0.045,0.03 -0.125,0.084 -0.04,0.027 -0.087,0.06 -0.142,0.097 l -0.043,0.029 -0.042,0.032 -0.09,0.069 c -0.062,0.048 -0.125,0.098 -0.197,0.156 l -0.102,0.093 c -0.033,0.032 -0.066,0.064 -0.103,0.1 l -0.1,0.104 c -0.032,0.035 -0.063,0.069 -0.099,0.107 l -0.094,0.109 -0.046,0.055 -0.044,0.056 -0.162,0.221 -0.073,0.108 -0.063,0.106 -0.032,0.052 -0.026,0.051 -0.052,0.097 c -0.028,0.063 -0.055,0.122 -0.08,0.178 l -0.031,0.078 -0.024,0.07 -0.019,0.058 c 1.435,-0.319 2.872,-0.866 3.771,-1.775 0.937,-0.935 0.095,-1.455 0.385,-2.66 z"
           id="path4641"
           inkscape:connector-curvature="0"
           style="fill:#a0baa1" /><path
           d="m 307.571,151.846 c -1.278,-0.117 -2.656,0.15 -3.545,0.766 -0.803,0.556 -1.027,1.269 -0.742,1.909 l 0.019,-0.02 c 0.042,-0.041 0.086,-0.083 0.133,-0.128 l 0.079,-0.067 0.041,-0.035 0.044,-0.034 0.091,-0.07 0.098,-0.07 c 0.071,-0.047 0.14,-0.092 0.208,-0.137 l 0.054,-0.034 0.057,-0.032 0.112,-0.063 c 0.04,-0.021 0.077,-0.04 0.114,-0.059 l 0.113,-0.057 c 0.04,-0.019 0.076,-0.035 0.112,-0.052 l 0.11,-0.048 c 0.077,-0.031 0.143,-0.058 0.206,-0.083 l 0.094,-0.036 0.043,-0.017 0.042,-0.014 c 0.055,-0.018 0.103,-0.034 0.142,-0.047 0.078,-0.025 0.123,-0.041 0.123,-0.041 0,0 -0.042,0.018 -0.114,0.049 -0.036,0.016 -0.079,0.035 -0.13,0.057 l -0.038,0.017 -0.039,0.02 -0.084,0.042 c -0.058,0.03 -0.115,0.06 -0.185,0.097 l -0.096,0.055 c -0.032,0.019 -0.063,0.038 -0.099,0.059 l -0.098,0.062 c -0.031,0.021 -0.062,0.042 -0.097,0.065 l -0.094,0.068 -0.047,0.035 -0.044,0.035 c -0.059,0.048 -0.118,0.095 -0.169,0.144 l -0.077,0.072 -0.07,0.072 -0.034,0.035 -0.03,0.035 -0.06,0.067 c -0.034,0.045 -0.065,0.086 -0.096,0.126 l -0.039,0.056 -0.033,0.052 -0.024,0.042 c 1.205,0.085 2.463,-0.183 3.328,-0.777 0.9,-0.617 0.305,-1.175 0.721,-2.116 z"
           id="path4643"
           inkscape:connector-curvature="0"
           style="fill:#a0baa1" /><path
           d="m 255.393,203.792 c 0,0 -0.064,-1.298 0.068,-3.506 0.127,-2.209 0.454,-5.358 1.304,-9.055 0.836,-3.691 2.234,-7.937 4.461,-12.147 1.101,-2.112 2.462,-4.174 3.968,-6.175 1.577,-1.942 3.261,-3.871 5.211,-5.515 1.889,-1.714 4.006,-3.145 6.127,-4.471 1.098,-0.596 2.183,-1.203 3.278,-1.75 1.122,-0.485 2.215,-1.01 3.32,-1.442 4.425,-1.759 8.788,-2.633 12.516,-3.175 0.936,-0.123 1.832,-0.241 2.685,-0.353 0.855,-0.081 1.669,-0.12 2.432,-0.177 0.764,-0.052 1.479,-0.101 2.139,-0.145 0.661,-0.038 1.269,-0.021 1.816,-0.032 2.193,-0.019 3.447,-0.03 3.447,-0.03 0,0 -1.253,0.042 -3.445,0.116 -0.548,0.025 -1.153,0.023 -1.812,0.077 -0.658,0.062 -1.371,0.127 -2.132,0.198 -0.76,0.076 -1.569,0.135 -2.419,0.236 -0.847,0.133 -1.737,0.273 -2.666,0.418 -3.696,0.632 -8.006,1.61 -12.329,3.456 -1.081,0.453 -2.145,0.998 -3.237,1.502 -1.064,0.565 -2.114,1.188 -3.177,1.799 -2.049,1.354 -4.083,2.803 -5.881,4.522 -1.861,1.648 -3.451,3.569 -4.935,5.491 -1.413,1.981 -2.683,4.012 -3.697,6.087 -2.055,4.137 -3.305,8.286 -4.023,11.884 -0.732,3.604 -0.971,6.661 -1.038,8.79 -0.073,2.134 0.02,3.326 0.02,3.326"
           id="path4645"
           inkscape:connector-curvature="0"
           style="fill:#a0baa1" /><path
           stroke-miterlimit="10"
           d="m 266.702,189.556 c -0.406,1.995 -1.366,3.982 -2.845,5.254 -1.337,1.141 -2.782,1.425 -3.99,0.745 l 0.043,-0.029 c 0.091,-0.066 0.186,-0.136 0.288,-0.21 l 0.155,-0.125 0.081,-0.064 0.083,-0.069 0.167,-0.143 0.168,-0.154 c 0.114,-0.101 0.225,-0.217 0.335,-0.329 l 0.083,-0.084 0.08,-0.089 0.159,-0.176 c 0.054,-0.064 0.102,-0.122 0.151,-0.181 l 0.146,-0.178 c 0.052,-0.063 0.097,-0.119 0.144,-0.177 0.046,-0.058 0.092,-0.116 0.136,-0.171 0.089,-0.108 0.166,-0.223 0.239,-0.323 0.036,-0.051 0.07,-0.099 0.104,-0.146 l 0.048,-0.067 0.043,-0.066 c 0.055,-0.085 0.104,-0.161 0.143,-0.223 0.079,-0.122 0.124,-0.192 0.124,-0.192 0,0 -0.05,0.063 -0.138,0.173 -0.044,0.055 -0.097,0.122 -0.157,0.199 l -0.048,0.059 -0.052,0.059 c -0.036,0.04 -0.073,0.083 -0.112,0.127 -0.079,0.087 -0.161,0.188 -0.257,0.28 l -0.143,0.146 c -0.049,0.048 -0.098,0.096 -0.151,0.15 l -0.157,0.146 c -0.052,0.049 -0.103,0.096 -0.157,0.149 l -0.163,0.142 -0.082,0.072 -0.084,0.066 c -0.111,0.087 -0.223,0.179 -0.335,0.254 l -0.166,0.117 -0.164,0.104 -0.079,0.051 -0.079,0.045 -0.152,0.088 c -0.1,0.049 -0.193,0.103 -0.28,0.14 -0.043,0.02 -0.084,0.038 -0.124,0.056 -0.04,0.016 -0.077,0.031 -0.112,0.045 -0.033,0.013 -0.063,0.024 -0.092,0.035 0.165,-2.255 1.265,-4.477 2.823,-5.618 1.627,-1.154 2.391,0.187 4.376,0.112 z"
           id="path4647"
           inkscape:connector-curvature="0"
           style="fill:#a0baa1;stroke:#c1d1c1;stroke-width:0.25;stroke-miterlimit:10" /><path
           d="m 271.019,178.605 c -0.881,1.514 -2.179,2.888 -3.747,3.545 -1.418,0.582 -2.681,0.458 -3.521,-0.43 l 0.043,-0.013 c 0.093,-0.032 0.19,-0.065 0.294,-0.1 l 0.161,-0.064 0.082,-0.033 0.085,-0.038 0.172,-0.077 0.184,-0.083 c 0.126,-0.062 0.248,-0.122 0.37,-0.182 l 0.093,-0.047 0.091,-0.052 0.182,-0.103 c 0.062,-0.038 0.119,-0.073 0.177,-0.108 l 0.17,-0.107 c 0.059,-0.039 0.111,-0.074 0.164,-0.11 l 0.154,-0.109 c 0.103,-0.077 0.192,-0.145 0.277,-0.208 0.042,-0.033 0.083,-0.064 0.121,-0.094 l 0.057,-0.044 0.053,-0.044 c 0.066,-0.057 0.122,-0.108 0.175,-0.147 0.102,-0.078 0.159,-0.122 0.159,-0.122 0,0 -0.061,0.037 -0.166,0.102 -0.054,0.031 -0.111,0.076 -0.182,0.123 l -0.054,0.037 -0.058,0.036 c -0.039,0.024 -0.081,0.05 -0.125,0.077 -0.086,0.051 -0.177,0.105 -0.281,0.167 l -0.154,0.084 c -0.052,0.028 -0.104,0.055 -0.162,0.086 l -0.168,0.081 c -0.056,0.026 -0.112,0.052 -0.172,0.08 l -0.176,0.074 -0.088,0.037 -0.089,0.033 -0.35,0.12 -0.172,0.052 -0.165,0.042 -0.081,0.021 -0.078,0.016 -0.152,0.032 c -0.095,0.016 -0.183,0.031 -0.267,0.044 -0.041,0.006 -0.079,0.011 -0.116,0.017 -0.036,0.003 -0.07,0.006 -0.103,0.009 -0.03,0.002 -0.059,0.004 -0.085,0.006 0.374,-0.909 0.932,-1.761 1.584,-2.454 0.692,-0.667 1.443,-1.2 2.248,-1.46 1.681,-0.494 1.943,0.816 3.616,1.308 z"
           id="path4649"
           inkscape:connector-curvature="0"
           style="fill:#a0baa1" /><path
           d="m 278.838,169.741 c -0.299,0.25 -0.627,0.467 -0.966,0.663 -0.321,0.218 -0.662,0.405 -1.015,0.557 -0.703,0.308 -1.48,0.452 -2.183,0.503 -1.297,0.054 -2.298,-0.484 -2.675,-1.439 l 0.039,0.003 c 0.085,0.005 0.174,0.01 0.27,0.016 l 0.15,10e-4 0.077,0 0.08,-0.002 0.163,-0.006 0.17,-0.013 c 0.117,-0.013 0.232,-0.025 0.347,-0.038 l 0.087,-0.011 0.089,-0.015 0.174,-0.03 c 0.06,-0.013 0.115,-0.024 0.171,-0.036 l 0.168,-0.037 c 0.058,-0.014 0.11,-0.027 0.163,-0.04 l 0.162,-0.034 c 0.111,-0.026 0.207,-0.049 0.297,-0.07 0.046,-0.012 0.09,-0.022 0.132,-0.033 l 0.061,-0.016 0.058,-0.018 c 0.071,-0.022 0.138,-0.042 0.19,-0.059 0.105,-0.032 0.166,-0.05 0.166,-0.05 0,0 -0.061,0.012 -0.165,0.033 -0.052,0.011 -0.115,0.023 -0.188,0.039 l -0.057,0.011 -0.06,0.008 c -0.04,0.006 -0.082,0.013 -0.127,0.019 -0.088,0.012 -0.18,0.024 -0.286,0.038 l -0.154,0.015 c -0.052,0.004 -0.104,0.009 -0.161,0.014 l -0.156,0.016 c -0.053,0.004 -0.104,0.009 -0.16,0.014 l -0.161,0.008 -0.08,0.004 -0.08,0 -0.312,-0.006 -0.151,-0.008 -0.144,-0.015 -0.069,-0.007 -0.067,-0.01 -0.129,-0.02 c -0.082,-0.018 -0.156,-0.034 -0.229,-0.049 -0.034,-0.009 -0.067,-0.017 -0.099,-0.025 -0.03,-0.009 -0.059,-0.018 -0.086,-0.025 l -0.07,-0.023 c 0.576,-0.622 1.271,-1.153 2.041,-1.469 0.762,-0.328 1.514,-0.547 2.255,-0.498 1.518,0.108 1.315,1.241 2.52,2.14 z"
           id="path4651"
           inkscape:connector-curvature="0"
           style="fill:#a0baa1" /><path
           d="m 289.794,163.765 c -0.638,0.267 -1.346,0.385 -2.017,0.452 -0.667,0.075 -1.331,0.025 -1.93,-0.166 -1.079,-0.345 -1.698,-1.067 -1.699,-1.92 l 0.03,0.015 c 0.066,0.029 0.136,0.061 0.21,0.094 l 0.119,0.046 0.062,0.024 0.064,0.022 0.133,0.045 0.139,0.042 c 0.1,0.026 0.195,0.051 0.291,0.076 l 0.073,0.018 0.075,0.015 0.15,0.029 c 0.052,0.009 0.101,0.017 0.149,0.024 l 0.147,0.022 c 0.05,0.006 0.097,0.011 0.144,0.017 l 0.139,0.014 c 0.095,0.006 0.179,0.012 0.256,0.017 0.04,0.002 0.078,0.004 0.115,0.005 l 0.052,0.003 0.052,0 c 0.065,0 0.122,0 0.17,0 0.093,0 0.146,0 0.146,0 0,0 -0.051,-0.005 -0.142,-0.014 -0.044,-0.004 -0.099,-0.01 -0.161,-0.016 l -0.048,-0.005 -0.05,-0.008 c -0.034,-0.005 -0.069,-0.011 -0.107,-0.016 -0.072,-0.013 -0.149,-0.026 -0.237,-0.041 l -0.127,-0.027 c -0.043,-0.009 -0.085,-0.019 -0.132,-0.029 l -0.132,-0.035 c -0.044,-0.012 -0.087,-0.024 -0.135,-0.037 l -0.131,-0.042 -0.066,-0.021 -0.064,-0.024 -0.25,-0.1 -0.117,-0.052 -0.11,-0.055 -0.055,-0.026 -0.05,-0.029 -0.097,-0.054 c -0.06,-0.038 -0.114,-0.073 -0.167,-0.107 l -0.07,-0.049 -0.062,-0.046 -0.048,-0.039 c 1.309,-0.581 2.829,-0.834 4.012,-0.35 1.203,0.458 0.73,1.316 1.476,2.328 z"
           id="path4653"
           inkscape:connector-curvature="0"
           style="fill:#a0baa1" /><path
           d="m 302.664,160.725 c -1.139,0.205 -2.377,0.034 -3.261,-0.516 -0.798,-0.507 -1.112,-1.142 -0.933,-1.826 l 0.021,0.017 c 0.045,0.034 0.092,0.07 0.143,0.109 l 0.084,0.056 0.043,0.03 0.046,0.031 0.095,0.063 0.102,0.062 c 0.073,0.042 0.143,0.081 0.213,0.121 l 0.055,0.03 0.057,0.027 0.113,0.055 c 0.04,0.019 0.076,0.034 0.113,0.051 l 0.113,0.048 c 0.04,0.016 0.074,0.03 0.11,0.044 l 0.108,0.04 c 0.075,0.026 0.139,0.047 0.201,0.068 l 0.091,0.029 0.041,0.013 0.041,0.011 c 0.052,0.014 0.099,0.027 0.136,0.037 0.074,0.02 0.118,0.032 0.118,0.032 0,0 -0.04,-0.015 -0.11,-0.042 -0.035,-0.013 -0.077,-0.029 -0.126,-0.047 l -0.038,-0.014 -0.038,-0.017 -0.082,-0.036 c -0.056,-0.025 -0.113,-0.052 -0.182,-0.083 l -0.096,-0.047 c -0.032,-0.017 -0.063,-0.033 -0.099,-0.051 l -0.098,-0.055 c -0.032,-0.019 -0.064,-0.038 -0.099,-0.058 l -0.097,-0.061 -0.048,-0.031 -0.046,-0.032 -0.176,-0.13 -0.082,-0.065 -0.075,-0.066 -0.037,-0.032 -0.034,-0.033 -0.064,-0.062 c -0.038,-0.042 -0.074,-0.081 -0.108,-0.118 l -0.044,-0.053 -0.038,-0.048 -0.029,-0.039 c 1.146,-0.179 2.395,-0.003 3.24,0.527 0.872,0.549 0.34,1.149 0.756,2.061 z"
           id="path4655"
           inkscape:connector-curvature="0"
           style="fill:#a0baa1" /></g></g></g><g
     id="g4657"
     transform="translate(-223.689,-329.9232)"><g
       id="g4659"><g
         id="g4661"><path
           stroke-miterlimit="10"
           d="m 566.065,488.06 c -2.059,-0.254 -4.25,0.086 -5.858,1.09 -1.438,0.906 -2.081,2.204 -1.91,3.551 l 0.038,-0.031 c 0.078,-0.067 0.179,-0.135 0.278,-0.21 l 0.162,-0.108 0.083,-0.057 0.089,-0.055 0.18,-0.11 0.195,-0.111 c 0.129,-0.076 0.27,-0.145 0.407,-0.214 l 0.103,-0.053 0.106,-0.048 0.215,-0.099 c 0.076,-0.033 0.145,-0.062 0.216,-0.092 l 0.212,-0.087 c 0.074,-0.028 0.141,-0.053 0.208,-0.078 l 0.202,-0.071 c 0.129,-0.051 0.261,-0.089 0.379,-0.128 0.058,-0.019 0.114,-0.037 0.169,-0.054 l 0.078,-0.025 0.075,-0.021 c 0.099,-0.026 0.184,-0.049 0.255,-0.067 0.139,-0.037 0.219,-0.059 0.219,-0.059 0,0 -0.075,0.028 -0.205,0.077 -0.065,0.025 -0.145,0.055 -0.236,0.09 l -0.07,0.026 -0.071,0.032 c -0.049,0.021 -0.101,0.044 -0.154,0.067 -0.107,0.048 -0.228,0.096 -0.344,0.158 l -0.181,0.089 c -0.061,0.03 -0.12,0.06 -0.187,0.094 l -0.186,0.102 c -0.062,0.035 -0.121,0.069 -0.188,0.106 l -0.184,0.113 -0.093,0.058 -0.088,0.06 c -0.117,0.081 -0.234,0.155 -0.34,0.239 l -0.16,0.121 -0.147,0.122 -0.072,0.059 -0.066,0.062 -0.129,0.116 c -0.077,0.079 -0.147,0.15 -0.216,0.22 l -0.09,0.099 c -0.027,0.032 -0.053,0.062 -0.077,0.091 l -0.061,0.075 c 2.138,0.548 4.608,0.204 6.179,-0.938 1.615,-1.193 0.57,-2.334 1.265,-4.201 z"
           id="path4663"
           inkscape:connector-curvature="0"
           style="fill:#a0baa1;stroke:#c1d1c1;stroke-width:0.25;stroke-miterlimit:10" /><path
           d="m 577.888,487.094 c -1.812,0.26 -3.607,1.105 -4.811,2.365 -1.071,1.162 -1.372,2.464 -0.803,3.57 l 0.027,-0.037 c 0.062,-0.081 0.128,-0.166 0.197,-0.257 l 0.116,-0.139 0.061,-0.071 0.065,-0.071 0.133,-0.146 0.145,-0.146 c 0.096,-0.098 0.201,-0.193 0.306,-0.289 l 0.079,-0.071 0.082,-0.069 0.164,-0.137 c 0.059,-0.046 0.112,-0.088 0.167,-0.13 l 0.165,-0.125 c 0.058,-0.041 0.111,-0.079 0.165,-0.116 l 0.158,-0.114 c 0.111,-0.078 0.207,-0.145 0.298,-0.207 0.047,-0.032 0.091,-0.062 0.134,-0.09 l 0.062,-0.042 0.061,-0.037 c 0.078,-0.047 0.147,-0.089 0.204,-0.123 0.111,-0.067 0.176,-0.106 0.176,-0.106 0,0 -0.058,0.044 -0.159,0.12 -0.051,0.038 -0.112,0.084 -0.183,0.137 l -0.055,0.041 -0.055,0.046 c -0.037,0.03 -0.076,0.063 -0.117,0.098 -0.08,0.068 -0.163,0.141 -0.26,0.224 l -0.135,0.125 c -0.045,0.041 -0.09,0.082 -0.141,0.127 l -0.138,0.132 c -0.045,0.045 -0.09,0.089 -0.139,0.137 l -0.133,0.142 -0.067,0.07 -0.062,0.073 c -0.083,0.098 -0.167,0.194 -0.24,0.292 l -0.11,0.146 -0.1,0.144 -0.048,0.069 -0.043,0.07 -0.084,0.133 c -0.048,0.089 -0.093,0.17 -0.135,0.248 -0.02,0.038 -0.037,0.074 -0.055,0.109 -0.016,0.035 -0.03,0.068 -0.045,0.1 -0.012,0.028 -0.023,0.056 -0.034,0.081 2.024,-0.081 4.058,-0.964 5.131,-2.338 1.102,-1.396 -0.077,-2.15 0.056,-3.938 z"
           id="path4665"
           inkscape:connector-curvature="0"
           style="fill:#a0baa1" /><path
           d="m 588.565,482.71 c -0.355,0.186 -0.687,0.416 -1.005,0.661 -0.332,0.226 -0.641,0.483 -0.921,0.768 -0.281,0.282 -0.527,0.603 -0.751,0.925 -0.232,0.31 -0.428,0.643 -0.58,0.993 -0.547,1.268 -0.413,2.478 0.368,3.232 l 0.011,-0.04 c 0.028,-0.087 0.058,-0.178 0.089,-0.274 l 0.058,-0.149 0.029,-0.077 0.033,-0.079 0.068,-0.16 0.077,-0.163 c 0.058,-0.112 0.114,-0.222 0.17,-0.329 l 0.044,-0.083 0.049,-0.081 0.096,-0.161 c 0.035,-0.055 0.068,-0.105 0.101,-0.156 l 0.101,-0.151 c 0.036,-0.051 0.069,-0.097 0.103,-0.144 l 0.101,-0.137 c 0.071,-0.092 0.134,-0.171 0.192,-0.246 l 0.083,-0.115 0.038,-0.054 0.038,-0.049 c 0.05,-0.063 0.094,-0.119 0.131,-0.165 0.071,-0.09 0.112,-0.142 0.112,-0.142 0,0 -0.035,0.054 -0.095,0.147 -0.03,0.048 -0.066,0.104 -0.109,0.171 l -0.032,0.051 -0.031,0.054 c -0.021,0.038 -0.043,0.077 -0.067,0.118 -0.047,0.077 -0.096,0.159 -0.153,0.254 l -0.079,0.137 c -0.026,0.047 -0.052,0.093 -0.08,0.145 l -0.076,0.149 c -0.024,0.05 -0.049,0.1 -0.074,0.153 l -0.069,0.156 -0.035,0.079 -0.03,0.079 -0.115,0.312 -0.049,0.153 -0.041,0.149 -0.021,0.072 -0.016,0.07 -0.03,0.137 c -0.015,0.087 -0.028,0.169 -0.041,0.246 l -0.014,0.107 c -0.003,0.034 -0.006,0.065 -0.009,0.096 l -0.005,0.079 c 1.666,-0.632 3.086,-1.976 3.58,-3.415 0.468,-1.522 -0.718,-1.786 -1.144,-3.323 z"
           id="path4667"
           inkscape:connector-curvature="0"
           style="fill:#a0baa1" /><path
           d="m 597.167,474.825 c -1.019,1.041 -1.607,2.508 -1.707,3.818 -0.054,1.213 0.446,2.148 1.327,2.512 l -0.003,-0.036 c -0.005,-0.079 -0.01,-0.162 -0.015,-0.251 l -10e-4,-0.14 -10e-4,-0.072 0.002,-0.074 0.006,-0.152 0.012,-0.157 c 0.012,-0.109 0.023,-0.216 0.035,-0.322 l 0.01,-0.081 0.014,-0.082 0.028,-0.161 c 0.011,-0.056 0.022,-0.108 0.033,-0.16 l 0.034,-0.155 c 0.014,-0.054 0.026,-0.102 0.039,-0.15 l 0.039,-0.144 c 0.03,-0.098 0.057,-0.183 0.082,-0.262 l 0.038,-0.116 0.016,-0.056 0.016,-0.054 c 0.021,-0.068 0.039,-0.129 0.055,-0.179 0.03,-0.098 0.047,-0.154 0.047,-0.154 0,0 -0.011,0.056 -0.03,0.154 -0.011,0.049 -0.022,0.107 -0.036,0.176 l -0.011,0.053 -0.008,0.056 c -0.008,0.036 -0.015,0.073 -0.023,0.114 -0.015,0.077 -0.031,0.159 -0.049,0.253 l -0.021,0.138 c -0.007,0.046 -0.014,0.092 -0.021,0.144 l -0.016,0.146 c -0.004,0.049 -0.009,0.098 -0.013,0.149 l -0.008,0.149 -0.004,0.075 0,0.074 0.006,0.292 0.008,0.141 0.014,0.134 0.007,0.064 0.01,0.063 0.018,0.12 c 0.017,0.075 0.031,0.146 0.046,0.213 l 0.022,0.092 c 0.009,0.028 0.017,0.056 0.023,0.081 l 0.021,0.064 c 0.554,-0.542 1.081,-1.143 1.386,-1.846 0.31,-0.699 0.486,-1.419 0.479,-2.088 -0.024,-1.376 -1.099,-1.234 -1.906,-2.383 z"
           id="path4669"
           inkscape:connector-curvature="0"
           style="fill:#a0baa1" /><path
           d="m 603.154,464.036 c -0.62,1.164 -0.746,2.615 -0.494,3.743 0.254,1.031 0.911,1.648 1.734,1.7 l -0.012,-0.029 c -0.023,-0.063 -0.049,-0.13 -0.076,-0.201 l -0.036,-0.114 -0.019,-0.059 -0.018,-0.062 -0.034,-0.126 -0.03,-0.133 c -0.018,-0.094 -0.035,-0.185 -0.053,-0.275 l -0.013,-0.069 -0.008,-0.072 -0.019,-0.141 c -0.004,-0.05 -0.009,-0.096 -0.013,-0.143 l -0.011,-0.138 c -0.002,-0.048 -0.004,-0.092 -0.005,-0.136 l -0.004,-0.131 c -0.004,-0.092 -0.007,-0.172 -0.01,-0.247 l -0.004,-0.11 -0.002,-0.052 0,-0.049 c 10e-4,-0.062 0.002,-0.118 0.003,-0.165 10e-4,-0.09 10e-4,-0.142 10e-4,-0.142 0,0 0.004,0.049 0.012,0.138 0.004,0.043 0.008,0.096 0.014,0.156 l 0.004,0.047 0.007,0.049 c 0.004,0.033 0.009,0.067 0.014,0.104 0.011,0.071 0.022,0.146 0.036,0.231 l 0.018,0.121 c 0.006,0.041 0.013,0.081 0.019,0.125 l 0.024,0.126 c 0.009,0.041 0.018,0.082 0.027,0.127 l 0.03,0.126 0.017,0.062 0.019,0.062 0.078,0.239 0.043,0.113 0.045,0.105 0.022,0.053 0.023,0.048 0.046,0.094 c 0.033,0.058 0.062,0.111 0.092,0.162 l 0.042,0.068 0.041,0.06 0.034,0.048 c 0.702,-1.162 0.864,-2.651 0.54,-3.771 -0.346,-1.157 -1.209,-0.771 -2.124,-1.542 z"
           id="path4671"
           inkscape:connector-curvature="0"
           style="fill:#a0baa1" /><path
           d="m 606.698,451.552 c -0.312,1.101 -0.26,2.336 0.203,3.255 0.419,0.828 1.075,1.207 1.747,1.087 l -0.016,-0.021 c -0.033,-0.049 -0.066,-0.099 -0.104,-0.152 l -0.053,-0.088 -0.027,-0.045 -0.027,-0.048 -0.054,-0.1 -0.052,-0.104 c -0.035,-0.075 -0.067,-0.147 -0.101,-0.221 l -0.024,-0.056 -0.02,-0.059 -0.044,-0.115 c -0.015,-0.042 -0.027,-0.079 -0.04,-0.117 l -0.037,-0.114 c -0.013,-0.041 -0.022,-0.076 -0.033,-0.113 l -0.03,-0.109 c -0.019,-0.076 -0.034,-0.142 -0.049,-0.204 l -0.021,-0.092 -0.009,-0.042 -0.007,-0.041 c -0.01,-0.053 -0.018,-0.099 -0.024,-0.137 -0.013,-0.075 -0.021,-0.118 -0.021,-0.118 0,0 0.012,0.04 0.03,0.111 0.011,0.036 0.022,0.079 0.035,0.129 l 0.011,0.038 0.013,0.039 0.028,0.084 c 0.02,0.058 0.04,0.116 0.064,0.187 l 0.039,0.098 c 0.013,0.032 0.026,0.065 0.041,0.102 l 0.046,0.101 c 0.016,0.034 0.031,0.066 0.048,0.103 l 0.052,0.1 0.026,0.05 0.027,0.048 0.113,0.185 0.058,0.087 0.059,0.08 0.028,0.039 0.029,0.036 0.057,0.069 c 0.038,0.042 0.073,0.08 0.107,0.116 l 0.049,0.049 0.044,0.042 0.038,0.032 c 0.282,-1.107 0.228,-2.345 -0.221,-3.226 -0.462,-0.912 -1.111,-0.447 -1.978,-0.945 z"
           id="path4673"
           inkscape:connector-curvature="0"
           style="fill:#a0baa1" /><path
           d="m 557.832,494.221 c 10e-4,0 1.155,0.244 3.265,0.448 2.102,0.211 5.14,0.371 8.765,0.119 3.619,-0.239 7.832,-0.93 12.107,-2.394 2.144,-0.718 4.268,-1.688 6.357,-2.797 2.04,-1.187 4.086,-2.467 5.9,-4.044 1.875,-1.503 3.518,-3.27 5.07,-5.053 0.719,-0.941 1.446,-1.865 2.121,-2.81 0.62,-0.983 1.275,-1.929 1.846,-2.905 2.312,-3.899 3.798,-7.912 4.876,-11.385 0.259,-0.875 0.507,-1.713 0.742,-2.51 0.206,-0.806 0.366,-1.58 0.536,-2.303 0.165,-0.724 0.319,-1.4 0.463,-2.026 0.137,-0.628 0.211,-1.217 0.306,-1.741 0.352,-2.107 0.553,-3.312 0.553,-3.312 0,0 -0.17,1.21 -0.468,3.326 -0.082,0.528 -0.142,1.12 -0.262,1.752 -0.128,0.631 -0.266,1.313 -0.412,2.043 -0.151,0.729 -0.293,1.51 -0.479,2.324 -0.217,0.806 -0.443,1.653 -0.681,2.538 -0.994,3.518 -2.386,7.6 -4.628,11.612 -0.553,1.004 -1.192,1.98 -1.799,2.997 -0.661,0.979 -1.379,1.938 -2.088,2.917 -1.537,1.86 -3.174,3.711 -5.059,5.304 -1.823,1.666 -3.893,3.038 -5.967,4.314 -2.123,1.197 -4.293,2.253 -6.485,3.051 -4.375,1.621 -8.707,2.442 -12.436,2.783 -3.735,0.354 -6.878,0.267 -9.069,0.103 -2.191,-0.157 -3.455,-0.39 -3.455,-0.39"
           id="path4675"
           inkscape:connector-curvature="0"
           style="fill:#a0baa1" /><path
           stroke-miterlimit="10"
           d="m 575.72,503.324 c -2.733,0.717 -5.801,0.398 -7.758,-0.762 -1.776,-1.041 -2.264,-2.504 -1.729,-3.775 l 0.039,0.038 c 0.081,0.082 0.183,0.166 0.282,0.256 l 0.167,0.134 0.087,0.066 0.094,0.066 0.192,0.134 0.208,0.133 c 0.138,0.09 0.293,0.174 0.444,0.259 l 0.115,0.062 0.12,0.061 0.239,0.118 c 0.086,0.039 0.164,0.074 0.244,0.11 l 0.242,0.105 c 0.077,0.034 0.162,0.06 0.241,0.088 0.08,0.028 0.159,0.055 0.235,0.081 0.149,0.055 0.305,0.096 0.442,0.137 0.069,0.021 0.136,0.039 0.2,0.058 l 0.093,0.026 0.09,0.022 c 0.117,0.028 0.22,0.053 0.304,0.073 0.168,0.04 0.265,0.062 0.265,0.062 0,0 -0.09,-0.029 -0.247,-0.082 -0.078,-0.025 -0.172,-0.058 -0.281,-0.094 l -0.083,-0.028 -0.084,-0.033 c -0.058,-0.022 -0.118,-0.046 -0.182,-0.071 -0.124,-0.05 -0.265,-0.101 -0.397,-0.165 l -0.208,-0.096 c -0.07,-0.033 -0.145,-0.064 -0.213,-0.103 l -0.209,-0.112 c -0.069,-0.04 -0.136,-0.079 -0.21,-0.122 l -0.202,-0.13 -0.101,-0.065 -0.096,-0.067 c -0.125,-0.092 -0.253,-0.181 -0.362,-0.274 l -0.168,-0.138 -0.15,-0.139 -0.073,-0.067 -0.066,-0.068 -0.127,-0.131 c -0.074,-0.087 -0.151,-0.167 -0.208,-0.245 -0.03,-0.038 -0.058,-0.074 -0.085,-0.109 -0.025,-0.036 -0.049,-0.069 -0.07,-0.101 -0.02,-0.029 -0.038,-0.057 -0.055,-0.083 2.437,-0.203 5.001,0.077 6.933,1.012 2.019,0.938 0.939,2.23 2.088,3.959 z"
           id="path4677"
           inkscape:connector-curvature="0"
           style="fill:#a0baa1;stroke:#c1d1c1;stroke-width:0.25;stroke-miterlimit:10" /><path
           d="m 591.045,497.266 c -2.092,1.373 -4.778,1.928 -6.727,1.485 -1.766,-0.388 -2.558,-1.507 -2.44,-2.699 l 0.043,0.021 c 0.096,0.045 0.195,0.092 0.303,0.142 l 0.176,0.069 0.09,0.035 0.097,0.034 0.198,0.065 0.208,0.054 c 0.139,0.036 0.289,0.063 0.438,0.092 l 0.112,0.021 0.116,0.016 0.23,0.032 c 0.082,0.009 0.157,0.017 0.233,0.024 l 0.229,0.021 c 0.081,0.005 0.154,0.009 0.228,0.014 0.075,0.002 0.147,0.005 0.22,0.008 0.153,0.001 0.285,0.002 0.41,0.003 0.063,-10e-4 0.125,-0.002 0.184,-0.002 l 0.086,-0.002 0.082,-0.004 c 0.104,-0.007 0.198,-0.013 0.275,-0.018 0.149,-0.017 0.235,-0.026 0.235,-0.026 0,0 -0.083,0.002 -0.227,0.005 -0.071,0.004 -0.16,-0.001 -0.261,-0.004 l -0.077,-0.003 -0.081,-0.007 c -0.054,-0.004 -0.111,-0.009 -0.172,-0.014 -0.119,-0.01 -0.249,-0.019 -0.38,-0.038 l -0.2,-0.027 c -0.067,-0.011 -0.134,-0.021 -0.207,-0.032 l -0.206,-0.04 c -0.066,-0.014 -0.134,-0.028 -0.207,-0.044 l -0.203,-0.052 -0.102,-0.026 -0.097,-0.03 c -0.129,-0.041 -0.258,-0.081 -0.375,-0.128 l -0.176,-0.068 -0.161,-0.074 -0.079,-0.035 -0.073,-0.039 -0.141,-0.073 c -0.085,-0.056 -0.164,-0.106 -0.239,-0.155 -0.035,-0.024 -0.068,-0.049 -0.101,-0.071 -0.03,-0.023 -0.059,-0.047 -0.085,-0.067 l -0.068,-0.057 c 0.989,-0.417 2.039,-0.73 3.08,-0.896 1.024,-0.21 2.06,-0.233 2.989,-0.111 1.937,0.205 1.391,1.589 2.823,2.701 z"
           id="path4679"
           inkscape:connector-curvature="0"
           style="fill:#a0baa1" /><path
           d="m 603.349,486.446 c -0.312,0.417 -0.652,0.822 -1.025,1.189 -0.394,0.35 -0.81,0.67 -1.235,0.949 -0.854,0.557 -1.721,0.973 -2.594,1.069 -1.547,0.21 -2.498,-0.39 -2.793,-1.396 l 0.04,0.004 c 0.09,0.004 0.183,0.009 0.283,0.014 l 0.159,-10e-4 0.083,-10e-4 0.086,-0.005 0.177,-0.011 0.186,-0.019 c 0.131,-0.019 0.258,-0.037 0.385,-0.055 l 0.098,-0.017 0.099,-0.021 0.197,-0.042 c 0.068,-0.017 0.133,-0.032 0.196,-0.049 l 0.192,-0.05 c 0.062,-0.018 0.128,-0.035 0.187,-0.059 l 0.173,-0.066 c 0.118,-0.05 0.221,-0.093 0.317,-0.134 0.049,-0.021 0.096,-0.042 0.142,-0.062 l 0.065,-0.029 0.062,-0.03 c 0.078,-0.04 0.149,-0.075 0.207,-0.104 0.114,-0.058 0.181,-0.091 0.181,-0.091 0,0 -0.065,0.026 -0.18,0.071 -0.057,0.022 -0.125,0.05 -0.204,0.081 l -0.062,0.023 -0.063,0.021 c -0.044,0.015 -0.09,0.029 -0.138,0.046 -0.093,0.029 -0.192,0.06 -0.306,0.096 l -0.164,0.044 c -0.055,0.015 -0.109,0.028 -0.17,0.043 l -0.179,0.028 c -0.06,0.008 -0.118,0.017 -0.182,0.025 l -0.181,0.019 -0.09,0.009 -0.089,0.004 c -0.116,0.006 -0.233,0.011 -0.344,0.008 l -0.163,-0.003 -0.154,-0.012 -0.075,-0.005 -0.071,-0.009 -0.137,-0.018 c -0.085,-0.018 -0.163,-0.033 -0.238,-0.048 -0.035,-0.009 -0.069,-0.017 -0.102,-0.024 -0.031,-0.01 -0.061,-0.018 -0.089,-0.026 l -0.071,-0.023 c 0.666,-0.629 1.423,-1.181 2.167,-1.669 0.753,-0.477 1.59,-0.792 2.353,-0.986 1.594,-0.411 1.592,0.857 3.064,1.322 z"
           id="path4681"
           inkscape:connector-curvature="0"
           style="fill:#a0baa1" /><path
           d="m 610.963,472.645 c -0.275,0.778 -0.636,1.551 -1.144,2.186 -0.517,0.632 -1.106,1.152 -1.716,1.479 -1.102,0.59 -2.015,0.41 -2.553,-0.281 l 0.032,-0.01 c 0.069,-0.022 0.142,-0.046 0.22,-0.072 l 0.121,-0.047 0.062,-0.025 0.063,-0.028 0.132,-0.06 0.135,-0.067 c 0.094,-0.053 0.184,-0.103 0.274,-0.153 l 0.069,-0.04 0.068,-0.044 0.137,-0.089 c 0.047,-0.032 0.091,-0.062 0.134,-0.093 l 0.131,-0.095 c 0.044,-0.033 0.084,-0.064 0.125,-0.096 l 0.119,-0.095 c 0.08,-0.068 0.15,-0.129 0.216,-0.185 l 0.096,-0.084 0.044,-0.039 0.041,-0.039 c 0.053,-0.052 0.099,-0.096 0.137,-0.133 0.075,-0.073 0.118,-0.115 0.118,-0.115 0,0 -0.044,0.036 -0.123,0.101 -0.039,0.031 -0.086,0.069 -0.141,0.114 l -0.042,0.033 -0.045,0.032 -0.097,0.071 c -0.066,0.046 -0.137,0.095 -0.217,0.15 l -0.118,0.077 c -0.04,0.024 -0.08,0.049 -0.124,0.076 l -0.127,0.072 c -0.043,0.024 -0.084,0.047 -0.13,0.072 l -0.131,0.064 -0.065,0.032 -0.066,0.029 c -0.087,0.037 -0.174,0.075 -0.259,0.104 l -0.125,0.044 -0.12,0.036 -0.059,0.018 -0.058,0.014 -0.109,0.026 c -0.069,0.011 -0.134,0.021 -0.195,0.032 l -0.085,0.01 -0.076,0.007 -0.062,0.002 c 0.6,-1.381 1.681,-2.588 2.749,-3.283 1.156,-0.705 1.484,0.278 2.764,0.292 z"
           id="path4683"
           inkscape:connector-curvature="0"
           style="fill:#a0baa1" /><path
           d="m 614.497,457.979 c -0.157,1.262 -0.71,2.536 -1.498,3.259 -0.701,0.656 -1.497,0.702 -2.033,0.291 l 0.023,-0.014 c 0.052,-0.031 0.104,-0.062 0.161,-0.098 l 0.088,-0.06 0.044,-0.031 0.043,-0.035 0.087,-0.071 0.089,-0.079 0.178,-0.171 0.044,-0.044 0.043,-0.048 0.085,-0.094 c 0.029,-0.034 0.055,-0.065 0.082,-0.097 l 0.079,-0.097 c 0.027,-0.035 0.051,-0.065 0.075,-0.098 l 0.07,-0.095 c 0.047,-0.068 0.087,-0.126 0.125,-0.182 l 0.055,-0.082 0.025,-0.038 0.022,-0.037 c 0.029,-0.049 0.055,-0.092 0.076,-0.127 0.041,-0.068 0.065,-0.108 0.065,-0.108 0,0 -0.026,0.036 -0.072,0.099 -0.023,0.031 -0.051,0.069 -0.083,0.112 l -0.024,0.034 -0.027,0.033 -0.059,0.071 c -0.041,0.049 -0.083,0.098 -0.133,0.156 l -0.074,0.081 c -0.025,0.026 -0.05,0.053 -0.078,0.082 l -0.081,0.08 c -0.027,0.026 -0.054,0.052 -0.084,0.079 l -0.086,0.076 -0.044,0.037 -0.044,0.035 c -0.059,0.045 -0.116,0.092 -0.175,0.13 l -0.087,0.059 -0.084,0.053 -0.041,0.024 -0.041,0.022 -0.078,0.042 c -0.051,0.022 -0.099,0.044 -0.144,0.064 l -0.062,0.025 -0.058,0.02 -0.048,0.015 c 0.173,-1.178 0.697,-2.329 1.461,-3.035 0.791,-0.731 1.211,-0.037 2.218,-0.238 z"
           id="path4685"
           inkscape:connector-curvature="0"
           style="fill:#a0baa1" /></g></g></g><g
     transform="matrix(0.77062907,0,0,0.78006902,47.179834,-49.411457)"
     style="font-size:71.17185974px;font-family:StylishCalligraphyDemo;fill:#ffffff"
     id="text4687"><path
       d="m 227.17436,188.15587 q 0,0.42703 -0.28468,0.42703 -0.56938,0 -1.56578,0.0712 -0.92524,0.0712 -1.92164,0.21351 -0.99641,0.0712 -1.92164,0.21352 -0.92524,0.0712 -1.42344,0.21352 -1.7793,6.33429 -5.0532,11.67218 -2.49102,4.0568 -5.62258,7.3307 -3.13156,3.20274 -6.61898,5.26672 -4.41266,2.63336 -8.32711,2.63336 -0.85406,0 -1.63695,-0.14235 -0.78289,-0.0712 -1.70813,-0.4982 -1.92164,-0.92523 -2.13515,-3.13156 -0.28469,-2.20633 1.42343,-5.69375 1.7793,-3.55859 6.69016,-7.61539 3.70093,-2.98922 7.11718,-4.98203 3.41625,-1.99281 6.97485,-3.34508 0.9964,-0.35585 1.92164,-0.64054 0.92523,-0.28469 1.92164,-0.49821 0.64054,-2.27749 1.06757,-4.76851 0.49821,-2.56219 0.71172,-5.26672 0.0712,-1.42343 0.14235,-3.41625 0.0712,-1.99281 -0.14235,-4.34148 -0.14234,-2.34867 -0.56937,-4.83969 -0.35586,-2.56218 -1.20992,-4.98203 -2.34867,-7.04601 -7.11719,-9.46585 -4.76851,-2.49102 -11.10281,-0.71172 -2.34867,0.71172 -4.62617,2.20632 -2.2775,1.42344 -4.19914,3.34508 -1.92164,1.85047 -3.34508,4.0568 -1.42343,2.13515 -1.99281,4.27031 -0.35586,1.28109 -0.4982,3.13156 -0.0712,1.85047 0.35586,3.06039 0.35586,-0.92523 1.28109,-0.92523 0.56938,0 0.92523,0.42703 0.35586,0.42703 0.35586,0.9964 0,0.56938 -0.42703,0.92524 -0.35586,0.28469 -0.92523,0.28469 -0.99641,0 -1.49461,-0.85407 -0.42703,-0.64054 -0.64055,-1.56578 -0.14234,-0.92523 -0.14234,-1.92164 0,-0.9964 0.14234,-1.99281 0.14235,-0.99641 0.35586,-1.70812 0.56938,-2.20633 1.99281,-4.41266 1.49461,-2.2775 3.5586,-4.34148 2.06398,-2.06399 4.41265,-3.48742 2.34867,-1.42344 4.69735,-2.13516 1.56578,-0.4982 2.98921,-0.78289 1.42344,-0.28469 2.84688,-0.42703 l 0.0712,0 q 7.11719,-0.78289 11.74336,2.98922 4.91085,3.98562 6.76132,12.66859 0.42703,2.06398 0.64055,4.12797 0.21352,2.06398 0.21352,3.91445 0.0712,1.77929 0,3.34508 0,1.4946 -0.0712,2.56218 -0.35586,4.62617 -1.49461,8.89648 1.20993,-0.28468 3.20274,-0.4982 2.06398,-0.21351 3.2739,-0.14234 0.28469,0 0.42703,0.28469 z m -19.07405,-32.24086 q 0.35586,0.14235 0.21351,0.49821 -0.14234,0.28468 -0.42703,0.14234 -1.06758,-0.42703 -2.2775,0 -1.20992,0.42703 -2.34867,1.56578 -1.13875,1.20992 -2.13516,3.13156 -0.9964,1.85047 -1.92164,4.27031 -0.92523,2.34868 -1.85046,5.12438 -0.85407,2.70453 -1.7793,5.62258 -0.85406,2.70453 -1.7793,5.62257 -0.85406,2.84688 -1.92164,5.69375 -1.06758,2.7757 -2.2775,5.48023 -1.13875,2.63336 -2.49101,4.98203 -1.20992,2.13516 -2.70453,4.12797 -1.49461,1.92164 -3.41625,3.41625 -1.85047,1.49461 -4.12797,2.41984 -2.2775,0.92524 -5.0532,0.92524 -3.84328,0 -6.90367,-1.92164 -2.70453,-1.7793 -4.555,-5.12438 -0.0712,-0.14234 -0.21352,-0.28468 -0.0712,-0.21352 -0.14234,-0.35586 -1.85047,0.78289 -3.77211,1.20992 -1.92164,0.35586 -3.84328,0.21352 -1.92164,-0.14235 -3.84328,-0.99641 -1.85047,-0.85406 -3.48742,-2.63336 -1.85047,-2.06398 -2.49102,-4.76851 -0.56937,-2.70454 0.21352,-4.98203 0.14234,-0.35586 0.35586,-0.64055 0.28469,-0.35586 0.85406,-0.35586 0.56938,0 0.92524,0.42703 0.42703,0.35586 0.4982,0.92523 0.0712,0.56938 -0.35586,0.92524 -0.35586,0.35586 -0.92524,0.35586 -0.56937,0 -0.92523,-0.35586 -0.35586,1.99281 0.28469,4.19914 0.64054,2.13515 2.13515,3.84328 1.49461,1.70812 3.13157,2.41984 1.70812,0.71172 3.41624,0.64055 1.70813,-0.0712 3.48743,-0.64055 1.85046,-0.64054 3.70093,-1.56578 -1.70812,-4.48383 -1.28109,-10.1064 0.28469,-3.41625 1.28109,-6.40547 1.06758,-2.98922 2.77571,-5.12437 1.99281,-2.63336 4.76851,-3.62977 1.49461,-0.56937 3.13156,-0.56937 1.63695,0 3.27391,0.42703 3.13156,0.92523 4.19914,2.63336 1.06757,1.70812 1.06757,3.2739 0.14235,2.7757 -1.70812,6.26313 -1.7793,3.48742 -5.19555,6.90367 -2.49101,2.56218 -5.33789,4.55499 -2.7757,1.99282 -5.69374,3.27391 l 0.35586,0.64055 q 0.56937,1.13875 1.4946,2.34867 0.92524,1.13875 2.20633,2.13515 1.35227,0.92524 3.06039,1.56579 1.7793,0.56937 3.98563,0.56937 1.99281,0 3.62976,-0.85406 1.70813,-0.92524 3.06039,-2.2775 1.42344,-1.42344 2.56219,-3.20274 1.13875,-1.77929 2.06398,-3.55859 2.20633,-4.48383 3.98563,-9.89289 1.77929,-5.40906 3.41625,-10.96046 0.92523,-3.20274 1.85046,-6.26313 0.99641,-3.06039 1.92164,-5.69375 0.99641,-2.63335 1.99282,-4.62617 1.06757,-2.06398 2.2775,-3.2739 0.42703,-0.42703 1.28109,-1.06758 0.85406,-0.71172 2.06398,-1.13875 1.2811,-0.4982 2.84688,-0.42703 1.56578,0 3.41625,0.92523 z m -18.43352,56.43929 q 0.21352,1.85047 1.70813,2.56218 1.99281,0.7829 4.27031,-0.0712 2.2775,-0.78289 4.555,-2.56218 2.2775,-1.70813 4.27031,-3.91446 2.06399,-2.2775 3.55859,-4.34148 1.70813,-2.34867 3.48743,-5.69375 1.85046,-3.41625 3.2739,-7.90007 -3.91445,0.9964 -8.04242,3.13156 -4.12797,2.06398 -9.18117,6.12078 -4.27031,3.48742 -6.40547,7.11718 -0.85406,1.49461 -1.28109,2.91805 -0.35586,1.42344 -0.21352,2.63336 z m -26.97413,-34.09132 q -1.49461,1.92164 -2.49102,4.48382 -0.92523,2.56219 -1.35226,5.33789 -0.35586,2.77571 -0.14234,5.62258 0.28468,2.84688 1.13875,5.40906 1.63695,-0.9964 3.20273,-2.2775 1.63695,-1.35226 3.13156,-2.91804 3.77211,-3.77211 6.12078,-7.54422 2.34867,-3.84328 2.49102,-6.69016 0.0712,-0.85406 -0.14235,-1.77929 -0.21351,-0.92524 -0.78289,-1.70813 -0.56937,-0.78289 -1.49461,-1.28109 -0.85406,-0.56938 -2.20632,-0.56938 -2.70454,-0.0712 -4.555,1.20993 -1.7793,1.28109 -2.91805,2.70453 z"
       style="font-size:71.17185974px;font-family:StylishCalligraphyDemo;fill:#ffffff"
       id="path4866"
       inkscape:connector-curvature="0" /><path
       d="m 225.10594,212.92367 q -1.70813,-0.21351 -2.63336,-1.42343 -0.92524,-1.13875 -1.13875,-2.98922 -0.28469,-1.92164 0.14234,-4.41266 0.35586,-2.56218 1.28109,-5.48023 1.42344,-4.34148 2.49102,-6.54781 0.99641,-2.20633 1.35227,-2.7757 0.56937,-0.99641 1.42343,-1.35227 0.92524,-0.42703 1.7793,-0.42703 0.92523,0 1.63695,0.21351 0.78289,0.14235 0.99641,0.21352 0,0 -0.42703,0.92523 -0.42703,0.92524 -1.13875,2.41985 -0.64055,1.49461 -1.49461,3.48742 -0.78289,1.92164 -1.56578,4.05679 -2.20633,5.97844 -2.34867,9.03883 -0.21352,3.06039 1.06757,3.62977 1.06758,0.42703 3.06039,-0.99641 1.99282,-1.35227 4.48383,-4.48383 2.98922,-3.62976 5.19555,-7.11718 2.2775,-3.5586 4.48382,-7.18836 0.35586,-0.71172 0.78289,-1.35227 0.42703,-0.64054 0.78289,-1.28109 0.14235,-0.28469 0.49821,-0.0712 0.28468,0.14234 0.0712,0.4982 l -1.56578,2.56219 q -2.13516,3.62976 -4.27031,7.11718 -2.13516,3.48743 -5.19555,7.18836 -0.99641,1.20992 -2.13516,2.41984 -1.06757,1.2811 -2.27749,2.20633 -1.20993,0.99641 -2.56219,1.56578 -1.35227,0.56938 -2.7757,0.35586 z m 4.19914,-33.52194 q 0.35585,-1.13875 1.35226,-1.85047 0.99641,-0.78289 2.06398,-0.78289 1.13875,0 1.63696,0.78289 0.4982,0.71172 0.14234,1.85047 -0.35586,1.06757 -1.35226,1.85047 -0.99641,0.71171 -2.13516,0.71171 -1.06758,0 -1.56578,-0.71171 -0.4982,-0.7829 -0.14234,-1.85047 z"
       style="font-size:71.17185974px;font-family:StylishCalligraphyDemo;fill:#ffffff"
       id="path4868"
       inkscape:connector-curvature="0" /><path
       d="m 244.94287,208.72453 q -2.06398,-0.28468 -2.98922,-1.49461 -0.9964,-1.28109 -1.13875,-3.06039 -0.21351,-1.85046 0.28469,-3.98562 0.42703,-2.13516 1.13875,-4.19914 0.71172,-2.06398 1.56578,-3.84328 0.78289,-1.7793 1.35227,-2.84687 0.56937,-0.99641 1.42343,-1.35227 0.92524,-0.42703 1.7793,-0.42703 0.92524,0 1.63695,0.21351 0.78289,0.14235 0.99641,0.21352 -0.21352,0.56937 -0.92523,2.13516 -0.71172,1.56578 -1.56579,3.62976 -0.85406,2.06398 -1.70812,4.34148 -0.78289,2.20633 -1.20992,4.19914 -0.42703,1.92164 -0.35586,3.34508 0.14234,1.35227 1.13875,1.70813 1.06758,0.35586 2.34867,-0.49821 1.28109,-0.85406 2.63336,-2.49101 1.35226,-1.63695 2.63336,-3.70094 1.35226,-2.13515 2.49101,-4.19914 1.13875,-2.06398 1.99282,-3.84328 0.92523,-1.85047 1.4946,-2.84687 0.0712,-0.28469 0.28469,-0.49821 0,0 0.0712,-0.14234 l 0.0712,-0.0712 q 0.92523,-1.13875 2.41984,-1.35227 1.49461,-0.28468 2.2775,-0.21351 -0.92524,5.83609 -2.49102,12.02804 -1.49461,6.12078 -3.70093,12.02805 -2.20633,5.90726 -5.05321,11.38749 -2.7757,5.55141 -6.26312,10.10641 -5.97844,7.8289 -12.73976,11.10281 -3.98563,1.92164 -7.61539,1.92164 -2.91805,0 -5.48023,-1.2811 -3.34508,-1.56578 -4.27032,-4.48382 -0.92523,-2.49102 0.14235,-5.97844 0.64054,-1.92164 1.85047,-3.98562 1.20992,-2.06399 2.98921,-4.12797 1.70813,-1.99281 3.91446,-3.98563 2.13515,-1.99281 4.62617,-3.70093 2.49101,-1.70813 4.98203,-3.06039 2.49101,-1.35227 4.91086,-2.13516 5.26671,-1.92164 9.53702,-1.13875 0.42704,0 0.28469,0.35586 0,0.4982 -0.35586,0.28469 -3.84328,-0.64055 -8.82531,0.99641 -4.98203,1.63695 -10.1064,5.26671 -4.91086,3.41625 -8.39828,7.54422 -3.48742,4.12797 -4.69734,7.90008 -1.2811,3.98562 -0.0712,6.12078 1.13875,2.20632 3.62977,2.84687 2.41984,0.64055 5.62258,-0.0712 3.13156,-0.64055 5.76492,-2.49102 5.0532,-3.41625 9.53703,-9.32351 3.34507,-4.34148 5.90726,-9.39469 2.56219,-5.0532 4.48383,-10.24874 1.99281,-5.12438 3.41625,-10.10641 1.42343,-4.98203 2.56218,-9.25234 -1.20992,2.34867 -2.7757,5.26672 -1.49461,2.91804 -3.34508,5.48023 -1.77929,2.49102 -3.84328,4.12797 -2.06398,1.63695 -4.27031,1.28109 z m 14.59023,4.0568 q -0.35586,-0.14234 -0.35586,-0.42703 0.0712,-0.21352 0.49821,-0.21352 6.0496,-0.0712 11.24515,-7.47304 1.49461,-2.06399 2.84687,-4.48383 1.35227,-2.41984 2.49102,-4.62617 1.13875,-2.20633 1.99281,-3.91445 0.92524,-1.7793 1.35227,-2.56219 0.14234,-0.28469 0.42703,-0.0712 0.35586,0.14234 0.14234,0.4982 -0.85406,1.35227 -1.77929,3.27391 -0.92524,1.85046 -1.99282,3.91445 -1.06757,2.06398 -2.34867,4.27031 -1.20992,2.13516 -2.63336,4.12797 -2.41984,3.34508 -5.26671,5.48023 -2.84688,2.20633 -6.61899,2.20633 z"
       style="font-size:71.17185974px;font-family:StylishCalligraphyDemo;fill:#ffffff"
       id="path4870"
       inkscape:connector-curvature="0" /></g></svg>