<?xml version="1.0" encoding="UTF-8" standalone="no"?>
<!-- Generator: Adobe Illustrator 16.0.0, SVG Export Plug-In . SVG Version: 6.00 Build 0)  -->

<svg
   xmlns:dc="http://purl.org/dc/elements/1.1/"
   xmlns:cc="http://creativecommons.org/ns#"
   xmlns:rdf="http://www.w3.org/1999/02/22-rdf-syntax-ns#"
   xmlns:svg="http://www.w3.org/2000/svg"
   xmlns="http://www.w3.org/2000/svg"
   xmlns:sodipodi="http://sodipodi.sourceforge.net/DTD/sodipodi-0.dtd"
   xmlns:inkscape="http://www.inkscape.org/namespaces/inkscape"
   version="1.1"
   id="Layer_1"
   x="0px"
   y="0px"
   width="419.99899"
   height="210"
   viewBox="0 0 419.99899 210"
   enable-background="new 0 0 792 612"
   xml:space="preserve"
   inkscape:version="0.91 r13725"
   sodipodi:docname="homeRect.svg"><metadata
     id="metadata4554"><rdf:RDF><cc:Work
         rdf:about=""><dc:format>image/svg+xml</dc:format><dc:type
           rdf:resource="http://purl.org/dc/dcmitype/StillImage" /><dc:title /></cc:Work></rdf:RDF></metadata><defs
     id="defs4552" /><sodipodi:namedview
     pagecolor="#ffffff"
     bordercolor="#666666"
     borderopacity="1"
     objecttolerance="10"
     gridtolerance="10"
     guidetolerance="10"
     inkscape:pageopacity="0"
     inkscape:pageshadow="2"
     inkscape:window-width="1301"
     inkscape:window-height="744"
     id="namedview4550"
     showgrid="false"
     fit-margin-top="0"
     fit-margin-left="0"
     fit-margin-right="0"
     fit-margin-bottom="0"
     inkscape:zoom="1.0642314"
     inkscape:cx="109.23274"
     inkscape:cy="21.10497"
     inkscape:window-x="65"
     inkscape:window-y="24"
     inkscape:window-maximized="1"
     inkscape:current-layer="Layer_1" /><rect
     x="5.0026793"
     y="5.0026813"
     stroke-miterlimit="10"
     width="409.99463"
     height="199.99464"
     id="rect4418"
     style="fill:#584c6d;stroke:#e6e6e6;stroke-width:10.0053587;stroke-miterlimit:10;stroke-dasharray:none" /><path
     d="M 210,244.31601"
     id="path4420"
     inkscape:connector-curvature="0"
     style="fill:#a0baa1" /><path
     d="M 210,244.31601"
     id="path4422"
     inkscape:connector-curvature="0"
     style="fill:#a0baa1" /><path
     stroke-miterlimit="10"
     d="M 210,120.66601"
     id="path4424"
     inkscape:connector-curvature="0"
     style="fill:#a0baa1;stroke:#ffffff;stroke-miterlimit:10" /><path
     d="M 210,158.80501"
     id="path4426"
     inkscape:connector-curvature="0"
     style="fill:#a0baa1" /><g
     id="g4428"
     transform="translate(-74.777,-67.050996)"><g
       id="g4430"><g
         id="g4432"><path
           stroke-miterlimit="10"
           d="m 452.188,143.542 c 0.086,2.072 0.779,4.179 2.034,5.601 1.128,1.27 2.515,1.692 3.815,1.303 L 458,150.414 c -0.08,-0.066 -0.162,-0.154 -0.253,-0.24 l -0.134,-0.142 -0.068,-0.073 -0.068,-0.078 -0.14,-0.16 -0.142,-0.174 c -0.096,-0.115 -0.187,-0.243 -0.277,-0.366 l -0.068,-0.093 -0.065,-0.097 -0.133,-0.195 c -0.044,-0.07 -0.085,-0.133 -0.126,-0.198 l -0.12,-0.195 c -0.04,-0.069 -0.075,-0.13 -0.11,-0.193 l -0.104,-0.187 c -0.072,-0.119 -0.131,-0.243 -0.188,-0.353 -0.028,-0.055 -0.056,-0.107 -0.081,-0.158 l -0.037,-0.073 -0.033,-0.071 c -0.041,-0.092 -0.078,-0.173 -0.108,-0.239 -0.06,-0.131 -0.093,-0.207 -0.093,-0.207 0,0 0.039,0.069 0.109,0.19 0.035,0.06 0.078,0.133 0.127,0.218 l 0.037,0.065 0.044,0.065 c 0.028,0.044 0.06,0.092 0.092,0.142 0.065,0.098 0.132,0.208 0.212,0.313 l 0.118,0.164 c 0.04,0.055 0.079,0.108 0.122,0.168 l 0.131,0.167 c 0.045,0.055 0.088,0.109 0.136,0.167 l 0.143,0.163 0.071,0.083 0.074,0.077 c 0.099,0.102 0.191,0.205 0.291,0.295 l 0.145,0.138 0.146,0.125 0.069,0.062 0.072,0.056 0.136,0.108 c 0.09,0.063 0.173,0.121 0.252,0.177 0.039,0.025 0.076,0.05 0.112,0.073 0.035,0.021 0.069,0.042 0.102,0.061 0.029,0.017 0.058,0.033 0.084,0.048 0.191,-2.198 -0.553,-4.58 -1.936,-5.942 -1.443,-1.4 -2.398,-0.182 -4.353,-0.563 z"
           id="path4434"
           inkscape:connector-curvature="0"
           style="fill:#a0baa1;stroke:#c1d1c1;stroke-width:0.25;stroke-miterlimit:10" /><path
           d="m 449.299,132.038 c 0.553,1.744 1.682,3.377 3.121,4.358 1.321,0.866 2.654,0.95 3.653,0.208 l -0.041,-0.021 c -0.091,-0.048 -0.185,-0.099 -0.286,-0.153 l -0.156,-0.092 -0.08,-0.047 -0.08,-0.053 -0.166,-0.107 -0.168,-0.119 c -0.111,-0.079 -0.224,-0.167 -0.335,-0.254 l -0.083,-0.066 -0.082,-0.07 -0.161,-0.139 c -0.055,-0.05 -0.104,-0.097 -0.156,-0.144 l -0.149,-0.142 c -0.051,-0.051 -0.097,-0.098 -0.143,-0.144 l -0.139,-0.138 c -0.095,-0.097 -0.176,-0.18 -0.253,-0.259 -0.038,-0.041 -0.075,-0.08 -0.11,-0.117 l -0.051,-0.054 -0.047,-0.054 c -0.059,-0.069 -0.111,-0.13 -0.154,-0.181 -0.085,-0.099 -0.134,-0.157 -0.134,-0.157 0,0 0.052,0.05 0.144,0.138 0.046,0.044 0.102,0.097 0.165,0.158 l 0.05,0.047 0.054,0.046 c 0.036,0.031 0.075,0.065 0.116,0.1 0.08,0.067 0.164,0.138 0.262,0.219 l 0.146,0.113 c 0.048,0.038 0.096,0.075 0.148,0.117 l 0.152,0.115 c 0.051,0.037 0.102,0.074 0.157,0.114 l 0.161,0.108 0.081,0.055 0.083,0.05 c 0.109,0.066 0.219,0.133 0.327,0.188 l 0.161,0.085 0.158,0.074 0.076,0.037 0.076,0.031 0.145,0.061 c 0.096,0.033 0.184,0.063 0.267,0.092 0.042,0.013 0.079,0.025 0.117,0.037 0.038,0.01 0.072,0.019 0.105,0.027 0.03,0.007 0.06,0.014 0.086,0.02 -0.412,-1.983 -1.614,-3.845 -3.146,-4.679 -1.553,-0.857 -2.106,0.43 -3.891,0.592 z"
           id="path4436"
           inkscape:connector-curvature="0"
           style="fill:#a0baa1" /><path
           d="m 443.228,122.22 c 0.241,0.321 0.522,0.609 0.816,0.884 0.277,0.291 0.581,0.553 0.908,0.783 0.324,0.231 0.681,0.422 1.034,0.59 0.344,0.178 0.705,0.317 1.076,0.41 1.339,0.332 2.512,0.001 3.127,-0.892 l -0.041,-0.005 c -0.09,-0.013 -0.184,-0.027 -0.285,-0.042 l -0.156,-0.032 -0.081,-0.016 -0.083,-0.02 -0.17,-0.042 -0.174,-0.049 c -0.119,-0.039 -0.236,-0.076 -0.352,-0.113 l -0.089,-0.031 -0.089,-0.034 -0.174,-0.068 c -0.061,-0.026 -0.115,-0.05 -0.171,-0.074 l -0.165,-0.074 c -0.057,-0.027 -0.107,-0.052 -0.16,-0.077 l -0.15,-0.077 c -0.102,-0.056 -0.19,-0.104 -0.274,-0.15 l -0.127,-0.063 -0.06,-0.028 -0.055,-0.03 c -0.07,-0.039 -0.133,-0.073 -0.184,-0.102 -0.101,-0.056 -0.158,-0.087 -0.158,-0.087 0,0 0.059,0.025 0.161,0.069 0.052,0.022 0.113,0.049 0.186,0.08 l 0.056,0.023 0.059,0.022 c 0.041,0.015 0.083,0.03 0.127,0.047 0.084,0.034 0.174,0.069 0.275,0.11 l 0.148,0.056 c 0.051,0.018 0.1,0.036 0.155,0.055 l 0.16,0.051 c 0.054,0.016 0.106,0.032 0.163,0.049 l 0.166,0.043 0.084,0.021 0.082,0.017 0.328,0.062 0.159,0.024 0.153,0.016 0.074,0.008 0.073,0.004 0.14,0.008 c 0.088,0 0.171,0 0.249,0 l 0.108,-0.004 c 0.034,-0.002 0.066,-0.005 0.096,-0.007 l 0.079,-0.008 c -0.896,-1.54 -2.454,-2.721 -3.954,-2.973 -1.578,-0.218 -1.644,0.995 -3.09,1.666 z"
           id="path4438"
           inkscape:connector-curvature="0"
           style="fill:#a0baa1" /><path
           d="m 434.041,115.024 c 1.193,0.834 2.736,1.175 4.047,1.06 1.205,-0.146 2.046,-0.792 2.261,-1.721 l -0.036,0.009 c -0.076,0.018 -0.158,0.036 -0.244,0.056 l -0.139,0.023 -0.07,0.013 -0.074,0.01 -0.15,0.02 -0.157,0.015 c -0.11,0.006 -0.217,0.012 -0.323,0.018 l -0.082,0.003 -0.084,-0.001 -0.164,0 c -0.057,-0.002 -0.109,-0.004 -0.162,-0.007 l -0.159,-0.009 c -0.055,-0.005 -0.104,-0.009 -0.154,-0.013 l -0.148,-0.016 c -0.101,-0.014 -0.188,-0.026 -0.272,-0.038 l -0.119,-0.019 -0.059,-0.006 -0.055,-0.007 c -0.071,-0.01 -0.134,-0.018 -0.186,-0.025 -0.102,-0.014 -0.16,-0.021 -0.16,-0.021 0,0 0.057,0.002 0.156,0.005 0.051,0.002 0.111,0.004 0.18,0.007 l 0.054,0.001 0.057,-0.001 c 0.036,0.001 0.075,0.002 0.116,0.004 0.079,0.002 0.162,0.005 0.258,0.008 l 0.139,-10e-4 c 0.047,-0.001 0.094,-0.002 0.146,-0.003 l 0.146,-0.009 c 0.05,-0.004 0.097,-0.007 0.149,-0.012 l 0.148,-0.017 0.075,-0.008 0.073,-0.012 0.287,-0.053 0.137,-0.031 0.13,-0.036 0.063,-0.017 0.061,-0.02 0.115,-0.038 c 0.072,-0.028 0.139,-0.055 0.203,-0.08 l 0.086,-0.038 c 0.027,-0.013 0.053,-0.025 0.076,-0.037 l 0.061,-0.031 c -0.625,-0.458 -1.305,-0.88 -2.047,-1.065 -0.74,-0.191 -1.48,-0.247 -2.139,-0.132 -1.355,0.252 -1.04,1.289 -2.041,2.272 z"
           id="path4440"
           inkscape:connector-curvature="0"
           style="fill:#a0baa1" /><path
           d="m 422.418,110.883 c 1.25,0.422 2.702,0.309 3.773,-0.125 0.976,-0.419 1.478,-1.168 1.393,-1.99 l -0.026,0.017 c -0.059,0.034 -0.12,0.07 -0.186,0.108 l -0.106,0.055 -0.055,0.028 -0.059,0.027 -0.119,0.054 -0.125,0.052 c -0.09,0.033 -0.177,0.065 -0.264,0.097 l -0.066,0.023 -0.069,0.02 -0.136,0.041 c -0.049,0.013 -0.093,0.024 -0.139,0.036 l -0.135,0.033 c -0.047,0.01 -0.09,0.019 -0.133,0.028 l -0.128,0.024 c -0.09,0.019 -0.169,0.035 -0.241,0.051 l -0.109,0.022 -0.051,0.01 -0.049,0.008 c -0.061,0.009 -0.117,0.018 -0.162,0.025 -0.089,0.014 -0.141,0.021 -0.141,0.021 0,0 0.049,-0.012 0.134,-0.034 0.042,-0.011 0.094,-0.024 0.153,-0.039 l 0.045,-0.011 0.047,-0.015 0.101,-0.031 c 0.068,-0.023 0.14,-0.046 0.224,-0.074 l 0.115,-0.037 c 0.039,-0.013 0.078,-0.025 0.121,-0.04 l 0.119,-0.044 c 0.04,-0.016 0.079,-0.031 0.121,-0.047 l 0.119,-0.051 0.06,-0.026 0.058,-0.028 0.223,-0.117 0.105,-0.06 0.097,-0.062 0.048,-0.03 0.044,-0.032 0.085,-0.06 c 0.051,-0.042 0.1,-0.081 0.145,-0.117 l 0.061,-0.053 0.053,-0.049 0.041,-0.042 c -1.262,-0.503 -2.756,-0.419 -3.809,0.084 -1.087,0.533 -0.566,1.321 -1.177,2.35 z"
           id="path4442"
           inkscape:connector-curvature="0"
           style="fill:#a0baa1" /><path
           d="m 409.521,109.429 c 1.138,0.129 2.348,-0.125 3.178,-0.732 0.75,-0.549 1.016,-1.258 0.787,-1.901 l -0.019,0.019 c -0.042,0.04 -0.086,0.082 -0.134,0.127 l -0.078,0.067 -0.039,0.034 -0.043,0.034 -0.09,0.069 -0.094,0.069 -0.201,0.135 -0.052,0.033 -0.054,0.031 -0.107,0.062 c -0.039,0.021 -0.072,0.04 -0.108,0.059 l -0.106,0.056 c -0.039,0.019 -0.072,0.035 -0.106,0.051 l -0.104,0.047 c -0.072,0.03 -0.134,0.057 -0.192,0.082 l -0.088,0.035 -0.039,0.016 -0.04,0.014 c -0.051,0.018 -0.095,0.033 -0.132,0.046 -0.072,0.025 -0.113,0.04 -0.113,0.04 0,0 0.039,-0.018 0.105,-0.048 0.034,-0.016 0.074,-0.034 0.121,-0.056 l 0.035,-0.017 0.037,-0.019 0.078,-0.041 c 0.055,-0.029 0.109,-0.059 0.174,-0.095 l 0.09,-0.054 c 0.03,-0.019 0.061,-0.037 0.094,-0.058 l 0.092,-0.061 0.094,-0.064 0.09,-0.067 0.045,-0.034 0.043,-0.035 0.163,-0.142 0.076,-0.071 0.069,-0.071 0.034,-0.034 0.03,-0.035 0.059,-0.067 c 0.035,-0.044 0.067,-0.086 0.098,-0.125 l 0.041,-0.056 0.033,-0.051 0.026,-0.042 c -1.14,-0.098 -2.351,0.159 -3.146,0.745 -0.821,0.604 -0.257,1.168 -0.607,2.105 z"
           id="path4444"
           inkscape:connector-curvature="0"
           style="fill:#a0baa1" /><path
           d="m 459.613,150.655 c 0,0 0.051,-1.179 -0.092,-3.293 -0.137,-2.108 -0.477,-5.131 -1.318,-8.666 -0.828,-3.531 -2.199,-7.574 -4.342,-11.553 -1.061,-1.997 -2.365,-3.934 -3.8,-5.813 -1.505,-1.819 -3.103,-3.627 -4.955,-5.16 -1.79,-1.604 -3.801,-2.935 -5.814,-4.175 -1.046,-0.555 -2.076,-1.122 -3.118,-1.633 -1.072,-0.451 -2.112,-0.942 -3.168,-1.346 -4.226,-1.644 -8.428,-2.452 -12.029,-2.948 -0.905,-0.112 -1.772,-0.219 -2.598,-0.321 -0.828,-0.071 -1.619,-0.103 -2.359,-0.152 -0.74,-0.044 -1.434,-0.086 -2.075,-0.125 -0.642,-0.032 -1.234,-0.009 -1.769,-0.017 -2.135,-0.002 -3.355,-0.003 -3.355,-0.003 0,0 1.221,-0.03 3.357,-0.083 0.534,-0.006 1.127,-0.044 1.771,-0.028 0.643,0.022 1.338,0.046 2.082,0.072 0.744,0.031 1.537,0.042 2.371,0.092 0.83,0.081 1.704,0.167 2.615,0.256 3.633,0.405 7.888,1.11 12.213,2.666 1.082,0.381 2.149,0.853 3.252,1.285 1.072,0.492 2.137,1.042 3.219,1.583 2.086,1.211 4.18,2.524 6.061,4.122 1.941,1.527 3.633,3.343 5.231,5.181 1.528,1.898 2.925,3.866 4.071,5.898 2.315,4.051 3.834,8.19 4.781,11.812 0.959,3.627 1.389,6.741 1.585,8.93 0.204,2.188 0.182,3.473 0.182,3.472"
           id="path4446"
           inkscape:connector-curvature="0"
           style="fill:#a0baa1" /><path
           stroke-miterlimit="10"
           d="m 465.666,131.52 c 1.154,2.579 1.342,5.657 0.518,7.777 -0.736,1.922 -2.1,2.643 -3.441,2.324 l 0.031,-0.045 c 0.068,-0.093 0.134,-0.207 0.207,-0.32 0.033,-0.061 0.068,-0.123 0.104,-0.187 l 0.053,-0.096 0.049,-0.103 0.102,-0.212 0.096,-0.227 c 0.066,-0.15 0.124,-0.317 0.183,-0.481 l 0.044,-0.124 0.039,-0.128 0.078,-0.256 c 0.023,-0.091 0.046,-0.174 0.068,-0.259 l 0.064,-0.256 c 0.021,-0.083 0.032,-0.17 0.048,-0.253 0.015,-0.083 0.028,-0.166 0.041,-0.246 0.03,-0.156 0.044,-0.316 0.063,-0.459 0.008,-0.072 0.016,-0.14 0.023,-0.207 l 0.012,-0.096 0.006,-0.093 c 0.01,-0.12 0.017,-0.225 0.023,-0.312 0.012,-0.171 0.018,-0.271 0.018,-0.271 0,0 -0.014,0.094 -0.039,0.257 -0.014,0.081 -0.029,0.18 -0.047,0.292 l -0.015,0.086 -0.02,0.089 c -0.013,0.06 -0.026,0.124 -0.04,0.19 -0.029,0.131 -0.057,0.278 -0.098,0.42 -0.02,0.072 -0.041,0.146 -0.061,0.221 -0.021,0.075 -0.04,0.153 -0.066,0.227 L 463.633,139 c -0.029,0.075 -0.057,0.147 -0.088,0.227 l -0.094,0.22 -0.048,0.111 -0.052,0.104 c -0.069,0.139 -0.137,0.28 -0.211,0.403 l -0.109,0.188 -0.111,0.171 -0.055,0.083 -0.056,0.076 -0.108,0.147 c -0.074,0.087 -0.141,0.177 -0.208,0.246 -0.033,0.036 -0.063,0.069 -0.095,0.102 -0.031,0.03 -0.06,0.059 -0.088,0.085 -0.025,0.024 -0.049,0.046 -0.072,0.067 -0.6,-2.371 -0.742,-4.947 -0.137,-7.004 0.594,-2.144 2.047,-1.29 3.565,-2.706 z"
           id="path4448"
           inkscape:connector-curvature="0"
           style="fill:#a0baa1;stroke:#c1d1c1;stroke-width:0.25;stroke-miterlimit:10" /><path
           d="m 457.181,117.393 c 1.696,1.838 2.685,4.398 2.565,6.393 -0.093,1.805 -1.067,2.769 -2.263,2.849 l 0.015,-0.046 c 0.028,-0.102 0.058,-0.208 0.09,-0.322 0.012,-0.06 0.025,-0.122 0.039,-0.185 l 0.021,-0.095 0.018,-0.101 0.032,-0.206 0.019,-0.214 c 0.013,-0.143 0.017,-0.295 0.02,-0.447 l 0.002,-0.115 -0.003,-0.117 -0.006,-0.233 c -0.005,-0.082 -0.01,-0.158 -0.014,-0.234 l -0.018,-0.229 c -0.009,-0.081 -0.017,-0.153 -0.024,-0.227 -0.01,-0.075 -0.019,-0.146 -0.028,-0.218 -0.023,-0.151 -0.045,-0.282 -0.064,-0.405 -0.011,-0.062 -0.021,-0.123 -0.031,-0.181 l -0.016,-0.084 -0.018,-0.08 c -0.023,-0.102 -0.045,-0.193 -0.062,-0.269 -0.041,-0.145 -0.064,-0.228 -0.064,-0.228 0,0 0.016,0.081 0.042,0.222 0.015,0.07 0.024,0.159 0.038,0.258 l 0.01,0.077 0.007,0.081 c 0.005,0.054 0.01,0.112 0.015,0.172 0.01,0.119 0.022,0.249 0.025,0.381 l 0.005,0.202 c 10e-4,0.067 10e-4,0.135 0.003,0.209 l -0.006,0.21 c -0.004,0.068 -0.007,0.137 -0.01,0.211 l -0.018,0.208 -0.01,0.104 -0.014,0.101 c -0.02,0.134 -0.038,0.268 -0.065,0.391 l -0.039,0.185 -0.046,0.172 -0.022,0.083 -0.026,0.078 -0.049,0.151 c -0.041,0.093 -0.078,0.18 -0.113,0.261 -0.02,0.04 -0.037,0.076 -0.055,0.112 -0.02,0.033 -0.037,0.065 -0.053,0.095 -0.016,0.027 -0.031,0.053 -0.045,0.077 -0.573,-0.908 -1.054,-1.892 -1.387,-2.892 -0.375,-0.976 -0.568,-1.993 -0.6,-2.931 -0.115,-1.942 1.34,-1.631 2.203,-3.224 z"
           id="path4450"
           inkscape:connector-curvature="0"
           style="fill:#a0baa1" /><path
           d="m 444.494,107.025 c 0.463,0.239 0.918,0.509 1.342,0.816 0.409,0.332 0.793,0.689 1.139,1.063 0.688,0.752 1.24,1.539 1.479,2.384 0.461,1.491 0.024,2.528 -0.919,2.983 l -0.003,-0.041 c -0.011,-0.089 -0.021,-0.182 -0.033,-0.281 l -0.027,-0.158 -0.015,-0.082 -0.019,-0.084 -0.039,-0.173 -0.049,-0.18 c -0.04,-0.125 -0.078,-0.248 -0.117,-0.37 l -0.031,-0.094 -0.037,-0.094 -0.074,-0.188 c -0.027,-0.065 -0.054,-0.125 -0.08,-0.186 l -0.081,-0.182 c -0.026,-0.059 -0.056,-0.12 -0.087,-0.174 l -0.094,-0.159 c -0.069,-0.109 -0.129,-0.203 -0.185,-0.292 -0.03,-0.045 -0.058,-0.088 -0.085,-0.129 l -0.039,-0.06 -0.041,-0.056 c -0.052,-0.071 -0.099,-0.135 -0.137,-0.188 -0.075,-0.104 -0.119,-0.164 -0.119,-0.164 0,0 0.037,0.061 0.1,0.166 0.031,0.052 0.069,0.115 0.113,0.188 l 0.033,0.056 0.031,0.06 c 0.021,0.041 0.045,0.083 0.068,0.128 0.044,0.087 0.09,0.18 0.145,0.286 l 0.07,0.154 c 0.022,0.052 0.045,0.104 0.07,0.161 l 0.057,0.172 c 0.018,0.057 0.035,0.113 0.055,0.175 l 0.047,0.175 0.023,0.087 0.02,0.086 c 0.024,0.115 0.049,0.229 0.064,0.338 l 0.023,0.162 0.014,0.154 0.008,0.075 0.002,0.072 0.006,0.138 c -0.004,0.086 -0.006,0.167 -0.008,0.243 -0.004,0.037 -0.006,0.071 -0.008,0.105 -0.004,0.032 -0.008,0.062 -0.012,0.091 l -0.012,0.074 c -0.729,-0.554 -1.396,-1.21 -2.001,-1.864 -0.593,-0.665 -1.042,-1.439 -1.358,-2.16 -0.668,-1.499 0.584,-1.704 0.801,-3.233 z"
           id="path4452"
           inkscape:connector-curvature="0"
           style="fill:#a0baa1" /><path
           d="m 429.633,101.771 c 0.812,0.145 1.634,0.374 2.344,0.771 0.707,0.407 1.317,0.902 1.738,1.451 0.763,0.99 0.735,1.921 0.141,2.565 l -0.015,-0.03 c -0.034,-0.064 -0.069,-0.132 -0.106,-0.205 l -0.066,-0.112 -0.035,-0.058 -0.039,-0.058 -0.08,-0.12 -0.089,-0.122 c -0.067,-0.084 -0.132,-0.166 -0.196,-0.247 l -0.051,-0.061 -0.055,-0.061 -0.109,-0.121 -0.114,-0.117 -0.114,-0.113 c -0.04,-0.038 -0.078,-0.073 -0.115,-0.107 l -0.113,-0.102 c -0.08,-0.068 -0.15,-0.127 -0.217,-0.183 l -0.098,-0.081 -0.047,-0.037 -0.045,-0.034 c -0.059,-0.044 -0.11,-0.082 -0.153,-0.113 -0.084,-0.062 -0.132,-0.098 -0.132,-0.098 0,0 0.042,0.038 0.119,0.105 0.037,0.033 0.082,0.074 0.135,0.12 l 0.039,0.036 0.04,0.04 0.085,0.083 c 0.057,0.058 0.117,0.119 0.186,0.189 l 0.094,0.104 c 0.031,0.036 0.062,0.071 0.096,0.109 l 0.093,0.113 c 0.03,0.039 0.06,0.076 0.092,0.117 l 0.086,0.118 0.042,0.06 0.039,0.06 c 0.052,0.08 0.104,0.159 0.146,0.238 l 0.063,0.116 0.056,0.113 0.027,0.055 0.021,0.054 0.044,0.104 c 0.022,0.067 0.044,0.128 0.064,0.188 l 0.024,0.082 0.018,0.074 0.013,0.06 c -1.46,-0.366 -2.827,-1.234 -3.688,-2.175 -0.888,-1.02 0.027,-1.504 -0.168,-2.77 z"
           id="path4454"
           inkscape:connector-curvature="0"
           style="fill:#a0baa1" /><path
           d="m 414.588,100.684 c 1.27,-0.051 2.617,0.285 3.459,0.945 0.762,0.584 0.938,1.361 0.62,1.958 l -0.017,-0.021 c -0.039,-0.045 -0.08,-0.092 -0.123,-0.144 l -0.074,-0.076 -0.037,-0.039 -0.041,-0.037 -0.086,-0.074 -0.092,-0.075 -0.197,-0.146 -0.051,-0.036 -0.055,-0.035 -0.106,-0.069 c -0.038,-0.023 -0.073,-0.043 -0.108,-0.065 l -0.109,-0.062 c -0.039,-0.021 -0.072,-0.039 -0.107,-0.058 l -0.105,-0.054 c -0.075,-0.035 -0.139,-0.065 -0.199,-0.094 l -0.09,-0.041 -0.041,-0.019 -0.041,-0.016 c -0.053,-0.021 -0.1,-0.039 -0.138,-0.054 -0.075,-0.03 -0.118,-0.047 -0.118,-0.047 0,0 0.039,0.02 0.109,0.055 0.035,0.018 0.076,0.039 0.125,0.063 l 0.037,0.019 0.037,0.021 0.08,0.046 c 0.055,0.033 0.11,0.066 0.176,0.106 l 0.092,0.06 c 0.03,0.021 0.061,0.041 0.094,0.063 l 0.092,0.067 c 0.031,0.023 0.061,0.045 0.093,0.07 l 0.089,0.073 0.043,0.037 0.042,0.038 c 0.054,0.05 0.11,0.1 0.157,0.152 l 0.072,0.076 0.065,0.075 0.032,0.037 0.027,0.037 0.055,0.07 c 0.031,0.046 0.06,0.089 0.087,0.13 l 0.035,0.058 0.029,0.053 0.022,0.045 c -1.191,0.021 -2.412,-0.307 -3.234,-0.945 -0.854,-0.659 -0.239,-1.186 -0.6,-2.147 z"
           id="path4456"
           inkscape:connector-curvature="0"
           style="fill:#a0baa1" /></g></g></g><g
     id="g4458"
     transform="translate(-74.777,-277.05079)"><g
       id="g4460"><g
         id="g4462"><path
           stroke-miterlimit="10"
           d="m 157.762,450.252 c 2.778,0.198 5.742,-0.607 7.519,-2.122 1.619,-1.371 1.908,-2.922 1.059,-4.05 l -0.034,0.046 c -0.077,0.097 -0.157,0.197 -0.242,0.306 l -0.145,0.163 -0.076,0.084 -0.083,0.085 -0.171,0.172 -0.185,0.17 c -0.122,0.115 -0.262,0.227 -0.399,0.339 l -0.104,0.084 -0.11,0.082 -0.218,0.157 c -0.079,0.053 -0.15,0.101 -0.224,0.149 l -0.223,0.144 c -0.081,0.049 -0.151,0.091 -0.225,0.135 -0.075,0.043 -0.148,0.086 -0.22,0.127 -0.139,0.081 -0.285,0.147 -0.415,0.213 -0.065,0.032 -0.127,0.062 -0.188,0.092 l -0.087,0.043 -0.085,0.038 c -0.111,0.048 -0.208,0.09 -0.289,0.125 -0.159,0.068 -0.25,0.108 -0.25,0.108 0,0 0.084,-0.045 0.23,-0.124 0.072,-0.039 0.16,-0.087 0.262,-0.142 l 0.077,-0.043 0.078,-0.048 c 0.052,-0.032 0.108,-0.066 0.167,-0.102 0.115,-0.071 0.245,-0.146 0.365,-0.233 l 0.189,-0.133 c 0.063,-0.047 0.125,-0.092 0.193,-0.144 l 0.188,-0.15 c 0.062,-0.052 0.122,-0.102 0.187,-0.156 l 0.179,-0.161 0.089,-0.081 0.083,-0.082 c 0.108,-0.111 0.222,-0.225 0.314,-0.338 l 0.143,-0.167 0.125,-0.165 0.062,-0.08 0.053,-0.079 0.103,-0.152 c 0.057,-0.1 0.121,-0.196 0.164,-0.284 0.023,-0.044 0.044,-0.086 0.065,-0.126 0.018,-0.04 0.036,-0.078 0.052,-0.113 0.014,-0.033 0.027,-0.064 0.039,-0.093 -2.485,0.259 -4.942,0.994 -6.676,2.244 -1.808,1.28 -0.522,2.36 -1.336,4.262 z"
           id="path4464"
           inkscape:connector-curvature="0"
           style="fill:#a0baa1;stroke:#c1d1c1;stroke-width:0.25;stroke-miterlimit:10" /><path
           d="m 141.834,447.906 c 2.396,0.848 5.175,0.888 7.032,-0.006 1.684,-0.776 2.25,-2.031 1.884,-3.221 l -0.039,0.03 c -0.081,0.068 -0.178,0.129 -0.276,0.199 l -0.161,0.102 -0.083,0.052 -0.09,0.051 -0.185,0.104 -0.199,0.101 c -0.133,0.067 -0.277,0.13 -0.422,0.192 l -0.108,0.047 -0.113,0.043 -0.225,0.085 c -0.08,0.027 -0.154,0.052 -0.229,0.077 l -0.226,0.073 c -0.08,0.022 -0.153,0.044 -0.226,0.064 l -0.218,0.053 c -0.141,0.033 -0.281,0.057 -0.41,0.08 -0.064,0.012 -0.125,0.022 -0.184,0.032 l -0.085,0.016 -0.083,0.011 c -0.107,0.015 -0.202,0.026 -0.279,0.036 -0.154,0.021 -0.243,0.031 -0.243,0.031 0,0 0.083,-0.018 0.229,-0.05 0.072,-0.016 0.159,-0.035 0.26,-0.058 l 0.077,-0.017 0.079,-0.022 c 0.053,-0.015 0.11,-0.029 0.169,-0.046 0.117,-0.033 0.245,-0.066 0.372,-0.11 0.064,-0.021 0.128,-0.043 0.195,-0.065 0.066,-0.021 0.135,-0.047 0.2,-0.076 l 0.198,-0.087 c 0.065,-0.03 0.129,-0.06 0.199,-0.092 l 0.192,-0.099 0.096,-0.049 0.092,-0.053 c 0.121,-0.07 0.242,-0.14 0.35,-0.214 l 0.162,-0.109 0.147,-0.11 0.072,-0.054 0.065,-0.055 0.126,-0.105 c 0.075,-0.072 0.143,-0.139 0.208,-0.202 0.03,-0.032 0.059,-0.062 0.086,-0.091 0.026,-0.029 0.049,-0.058 0.072,-0.084 l 0.057,-0.069 c -2.169,-0.408 -4.504,-0.356 -6.319,0.297 -1.899,0.692 -1.036,1.926 -2.216,3.368 z"
           id="path4466"
           inkscape:connector-curvature="0"
           style="fill:#a0baa1" /><path
           d="m 127.129,440.723 c 0.444,0.358 0.915,0.699 1.412,0.986 0.508,0.267 1.032,0.498 1.554,0.684 0.523,0.183 1.04,0.332 1.547,0.408 0.514,0.062 1.009,0.073 1.47,0.027 1.666,-0.164 2.49,-1.029 2.523,-2.156 l -0.041,0.015 c -0.092,0.026 -0.188,0.055 -0.29,0.085 l -0.167,0.038 -0.086,0.02 -0.091,0.017 -0.187,0.032 -0.198,0.026 c -0.132,0.019 -0.273,0.028 -0.414,0.038 l -0.106,0.007 -0.109,0.004 -0.216,0.005 c -0.076,-10e-4 -0.147,-0.002 -0.218,-0.003 l -0.214,-0.005 c -0.075,-0.004 -0.142,-0.008 -0.21,-0.012 -0.07,-0.006 -0.137,-0.011 -0.204,-0.016 -0.14,-0.015 -0.262,-0.028 -0.377,-0.041 -0.057,-0.01 -0.112,-0.021 -0.165,-0.03 l -0.076,-0.014 -0.073,-0.016 c -0.094,-0.021 -0.177,-0.041 -0.246,-0.057 -0.136,-0.031 -0.214,-0.05 -0.214,-0.05 0,0 0.076,0.011 0.208,0.029 0.065,0.01 0.144,0.021 0.236,0.033 l 0.07,0.009 0.072,0.007 c 0.049,0.004 0.102,0.009 0.156,0.013 0.106,0.013 0.229,0.012 0.352,0.01 0.062,-10e-4 0.124,-0.002 0.188,-0.004 0.063,-0.002 0.125,-0.005 0.193,-0.008 l 0.194,-0.015 c 0.064,-0.006 0.127,-0.012 0.196,-0.019 l 0.192,-0.025 0.097,-0.014 0.093,-0.018 c 0.123,-0.023 0.246,-0.046 0.359,-0.076 l 0.169,-0.045 0.158,-0.05 0.076,-0.023 0.071,-0.027 0.137,-0.053 c 0.083,-0.038 0.161,-0.074 0.235,-0.108 l 0.099,-0.052 c 0.03,-0.018 0.058,-0.033 0.085,-0.049 l 0.067,-0.043 c -1.732,-0.966 -3.713,-1.634 -5.453,-1.608 -1.784,-0.029 -1.433,1.292 -2.854,2.144 z"
           id="path4468"
           inkscape:connector-curvature="0"
           style="fill:#a0baa1" /><path
           d="m 115.872,429.028 c 1.046,1.637 2.601,3.095 4.196,3.485 1.405,0.386 2.358,-0.052 2.748,-0.954 l -0.039,-0.002 c -0.083,-0.008 -0.17,-0.016 -0.264,-0.023 l -0.148,-0.021 -0.077,-0.012 -0.08,-0.015 -0.163,-0.033 -0.169,-0.041 c -0.119,-0.034 -0.234,-0.066 -0.35,-0.1 l -0.088,-0.026 -0.09,-0.032 -0.178,-0.063 c -0.062,-0.024 -0.119,-0.048 -0.176,-0.07 l -0.172,-0.072 c -0.06,-0.026 -0.114,-0.051 -0.168,-0.075 l -0.161,-0.076 c -0.11,-0.056 -0.205,-0.104 -0.295,-0.15 l -0.131,-0.069 -0.058,-0.035 -0.054,-0.036 c -0.068,-0.047 -0.129,-0.088 -0.18,-0.123 -0.099,-0.067 -0.156,-0.106 -0.156,-0.106 0,0 0.057,0.032 0.158,0.089 0.05,0.027 0.11,0.062 0.179,0.101 l 0.053,0.029 0.057,0.027 c 0.04,0.018 0.082,0.036 0.126,0.056 0.088,0.035 0.18,0.072 0.286,0.114 l 0.154,0.056 c 0.051,0.018 0.103,0.035 0.16,0.055 l 0.163,0.049 c 0.054,0.015 0.107,0.029 0.165,0.046 l 0.165,0.039 0.083,0.021 0.081,0.015 c 0.108,0.02 0.216,0.039 0.318,0.051 l 0.152,0.018 0.144,0.009 0.07,0.005 0.067,0 0.129,0.001 c 0.081,-0.005 0.155,-0.01 0.227,-0.014 0.034,-0.004 0.066,-0.007 0.097,-0.01 0.03,-0.005 0.059,-0.01 0.085,-0.014 l 0.069,-0.013 c -0.529,-0.69 -1.21,-1.271 -1.856,-1.811 -0.65,-0.534 -1.359,-0.953 -2.077,-1.197 -1.485,-0.527 -1.59,0.643 -3.002,0.927 z"
           id="path4470"
           inkscape:connector-curvature="0"
           style="fill:#a0baa1" /><path
           d="m 109.127,414.938 c 0.459,1.526 1.3,3.031 2.48,3.74 1.037,0.649 1.937,0.556 2.498,-0.062 l -0.031,-0.013 c -0.066,-0.027 -0.136,-0.056 -0.21,-0.087 l -0.115,-0.056 -0.06,-0.029 -0.061,-0.032 -0.124,-0.067 -0.127,-0.076 c -0.088,-0.058 -0.174,-0.113 -0.259,-0.169 l -0.065,-0.044 -0.064,-0.049 -0.128,-0.095 c -0.044,-0.035 -0.084,-0.067 -0.125,-0.101 l -0.122,-0.1 c -0.041,-0.037 -0.079,-0.069 -0.116,-0.103 l -0.111,-0.101 c -0.072,-0.064 -0.129,-0.136 -0.187,-0.197 l -0.081,-0.091 -0.037,-0.042 -0.034,-0.042 c -0.044,-0.054 -0.083,-0.102 -0.115,-0.141 -0.062,-0.077 -0.099,-0.122 -0.099,-0.122 0,0 0.037,0.039 0.104,0.108 0.034,0.034 0.074,0.075 0.121,0.122 l 0.036,0.037 0.039,0.036 0.083,0.076 c 0.058,0.052 0.118,0.105 0.188,0.167 l 0.109,0.083 c 0.037,0.027 0.075,0.054 0.116,0.084 l 0.12,0.079 c 0.04,0.025 0.08,0.051 0.123,0.079 l 0.124,0.073 0.062,0.035 0.062,0.033 0.246,0.121 0.12,0.053 0.115,0.045 0.056,0.021 0.055,0.018 0.105,0.034 c 0.067,0.017 0.13,0.032 0.189,0.047 l 0.083,0.018 0.073,0.012 0.06,0.008 c -0.566,-1.356 -1.357,-2.675 -2.411,-3.4 -1.083,-0.758 -1.447,0.163 -2.685,0.09 z"
           id="path4472"
           inkscape:connector-curvature="0"
           style="fill:#a0baa1" /><path
           d="m 105.914,400.256 c 0.11,1.279 0.615,2.589 1.378,3.354 0.688,0.693 1.429,0.789 2.009,0.396 l -0.022,-0.016 c -0.047,-0.034 -0.097,-0.069 -0.149,-0.108 l -0.081,-0.065 -0.042,-0.034 -0.042,-0.037 -0.085,-0.077 -0.085,-0.084 -0.171,-0.181 -0.042,-0.047 -0.042,-0.051 -0.082,-0.099 c -0.028,-0.036 -0.053,-0.069 -0.079,-0.103 l -0.076,-0.102 c -0.025,-0.036 -0.048,-0.068 -0.071,-0.102 l -0.067,-0.1 c -0.044,-0.07 -0.082,-0.131 -0.119,-0.188 l -0.051,-0.086 -0.024,-0.039 -0.021,-0.039 c -0.027,-0.051 -0.051,-0.095 -0.071,-0.131 -0.039,-0.072 -0.062,-0.114 -0.062,-0.114 0,0 0.025,0.038 0.069,0.104 0.022,0.033 0.048,0.072 0.079,0.118 l 0.023,0.035 0.026,0.035 0.056,0.075 c 0.04,0.051 0.08,0.103 0.127,0.164 l 0.071,0.085 c 0.024,0.027 0.048,0.056 0.075,0.087 l 0.078,0.084 0.081,0.085 0.083,0.08 0.042,0.04 0.043,0.037 c 0.057,0.049 0.114,0.1 0.171,0.141 l 0.084,0.063 0.083,0.057 0.04,0.027 0.04,0.024 0.077,0.046 c 0.051,0.026 0.097,0.05 0.141,0.072 l 0.062,0.029 0.056,0.022 0.046,0.018 c -0.127,-1.201 -0.613,-2.394 -1.35,-3.141 -0.762,-0.774 -1.206,-0.089 -2.206,-0.334 z"
           id="path4474"
           inkscape:connector-curvature="0"
           style="fill:#a0baa1" /><path
           d="m 166.223,442.491 c 0,0 -1.266,0.291 -3.463,0.549 -2.198,0.264 -5.355,0.494 -9.143,0.309 -3.781,-0.175 -8.206,-0.805 -12.743,-2.256 -2.272,-0.712 -4.542,-1.689 -6.776,-2.82 -2.189,-1.212 -4.384,-2.53 -6.345,-4.161 -2.02,-1.558 -3.8,-3.39 -5.479,-5.245 -0.78,-0.977 -1.568,-1.938 -2.299,-2.92 -0.675,-1.02 -1.383,-2.003 -2.003,-3.016 -2.509,-4.047 -4.137,-8.188 -5.326,-11.762 -0.285,-0.899 -0.559,-1.762 -0.819,-2.582 -0.229,-0.827 -0.412,-1.621 -0.602,-2.362 -0.185,-0.742 -0.358,-1.438 -0.519,-2.08 -0.153,-0.644 -0.243,-1.244 -0.351,-1.782 -0.404,-2.155 -0.635,-3.388 -0.635,-3.388 0,0 0.262,1.226 0.72,3.371 0.121,0.534 0.226,1.132 0.395,1.771 0.176,0.638 0.366,1.327 0.57,2.063 0.208,0.734 0.409,1.521 0.658,2.34 0.28,0.811 0.574,1.662 0.88,2.551 1.272,3.528 2.992,7.599 5.569,11.53 0.636,0.984 1.359,1.936 2.048,2.923 0.743,0.948 1.542,1.873 2.33,2.812 1.693,1.778 3.477,3.525 5.485,4.994 1.95,1.542 4.12,2.77 6.273,3.893 2.199,1.042 4.421,1.936 6.643,2.569 4.434,1.295 8.738,1.797 12.406,1.872 3.676,0.087 6.728,-0.216 8.835,-0.524 2.114,-0.303 3.271,-0.604 3.271,-0.604"
           id="path4476"
           inkscape:connector-curvature="0"
           style="fill:#a0baa1" /><path
           stroke-miterlimit="10"
           d="m 150.221,433.86 c 2.035,0.049 4.16,0.646 5.673,1.876 1.358,1.116 1.892,2.489 1.435,3.798 l -0.036,-0.037 c -0.082,-0.078 -0.166,-0.159 -0.257,-0.246 l -0.15,-0.131 -0.077,-0.069 -0.083,-0.069 -0.169,-0.14 -0.182,-0.139 c -0.12,-0.094 -0.253,-0.182 -0.382,-0.271 l -0.098,-0.066 -0.102,-0.063 -0.202,-0.125 c -0.072,-0.042 -0.138,-0.079 -0.205,-0.118 l -0.201,-0.112 c -0.071,-0.039 -0.134,-0.074 -0.199,-0.109 -0.066,-0.035 -0.131,-0.07 -0.193,-0.104 -0.122,-0.069 -0.249,-0.124 -0.36,-0.179 -0.056,-0.026 -0.11,-0.052 -0.162,-0.077 l -0.075,-0.035 -0.073,-0.03 c -0.094,-0.039 -0.176,-0.073 -0.244,-0.102 -0.134,-0.056 -0.211,-0.088 -0.211,-0.088 0,0 0.071,0.038 0.194,0.104 0.062,0.034 0.137,0.074 0.224,0.121 l 0.066,0.036 0.067,0.041 c 0.046,0.027 0.095,0.058 0.145,0.088 0.1,0.062 0.214,0.126 0.321,0.203 l 0.169,0.115 c 0.056,0.04 0.111,0.079 0.174,0.122 l 0.172,0.13 c 0.057,0.042 0.113,0.083 0.174,0.128 l 0.168,0.136 0.085,0.068 0.08,0.07 c 0.106,0.095 0.215,0.188 0.31,0.285 l 0.145,0.143 0.131,0.144 0.064,0.069 0.058,0.069 0.113,0.135 c 0.066,0.09 0.135,0.172 0.187,0.251 0.027,0.04 0.053,0.077 0.077,0.113 0.023,0.036 0.044,0.07 0.064,0.102 0.018,0.03 0.035,0.059 0.05,0.085 -2.249,0.233 -4.629,-0.459 -6.027,-1.792 -1.421,-1.401 -0.235,-2.389 -0.658,-4.33 z"
           id="path4478"
           inkscape:connector-curvature="0"
           style="fill:#a0baa1;stroke:#c1d1c1;stroke-width:0.25;stroke-miterlimit:10" /><path
           d="m 138.682,431.536 c 1.645,0.602 3.226,1.637 4.148,3.065 0.822,1.294 0.922,2.559 0.196,3.541 l -0.021,-0.04 c -0.047,-0.086 -0.097,-0.176 -0.15,-0.271 l -0.091,-0.147 -0.047,-0.075 -0.052,-0.076 -0.106,-0.156 -0.113,-0.166 c -0.083,-0.113 -0.164,-0.223 -0.244,-0.332 l -0.063,-0.083 -0.067,-0.081 -0.132,-0.16 c -0.048,-0.055 -0.093,-0.104 -0.138,-0.155 l -0.135,-0.148 c -0.049,-0.051 -0.093,-0.097 -0.137,-0.142 l -0.134,-0.133 c -0.094,-0.088 -0.176,-0.165 -0.253,-0.237 -0.04,-0.035 -0.078,-0.07 -0.114,-0.103 l -0.053,-0.048 -0.053,-0.044 c -0.068,-0.056 -0.128,-0.102 -0.176,-0.146 -0.094,-0.087 -0.147,-0.137 -0.147,-0.137 0,0 0.047,0.054 0.129,0.146 0.041,0.049 0.094,0.097 0.153,0.158 l 0.045,0.046 0.045,0.051 c 0.031,0.034 0.063,0.071 0.098,0.108 0.065,0.076 0.135,0.156 0.214,0.248 l 0.11,0.137 c 0.036,0.047 0.073,0.094 0.113,0.145 l 0.109,0.151 c 0.035,0.051 0.071,0.102 0.109,0.156 l 0.104,0.159 0.052,0.08 0.047,0.081 0.18,0.324 0.082,0.159 0.071,0.155 0.035,0.076 0.03,0.074 0.058,0.144 c 0.033,0.091 0.062,0.175 0.091,0.255 0.013,0.039 0.025,0.076 0.037,0.111 0.009,0.035 0.019,0.069 0.027,0.101 0.007,0.029 0.014,0.057 0.021,0.082 -0.96,-0.208 -1.897,-0.607 -2.694,-1.128 -0.779,-0.564 -1.435,-1.211 -1.833,-1.956 -0.785,-1.567 0.458,-2.055 0.649,-3.789 z"
           id="path4480"
           inkscape:connector-curvature="0"
           style="fill:#a0baa1" /><path
           d="m 128.581,425.396 c 0.299,0.25 0.57,0.535 0.822,0.835 0.271,0.277 0.515,0.58 0.727,0.901 0.426,0.637 0.705,1.377 0.879,2.06 0.281,1.267 -0.073,2.348 -0.946,2.886 l -0.004,-0.039 c -0.01,-0.085 -0.021,-0.173 -0.032,-0.268 l -0.025,-0.148 -0.013,-0.076 -0.017,-0.078 -0.035,-0.16 -0.042,-0.164 c -0.033,-0.114 -0.065,-0.225 -0.098,-0.335 l -0.026,-0.084 -0.031,-0.084 -0.06,-0.166 c -0.022,-0.057 -0.044,-0.11 -0.065,-0.163 l -0.066,-0.158 c -0.024,-0.054 -0.045,-0.104 -0.067,-0.153 l -0.062,-0.154 c -0.045,-0.104 -0.084,-0.194 -0.122,-0.279 -0.02,-0.043 -0.038,-0.084 -0.056,-0.123 l -0.026,-0.058 -0.027,-0.054 c -0.035,-0.066 -0.066,-0.128 -0.092,-0.178 -0.05,-0.098 -0.079,-0.153 -0.079,-0.153 0,0 0.022,0.057 0.062,0.156 0.02,0.049 0.043,0.108 0.071,0.178 l 0.021,0.054 0.019,0.057 c 0.013,0.039 0.027,0.079 0.042,0.122 0.027,0.084 0.055,0.173 0.087,0.275 l 0.042,0.148 c 0.014,0.051 0.027,0.101 0.042,0.156 l 0.044,0.151 c 0.014,0.051 0.027,0.102 0.042,0.155 l 0.037,0.157 0.018,0.078 0.014,0.078 0.049,0.31 0.018,0.149 0.01,0.145 0.006,0.07 0.001,0.067 0.003,0.131 c -0.003,0.083 -0.005,0.159 -0.008,0.232 -0.002,0.036 -0.005,0.069 -0.007,0.102 -0.004,0.032 -0.007,0.062 -0.01,0.09 l -0.01,0.072 c -0.713,-0.457 -1.358,-1.047 -1.805,-1.751 -0.457,-0.691 -0.805,-1.394 -0.887,-2.132 -0.162,-1.513 0.989,-1.512 1.662,-2.857 z"
           id="path4482"
           inkscape:connector-curvature="0"
           style="fill:#a0baa1" /><path
           d="m 120.772,415.662 c 0.375,0.581 0.616,1.257 0.799,1.905 0.191,0.644 0.259,1.307 0.176,1.93 -0.15,1.122 -0.752,1.858 -1.591,2.01 l 0.009,-0.033 c 0.018,-0.069 0.036,-0.144 0.056,-0.223 l 0.025,-0.125 0.013,-0.065 0.01,-0.067 0.021,-0.139 0.017,-0.145 c 0.008,-0.102 0.016,-0.2 0.023,-0.299 l 0.005,-0.075 0.001,-0.077 0.003,-0.152 c -0.001,-0.053 -0.002,-0.103 -0.002,-0.152 l -0.004,-0.148 c -0.003,-0.051 -0.006,-0.098 -0.009,-0.145 l -0.011,-0.139 c -0.01,-0.095 -0.02,-0.178 -0.028,-0.255 -0.005,-0.04 -0.01,-0.077 -0.015,-0.114 l -0.007,-0.052 -0.008,-0.051 c -0.012,-0.064 -0.022,-0.12 -0.03,-0.167 -0.017,-0.092 -0.026,-0.145 -0.026,-0.145 0,0 0.004,0.051 0.011,0.142 0.003,0.044 0.008,0.099 0.013,0.161 l 0.003,0.048 0.001,0.051 c 10e-4,0.035 0.002,0.07 0.003,0.108 0,0.074 10e-4,0.152 10e-4,0.241 l -0.004,0.13 c -0.002,0.044 -0.004,0.087 -0.006,0.135 l -0.011,0.136 c -0.004,0.046 -0.008,0.09 -0.013,0.139 l -0.019,0.138 -0.009,0.069 -0.012,0.066 -0.055,0.264 -0.031,0.125 -0.034,0.118 -0.017,0.059 -0.02,0.054 -0.036,0.105 c -0.027,0.065 -0.052,0.125 -0.076,0.183 l -0.036,0.078 -0.034,0.068 -0.03,0.054 c -0.802,-1.187 -1.319,-2.639 -1.049,-3.887 0.24,-1.264 1.168,-0.95 2.033,-1.862 z"
           id="path4484"
           inkscape:connector-curvature="0"
           style="fill:#a0baa1" /><path
           d="m 115.517,403.526 c 0.403,1.085 0.451,2.334 0.065,3.301 -0.359,0.874 -0.929,1.296 -1.634,1.239 l 0.013,-0.023 c 0.026,-0.051 0.053,-0.103 0.083,-0.16 l 0.041,-0.092 0.022,-0.047 0.023,-0.052 0.045,-0.104 0.043,-0.11 c 0.028,-0.079 0.055,-0.155 0.082,-0.231 l 0.02,-0.059 0.017,-0.061 0.035,-0.121 c 0.01,-0.043 0.02,-0.081 0.03,-0.121 l 0.028,-0.119 c 0.008,-0.042 0.016,-0.079 0.023,-0.117 l 0.021,-0.113 c 0.012,-0.079 0.022,-0.146 0.032,-0.21 l 0.013,-0.094 0.005,-0.044 0.004,-0.042 c 0.004,-0.054 0.009,-0.102 0.012,-0.141 0.007,-0.076 0.011,-0.121 0.011,-0.121 0,0 -0.008,0.042 -0.021,0.116 -0.007,0.037 -0.015,0.081 -0.024,0.132 l -0.007,0.04 -0.01,0.04 -0.021,0.088 c -0.016,0.06 -0.031,0.12 -0.05,0.193 l -0.03,0.103 c -0.011,0.034 -0.021,0.068 -0.033,0.105 l -0.037,0.106 c -0.013,0.035 -0.026,0.069 -0.04,0.107 l -0.043,0.104 -0.021,0.053 -0.023,0.051 -0.098,0.196 -0.05,0.093 -0.052,0.086 -0.025,0.042 -0.026,0.038 -0.05,0.075 c -0.035,0.046 -0.067,0.087 -0.098,0.127 l -0.044,0.054 -0.041,0.046 -0.033,0.035 c -0.378,-1.098 -0.424,-2.356 -0.051,-3.282 0.386,-0.954 1.07,-0.535 1.894,-1.106 z"
           id="path4486"
           inkscape:connector-curvature="0"
           style="fill:#a0baa1" /></g></g></g><g
     id="g4488"
     transform="translate(-74.777,-67.050996)"><g
       id="g4490"><g
         id="g4492"><path
           stroke-miterlimit="10"
           d="m 103.57,141.226 c -0.683,2.7 -0.412,5.759 0.767,7.775 1.065,1.834 2.541,2.392 3.801,1.754 l -0.039,-0.042 c -0.082,-0.093 -0.167,-0.189 -0.258,-0.292 l -0.135,-0.171 -0.069,-0.089 -0.069,-0.096 -0.139,-0.199 -0.135,-0.211 c -0.092,-0.14 -0.177,-0.298 -0.264,-0.453 l -0.064,-0.117 -0.061,-0.123 -0.116,-0.242 c -0.038,-0.087 -0.073,-0.166 -0.108,-0.247 l -0.103,-0.245 c -0.033,-0.087 -0.063,-0.165 -0.093,-0.245 -0.029,-0.081 -0.058,-0.161 -0.086,-0.239 -0.056,-0.151 -0.096,-0.306 -0.137,-0.445 -0.02,-0.069 -0.039,-0.137 -0.057,-0.201 l -0.027,-0.093 -0.022,-0.091 c -0.028,-0.118 -0.053,-0.221 -0.073,-0.306 -0.04,-0.168 -0.062,-0.266 -0.062,-0.266 0,0 0.03,0.09 0.082,0.248 0.026,0.078 0.058,0.173 0.094,0.283 l 0.028,0.083 0.034,0.085 c 0.022,0.058 0.046,0.119 0.071,0.183 0.05,0.125 0.101,0.267 0.165,0.4 l 0.098,0.21 c 0.035,0.07 0.069,0.138 0.107,0.215 l 0.115,0.212 c 0.04,0.069 0.079,0.137 0.121,0.211 l 0.127,0.204 0.064,0.103 0.067,0.096 c 0.09,0.126 0.182,0.258 0.277,0.369 l 0.14,0.17 0.14,0.153 0.068,0.074 0.069,0.066 0.132,0.128 c 0.088,0.074 0.172,0.154 0.251,0.211 0.04,0.03 0.077,0.059 0.112,0.086 0.036,0.025 0.07,0.048 0.103,0.071 0.03,0.02 0.059,0.038 0.085,0.055 0.181,-2.492 -0.11,-5.041 -1.036,-6.967 -0.946,-2.005 -2.236,-0.93 -3.965,-2.065 z"
           id="path4494"
           inkscape:connector-curvature="0"
           style="fill:#a0baa1;stroke:#c1d1c1;stroke-width:0.25;stroke-miterlimit:10" /><path
           d="m 108.678,125.959 c -1.255,2.21 -1.783,4.938 -1.23,6.924 0.468,1.794 1.604,2.571 2.84,2.421 l -0.024,-0.043 c -0.052,-0.092 -0.095,-0.198 -0.147,-0.307 l -0.072,-0.177 -0.036,-0.091 -0.034,-0.098 -0.069,-0.199 -0.064,-0.214 c -0.043,-0.143 -0.08,-0.295 -0.115,-0.449 l -0.027,-0.115 -0.022,-0.119 -0.044,-0.237 c -0.013,-0.083 -0.024,-0.161 -0.036,-0.239 l -0.032,-0.235 c -0.008,-0.082 -0.016,-0.158 -0.024,-0.233 l -0.013,-0.224 c -0.009,-0.144 -0.006,-0.287 -0.007,-0.417 0,-0.065 0,-0.128 0,-0.188 l 0,-0.086 0.003,-0.084 c 0.005,-0.107 0.01,-0.203 0.013,-0.28 0.008,-0.155 0.012,-0.245 0.012,-0.245 0,0 0.003,0.085 0.009,0.234 0.003,0.074 0.007,0.163 0.011,0.266 l 0.003,0.079 0.008,0.082 c 0.005,0.055 0.01,0.113 0.016,0.174 0.011,0.121 0.021,0.253 0.043,0.385 0.01,0.067 0.02,0.134 0.03,0.204 0.01,0.068 0.022,0.141 0.04,0.21 l 0.051,0.21 c 0.018,0.069 0.036,0.138 0.055,0.212 l 0.062,0.207 0.032,0.104 0.036,0.1 c 0.048,0.131 0.095,0.263 0.149,0.382 l 0.079,0.179 0.083,0.165 0.041,0.08 0.042,0.074 0.082,0.143 c 0.058,0.085 0.111,0.165 0.162,0.24 0.026,0.036 0.05,0.069 0.074,0.101 0.025,0.03 0.048,0.059 0.07,0.085 l 0.058,0.068 c 0.784,-2.064 1.143,-4.371 0.819,-6.273 -0.348,-1.994 -1.714,-1.361 -2.927,-2.776 z"
           id="path4496"
           inkscape:connector-curvature="0"
           style="fill:#a0baa1" /><path
           d="m 118.335,112.746 c -0.43,0.375 -0.849,0.778 -1.219,1.216 -0.352,0.454 -0.671,0.929 -0.946,1.41 -0.272,0.483 -0.51,0.965 -0.674,1.451 -0.151,0.495 -0.249,0.981 -0.285,1.442 -0.131,1.669 0.576,2.632 1.679,2.863 l -0.006,-0.043 c -0.01,-0.095 -0.021,-0.194 -0.033,-0.3 -0.003,-0.055 -0.005,-0.112 -0.008,-0.17 l -0.004,-0.088 0,-0.093 0,-0.189 0.009,-0.199 c 0.005,-0.133 0.02,-0.274 0.035,-0.414 l 0.012,-0.105 0.016,-0.108 0.033,-0.213 c 0.014,-0.075 0.027,-0.145 0.041,-0.214 l 0.043,-0.209 c 0.018,-0.073 0.033,-0.139 0.049,-0.205 0.018,-0.068 0.034,-0.133 0.051,-0.198 0.04,-0.136 0.074,-0.253 0.106,-0.365 0.021,-0.054 0.04,-0.106 0.059,-0.157 l 0.026,-0.073 0.029,-0.069 c 0.038,-0.089 0.071,-0.167 0.099,-0.232 0.055,-0.128 0.086,-0.202 0.086,-0.202 0,0 -0.024,0.073 -0.065,0.199 -0.02,0.062 -0.045,0.138 -0.074,0.227 l -0.021,0.067 -0.019,0.07 c -0.013,0.048 -0.026,0.098 -0.041,0.151 -0.03,0.103 -0.052,0.224 -0.071,0.345 -0.009,0.061 -0.019,0.122 -0.029,0.186 -0.009,0.062 -0.017,0.123 -0.026,0.191 l -0.02,0.194 c -0.005,0.064 -0.01,0.127 -0.016,0.196 l -0.009,0.194 -0.004,0.097 10e-4,0.094 c 0.002,0.125 0.002,0.25 0.013,0.368 l 0.014,0.174 0.021,0.164 0.01,0.079 0.015,0.075 0.027,0.144 c 0.023,0.089 0.045,0.172 0.065,0.25 l 0.033,0.106 c 0.012,0.033 0.023,0.063 0.034,0.092 l 0.03,0.074 c 1.255,-1.536 2.262,-3.369 2.542,-5.085 0.344,-1.753 -1.019,-1.64 -1.608,-3.188 z"
           id="path4498"
           inkscape:connector-curvature="0"
           style="fill:#a0baa1" /><path
           d="m 131.827,103.719 c -1.795,0.742 -3.504,2.016 -4.169,3.518 -0.626,1.315 -0.363,2.331 0.457,2.873 l 0.009,-0.037 c 0.021,-0.081 0.044,-0.165 0.069,-0.256 l 0.047,-0.142 0.025,-0.074 0.029,-0.075 0.061,-0.155 0.07,-0.16 c 0.054,-0.111 0.107,-0.219 0.16,-0.327 l 0.042,-0.082 0.047,-0.083 0.094,-0.164 c 0.035,-0.056 0.067,-0.109 0.1,-0.162 l 0.101,-0.157 c 0.037,-0.054 0.07,-0.103 0.104,-0.152 l 0.104,-0.145 c 0.074,-0.098 0.139,-0.184 0.2,-0.264 l 0.092,-0.117 0.044,-0.051 0.045,-0.046 c 0.058,-0.06 0.109,-0.112 0.152,-0.155 0.083,-0.085 0.132,-0.135 0.132,-0.135 0,0 -0.042,0.051 -0.115,0.139 -0.036,0.044 -0.08,0.098 -0.13,0.159 l -0.039,0.047 -0.037,0.051 c -0.024,0.036 -0.05,0.074 -0.077,0.115 -0.05,0.08 -0.103,0.165 -0.163,0.261 l -0.082,0.142 c -0.026,0.048 -0.053,0.095 -0.082,0.148 l -0.077,0.152 c -0.024,0.05 -0.048,0.1 -0.074,0.154 l -0.068,0.155 -0.034,0.078 -0.029,0.077 c -0.039,0.103 -0.077,0.206 -0.106,0.304 l -0.044,0.146 -0.035,0.141 -0.017,0.068 -0.012,0.066 -0.023,0.127 c -0.009,0.08 -0.018,0.155 -0.026,0.225 -0.003,0.034 -0.005,0.067 -0.007,0.098 -0.001,0.031 -0.001,0.06 -0.002,0.086 l 0,0.07 c 0.773,-0.399 1.464,-0.968 2.109,-1.509 0.641,-0.546 1.177,-1.171 1.544,-1.834 0.775,-1.369 -0.358,-1.678 -0.389,-3.118 z"
           id="path4500"
           inkscape:connector-curvature="0"
           style="fill:#a0baa1" /><path
           d="m 146.883,99.557 c -1.583,0.184 -3.212,0.747 -4.118,1.784 -0.822,0.907 -0.888,1.809 -0.378,2.47 l 0.017,-0.029 c 0.039,-0.06 0.079,-0.124 0.123,-0.191 l 0.075,-0.104 0.039,-0.054 0.043,-0.054 0.088,-0.11 0.097,-0.112 0.212,-0.226 0.054,-0.056 0.059,-0.055 0.116,-0.109 c 0.042,-0.037 0.082,-0.071 0.121,-0.105 l 0.12,-0.102 c 0.043,-0.034 0.082,-0.065 0.121,-0.097 l 0.119,-0.091 c 0.076,-0.06 0.155,-0.104 0.227,-0.149 l 0.104,-0.064 0.048,-0.029 0.047,-0.026 c 0.06,-0.034 0.114,-0.063 0.159,-0.088 0.087,-0.048 0.138,-0.076 0.138,-0.076 0,0 -0.045,0.03 -0.125,0.084 -0.04,0.027 -0.087,0.06 -0.142,0.097 l -0.042,0.029 -0.042,0.032 -0.09,0.069 c -0.061,0.048 -0.124,0.098 -0.197,0.156 l -0.101,0.093 c -0.033,0.032 -0.066,0.064 -0.103,0.1 l -0.099,0.104 c -0.032,0.035 -0.064,0.069 -0.099,0.107 l -0.094,0.109 -0.046,0.055 -0.043,0.056 -0.163,0.221 -0.073,0.108 -0.064,0.106 -0.031,0.052 -0.026,0.051 -0.052,0.097 c -0.028,0.063 -0.055,0.122 -0.08,0.178 l -0.032,0.078 -0.024,0.07 -0.018,0.058 c 1.435,-0.319 2.872,-0.866 3.771,-1.775 0.937,-0.937 0.094,-1.457 0.384,-2.662 z"
           id="path4502"
           inkscape:connector-curvature="0"
           style="fill:#a0baa1" /><path
           d="m 161.9,98.974 c -1.279,-0.117 -2.656,0.15 -3.544,0.766 -0.804,0.556 -1.027,1.269 -0.743,1.909 l 0.019,-0.02 c 0.042,-0.041 0.086,-0.083 0.133,-0.128 l 0.079,-0.067 0.041,-0.035 0.044,-0.034 0.091,-0.07 0.098,-0.07 c 0.071,-0.047 0.139,-0.092 0.208,-0.137 l 0.054,-0.034 0.057,-0.032 0.112,-0.063 c 0.041,-0.021 0.077,-0.04 0.114,-0.059 l 0.113,-0.057 c 0.041,-0.019 0.076,-0.035 0.113,-0.052 l 0.11,-0.048 c 0.078,-0.031 0.143,-0.058 0.207,-0.083 l 0.093,-0.036 0.043,-0.017 0.042,-0.014 c 0.055,-0.018 0.102,-0.034 0.142,-0.047 0.078,-0.026 0.123,-0.041 0.123,-0.041 0,0 -0.042,0.018 -0.114,0.049 -0.037,0.016 -0.08,0.035 -0.13,0.057 l -0.038,0.017 -0.04,0.02 -0.084,0.042 c -0.057,0.03 -0.115,0.06 -0.184,0.097 l -0.096,0.055 c -0.031,0.019 -0.063,0.038 -0.099,0.059 l -0.097,0.062 c -0.032,0.021 -0.063,0.042 -0.098,0.065 l -0.093,0.068 -0.047,0.035 -0.044,0.035 c -0.058,0.048 -0.118,0.095 -0.168,0.144 l -0.077,0.072 -0.07,0.072 -0.034,0.035 -0.03,0.035 -0.06,0.067 c -0.034,0.045 -0.066,0.086 -0.096,0.126 l -0.039,0.056 -0.033,0.052 -0.025,0.042 c 1.205,0.085 2.463,-0.183 3.329,-0.777 0.897,-0.617 0.302,-1.175 0.718,-2.116 z"
           id="path4504"
           inkscape:connector-curvature="0"
           style="fill:#a0baa1" /><path
           d="m 109.722,150.92 c 0,0 -0.064,-1.298 0.069,-3.505 0.126,-2.21 0.454,-5.359 1.303,-9.055 0.836,-3.691 2.234,-7.937 4.46,-12.147 1.101,-2.112 2.462,-4.174 3.968,-6.175 1.578,-1.942 3.261,-3.871 5.211,-5.515 1.888,-1.714 4.005,-3.145 6.126,-4.471 1.098,-0.597 2.183,-1.204 3.278,-1.75 1.123,-0.485 2.215,-1.01 3.321,-1.441 4.425,-1.759 8.788,-2.634 12.515,-3.176 0.936,-0.123 1.832,-0.241 2.685,-0.353 0.855,-0.081 1.668,-0.12 2.431,-0.177 0.764,-0.052 1.478,-0.101 2.139,-0.145 0.661,-0.038 1.268,-0.021 1.816,-0.032 2.193,-0.019 3.447,-0.03 3.447,-0.03 0,0 -1.252,0.042 -3.445,0.115 -0.547,0.026 -1.154,0.023 -1.812,0.078 -0.659,0.062 -1.371,0.127 -2.131,0.198 -0.76,0.076 -1.57,0.135 -2.419,0.236 -0.847,0.133 -1.737,0.273 -2.666,0.418 -3.697,0.632 -8.005,1.61 -12.329,3.456 -1.081,0.453 -2.145,0.998 -3.237,1.502 -1.064,0.565 -2.115,1.188 -3.177,1.799 -2.048,1.354 -4.083,2.803 -5.881,4.522 -1.861,1.648 -3.451,3.569 -4.935,5.491 -1.413,1.981 -2.682,4.012 -3.697,6.087 -2.054,4.137 -3.305,8.286 -4.023,11.884 -0.732,3.603 -0.971,6.66 -1.038,8.789 -0.073,2.134 0.02,3.326 0.02,3.326"
           id="path4506"
           inkscape:connector-curvature="0"
           style="fill:#a0baa1" /><path
           stroke-miterlimit="10"
           d="m 121.032,136.684 c -0.406,1.995 -1.367,3.982 -2.844,5.254 -1.337,1.141 -2.783,1.425 -3.991,0.745 l 0.043,-0.029 c 0.091,-0.066 0.186,-0.136 0.288,-0.21 l 0.155,-0.125 0.082,-0.064 0.083,-0.069 0.167,-0.143 0.168,-0.154 c 0.114,-0.102 0.224,-0.217 0.335,-0.329 l 0.083,-0.084 0.081,-0.089 0.159,-0.176 c 0.054,-0.064 0.102,-0.122 0.151,-0.181 l 0.146,-0.178 c 0.051,-0.063 0.096,-0.119 0.143,-0.177 0.046,-0.058 0.092,-0.116 0.135,-0.171 0.09,-0.108 0.166,-0.223 0.24,-0.323 0.036,-0.051 0.07,-0.099 0.104,-0.146 l 0.048,-0.067 0.043,-0.066 c 0.055,-0.085 0.104,-0.161 0.143,-0.223 0.078,-0.122 0.124,-0.192 0.124,-0.192 0,0 -0.05,0.063 -0.138,0.173 -0.043,0.055 -0.097,0.122 -0.158,0.199 l -0.047,0.059 -0.053,0.059 c -0.036,0.041 -0.073,0.083 -0.112,0.127 -0.079,0.087 -0.161,0.188 -0.256,0.28 l -0.144,0.146 c -0.049,0.048 -0.097,0.096 -0.151,0.15 l -0.157,0.146 c -0.052,0.049 -0.102,0.097 -0.158,0.149 l -0.163,0.142 -0.082,0.072 -0.083,0.066 c -0.112,0.087 -0.223,0.179 -0.335,0.254 l -0.166,0.118 -0.164,0.104 -0.08,0.051 -0.079,0.044 -0.152,0.088 c -0.1,0.049 -0.193,0.103 -0.28,0.14 -0.043,0.02 -0.084,0.039 -0.124,0.057 -0.04,0.016 -0.077,0.031 -0.112,0.045 -0.033,0.013 -0.063,0.024 -0.092,0.035 0.166,-2.255 1.265,-4.477 2.824,-5.618 1.627,-1.156 2.39,0.186 4.376,0.111 z"
           id="path4508"
           inkscape:connector-curvature="0"
           style="fill:#a0baa1;stroke:#c1d1c1;stroke-width:0.25;stroke-miterlimit:10" /><path
           d="m 125.348,125.733 c -0.881,1.514 -2.179,2.888 -3.747,3.545 -1.418,0.583 -2.681,0.458 -3.521,-0.43 l 0.043,-0.013 c 0.093,-0.032 0.19,-0.065 0.294,-0.1 l 0.161,-0.064 0.082,-0.033 0.084,-0.038 0.172,-0.077 0.184,-0.083 c 0.126,-0.062 0.248,-0.122 0.371,-0.182 l 0.092,-0.047 0.092,-0.052 0.181,-0.103 c 0.062,-0.038 0.119,-0.073 0.177,-0.108 l 0.171,-0.107 c 0.058,-0.04 0.11,-0.075 0.163,-0.11 l 0.154,-0.109 c 0.104,-0.077 0.193,-0.145 0.278,-0.208 0.042,-0.032 0.083,-0.064 0.122,-0.094 l 0.056,-0.044 0.052,-0.044 c 0.067,-0.057 0.123,-0.109 0.175,-0.147 0.102,-0.077 0.16,-0.122 0.16,-0.122 0,0 -0.061,0.037 -0.166,0.102 -0.054,0.031 -0.111,0.076 -0.182,0.123 l -0.053,0.037 -0.058,0.036 c -0.039,0.024 -0.081,0.05 -0.124,0.077 -0.086,0.051 -0.177,0.105 -0.282,0.168 l -0.154,0.084 c -0.052,0.028 -0.104,0.056 -0.162,0.086 l -0.168,0.081 c -0.056,0.026 -0.112,0.052 -0.172,0.08 l -0.175,0.074 -0.088,0.037 -0.088,0.033 -0.351,0.12 -0.171,0.052 -0.166,0.042 -0.081,0.021 -0.079,0.017 -0.151,0.032 c -0.095,0.016 -0.184,0.031 -0.267,0.045 -0.041,0.005 -0.079,0.011 -0.116,0.016 -0.036,0.003 -0.071,0.006 -0.103,0.009 -0.03,0.002 -0.058,0.004 -0.085,0.006 0.374,-0.909 0.932,-1.761 1.584,-2.454 0.693,-0.667 1.444,-1.2 2.248,-1.46 1.68,-0.496 1.941,0.814 3.614,1.306 z"
           id="path4510"
           inkscape:connector-curvature="0"
           style="fill:#a0baa1" /><path
           d="m 133.167,116.869 c -0.299,0.25 -0.627,0.467 -0.966,0.663 -0.322,0.218 -0.662,0.405 -1.015,0.557 -0.703,0.308 -1.48,0.452 -2.182,0.503 -1.297,0.054 -2.298,-0.484 -2.675,-1.439 l 0.039,0.003 c 0.085,0.005 0.174,0.01 0.269,0.016 l 0.15,0.001 0.078,0 0.08,-0.002 0.164,-0.006 0.169,-0.012 c 0.118,-0.013 0.233,-0.025 0.347,-0.038 l 0.087,-0.011 0.088,-0.015 0.173,-0.03 c 0.06,-0.012 0.116,-0.024 0.172,-0.036 l 0.167,-0.037 c 0.058,-0.014 0.11,-0.027 0.164,-0.04 l 0.162,-0.034 c 0.111,-0.026 0.207,-0.049 0.297,-0.07 0.046,-0.012 0.089,-0.023 0.131,-0.034 l 0.061,-0.016 0.058,-0.018 c 0.072,-0.022 0.138,-0.042 0.191,-0.059 0.105,-0.032 0.166,-0.05 0.166,-0.05 0,0 -0.06,0.012 -0.165,0.033 -0.052,0.01 -0.115,0.023 -0.188,0.038 l -0.056,0.011 -0.06,0.008 c -0.041,0.006 -0.083,0.013 -0.127,0.02 -0.087,0.011 -0.18,0.023 -0.286,0.038 l -0.154,0.015 c -0.052,0.005 -0.104,0.009 -0.161,0.014 l -0.157,0.016 c -0.052,0.005 -0.104,0.009 -0.16,0.014 l -0.161,0.008 -0.081,0.004 -0.08,0 -0.313,-0.006 -0.151,-0.008 -0.144,-0.015 -0.07,-0.007 -0.067,-0.01 -0.129,-0.02 c -0.082,-0.018 -0.156,-0.034 -0.228,-0.049 -0.035,-0.009 -0.067,-0.017 -0.099,-0.025 -0.03,-0.009 -0.059,-0.017 -0.086,-0.025 l -0.07,-0.022 c 0.576,-0.622 1.27,-1.153 2.041,-1.469 0.762,-0.328 1.514,-0.547 2.255,-0.498 1.521,0.107 1.317,1.24 2.522,2.139 z"
           id="path4512"
           inkscape:connector-curvature="0"
           style="fill:#a0baa1" /><path
           d="m 144.123,110.893 c -0.638,0.267 -1.346,0.385 -2.017,0.452 -0.667,0.075 -1.332,0.025 -1.93,-0.166 -1.079,-0.345 -1.698,-1.067 -1.699,-1.92 l 0.03,0.015 c 0.066,0.029 0.135,0.061 0.209,0.094 l 0.12,0.046 0.062,0.024 0.064,0.022 0.133,0.045 0.139,0.042 c 0.099,0.026 0.195,0.051 0.291,0.076 l 0.073,0.018 0.076,0.015 0.15,0.029 c 0.052,0.009 0.101,0.017 0.149,0.024 l 0.147,0.022 c 0.05,0.006 0.097,0.011 0.144,0.017 l 0.138,0.014 c 0.096,0.006 0.179,0.012 0.257,0.017 0.04,0.002 0.077,0.004 0.114,0.006 l 0.053,0.002 0.051,0 c 0.066,0 0.123,0 0.17,0 0.093,0 0.146,0 0.146,0 0,0 -0.051,-0.005 -0.141,-0.014 -0.044,-0.004 -0.099,-0.01 -0.162,-0.016 l -0.048,-0.005 -0.05,-0.008 c -0.034,-0.005 -0.069,-0.011 -0.107,-0.016 -0.073,-0.013 -0.15,-0.026 -0.238,-0.041 l -0.127,-0.027 c -0.042,-0.009 -0.084,-0.019 -0.131,-0.029 l -0.132,-0.035 c -0.044,-0.013 -0.087,-0.024 -0.134,-0.038 l -0.132,-0.042 -0.066,-0.021 -0.064,-0.024 -0.25,-0.1 -0.118,-0.052 -0.111,-0.055 -0.054,-0.026 -0.05,-0.029 -0.097,-0.054 c -0.059,-0.038 -0.114,-0.073 -0.167,-0.107 l -0.07,-0.049 -0.061,-0.046 -0.048,-0.039 c 1.309,-0.581 2.83,-0.834 4.012,-0.35 1.203,0.458 0.73,1.317 1.476,2.329 z"
           id="path4514"
           inkscape:connector-curvature="0"
           style="fill:#a0baa1" /><path
           d="m 156.994,107.853 c -1.139,0.205 -2.377,0.034 -3.261,-0.516 -0.798,-0.507 -1.113,-1.142 -0.933,-1.826 l 0.021,0.017 c 0.045,0.034 0.092,0.07 0.143,0.109 l 0.083,0.056 0.043,0.03 0.046,0.031 0.095,0.063 0.101,0.062 c 0.073,0.042 0.143,0.081 0.213,0.121 l 0.054,0.03 0.057,0.027 0.113,0.055 c 0.041,0.018 0.076,0.034 0.114,0.05 l 0.112,0.048 c 0.04,0.016 0.075,0.03 0.111,0.044 l 0.108,0.04 c 0.076,0.026 0.139,0.047 0.201,0.068 l 0.09,0.029 0.042,0.013 0.041,0.011 c 0.052,0.014 0.099,0.027 0.136,0.037 0.074,0.02 0.118,0.032 0.118,0.032 0,0 -0.041,-0.015 -0.11,-0.041 -0.036,-0.014 -0.078,-0.029 -0.126,-0.047 l -0.037,-0.014 -0.038,-0.017 -0.083,-0.036 c -0.056,-0.025 -0.114,-0.052 -0.182,-0.083 l -0.096,-0.047 c -0.032,-0.017 -0.063,-0.033 -0.099,-0.051 l -0.098,-0.055 c -0.032,-0.019 -0.063,-0.038 -0.099,-0.058 l -0.096,-0.061 -0.048,-0.031 -0.046,-0.032 -0.176,-0.13 -0.082,-0.065 -0.076,-0.066 -0.037,-0.032 -0.034,-0.033 -0.064,-0.062 c -0.039,-0.042 -0.075,-0.081 -0.108,-0.118 l -0.044,-0.053 -0.038,-0.048 -0.029,-0.039 c 1.147,-0.179 2.395,-0.003 3.24,0.526 0.873,0.55 0.341,1.15 0.758,2.062 z"
           id="path4516"
           inkscape:connector-curvature="0"
           style="fill:#a0baa1" /></g></g></g><g
     id="g4518"
     transform="translate(-74.777,-277.05121)"><g
       id="g4520"><g
         id="g4522"><path
           stroke-miterlimit="10"
           d="m 416.199,434.728 c -2.058,-0.254 -4.25,0.086 -5.857,1.09 -1.438,0.906 -2.082,2.204 -1.91,3.551 l 0.039,-0.031 c 0.078,-0.067 0.178,-0.135 0.277,-0.21 l 0.162,-0.108 0.084,-0.057 0.088,-0.055 0.18,-0.11 0.195,-0.111 c 0.129,-0.076 0.27,-0.145 0.406,-0.214 l 0.104,-0.053 0.107,-0.048 0.213,-0.099 c 0.077,-0.033 0.146,-0.062 0.217,-0.092 l 0.211,-0.087 c 0.075,-0.028 0.142,-0.053 0.209,-0.078 l 0.202,-0.071 c 0.129,-0.051 0.261,-0.089 0.378,-0.128 0.059,-0.019 0.115,-0.037 0.17,-0.054 l 0.078,-0.025 0.076,-0.021 c 0.098,-0.026 0.183,-0.049 0.254,-0.067 0.139,-0.037 0.219,-0.059 0.219,-0.059 0,0 -0.074,0.028 -0.205,0.077 -0.065,0.025 -0.145,0.055 -0.236,0.09 l -0.07,0.026 -0.071,0.032 c -0.049,0.021 -0.101,0.044 -0.155,0.067 -0.106,0.048 -0.227,0.096 -0.343,0.158 l -0.181,0.089 c -0.061,0.03 -0.119,0.06 -0.186,0.094 l -0.186,0.102 c -0.062,0.035 -0.123,0.069 -0.188,0.106 l -0.185,0.113 -0.093,0.058 -0.088,0.06 c -0.117,0.081 -0.234,0.155 -0.34,0.239 l -0.16,0.121 -0.146,0.122 -0.072,0.059 -0.066,0.062 -0.13,0.116 c -0.077,0.079 -0.147,0.15 -0.216,0.22 l -0.09,0.099 c -0.027,0.032 -0.053,0.062 -0.077,0.091 l -0.061,0.075 c 2.138,0.548 4.608,0.204 6.179,-0.938 1.615,-1.193 0.569,-2.334 1.264,-4.201 z"
           id="path4524"
           inkscape:connector-curvature="0"
           style="fill:#a0baa1;stroke:#c1d1c1;stroke-width:0.25;stroke-miterlimit:10" /><path
           d="m 428.021,433.762 c -1.811,0.26 -3.605,1.105 -4.81,2.365 -1.071,1.162 -1.372,2.464 -0.804,3.57 l 0.028,-0.037 c 0.062,-0.081 0.128,-0.166 0.198,-0.257 l 0.115,-0.139 0.061,-0.071 0.065,-0.071 0.133,-0.146 0.145,-0.146 c 0.096,-0.098 0.201,-0.193 0.306,-0.289 l 0.078,-0.071 0.084,-0.069 0.163,-0.137 c 0.059,-0.046 0.112,-0.088 0.167,-0.13 l 0.165,-0.125 c 0.058,-0.041 0.112,-0.079 0.165,-0.116 l 0.158,-0.114 c 0.111,-0.078 0.207,-0.145 0.298,-0.207 0.046,-0.032 0.091,-0.062 0.134,-0.09 l 0.061,-0.042 0.062,-0.037 c 0.078,-0.047 0.147,-0.089 0.204,-0.123 0.111,-0.067 0.176,-0.106 0.176,-0.106 0,0 -0.059,0.044 -0.159,0.12 -0.051,0.038 -0.112,0.084 -0.183,0.137 l -0.055,0.041 -0.055,0.046 c -0.037,0.03 -0.076,0.063 -0.117,0.098 -0.08,0.068 -0.163,0.141 -0.26,0.224 l -0.135,0.125 c -0.045,0.041 -0.09,0.082 -0.141,0.127 l -0.138,0.132 c -0.046,0.045 -0.091,0.089 -0.139,0.137 l -0.134,0.142 -0.066,0.07 -0.062,0.073 c -0.083,0.098 -0.167,0.194 -0.24,0.292 l -0.11,0.146 -0.099,0.144 -0.049,0.069 -0.043,0.07 -0.084,0.133 c -0.048,0.089 -0.092,0.17 -0.135,0.248 -0.02,0.038 -0.037,0.074 -0.055,0.109 -0.016,0.035 -0.031,0.068 -0.045,0.1 -0.012,0.028 -0.023,0.056 -0.033,0.081 2.023,-0.081 4.057,-0.964 5.13,-2.338 1.102,-1.396 -0.077,-2.15 0.055,-3.938 z"
           id="path4526"
           inkscape:connector-curvature="0"
           style="fill:#a0baa1" /><path
           d="m 438.7,429.378 c -0.355,0.186 -0.687,0.416 -1.005,0.661 -0.332,0.226 -0.641,0.483 -0.921,0.768 -0.282,0.282 -0.528,0.603 -0.751,0.925 -0.232,0.31 -0.428,0.643 -0.58,0.993 -0.547,1.268 -0.412,2.478 0.367,3.232 l 0.012,-0.04 c 0.028,-0.087 0.058,-0.178 0.09,-0.274 l 0.057,-0.149 0.029,-0.077 0.033,-0.079 0.068,-0.16 0.078,-0.163 c 0.057,-0.112 0.113,-0.222 0.169,-0.329 l 0.044,-0.083 0.049,-0.081 0.096,-0.161 c 0.035,-0.055 0.068,-0.105 0.102,-0.156 l 0.1,-0.151 c 0.036,-0.051 0.069,-0.097 0.102,-0.144 l 0.102,-0.137 c 0.071,-0.092 0.133,-0.171 0.192,-0.246 l 0.083,-0.115 0.037,-0.054 0.039,-0.049 c 0.051,-0.063 0.094,-0.119 0.131,-0.165 0.071,-0.09 0.112,-0.142 0.112,-0.142 0,0 -0.034,0.054 -0.095,0.147 -0.031,0.048 -0.066,0.104 -0.109,0.171 l -0.032,0.051 -0.03,0.054 c -0.021,0.038 -0.045,0.077 -0.068,0.118 -0.047,0.077 -0.096,0.159 -0.153,0.254 l -0.079,0.137 c -0.025,0.047 -0.051,0.093 -0.08,0.145 l -0.076,0.149 c -0.024,0.05 -0.049,0.1 -0.074,0.153 l -0.07,0.156 -0.035,0.079 -0.029,0.079 -0.115,0.312 -0.049,0.153 -0.041,0.149 -0.021,0.072 -0.016,0.07 -0.03,0.137 c -0.015,0.087 -0.028,0.169 -0.041,0.246 l -0.014,0.107 c -0.003,0.034 -0.006,0.065 -0.009,0.096 l -0.005,0.079 c 1.666,-0.632 3.086,-1.976 3.58,-3.415 0.468,-1.522 -0.718,-1.786 -1.144,-3.323 z"
           id="path4528"
           inkscape:connector-curvature="0"
           style="fill:#a0baa1" /><path
           d="m 447.302,421.493 c -1.019,1.041 -1.606,2.508 -1.708,3.818 -0.053,1.213 0.447,2.148 1.328,2.512 l -0.003,-0.036 c -0.005,-0.079 -0.01,-0.162 -0.015,-0.251 l -0.002,-0.14 0,-0.072 0.002,-0.074 0.006,-0.152 0.012,-0.157 c 0.012,-0.109 0.023,-0.216 0.035,-0.322 l 0.01,-0.081 0.014,-0.082 0.027,-0.161 c 0.012,-0.056 0.023,-0.108 0.033,-0.16 l 0.035,-0.155 c 0.014,-0.054 0.026,-0.102 0.039,-0.15 l 0.039,-0.144 c 0.031,-0.098 0.057,-0.183 0.082,-0.262 l 0.038,-0.116 0.015,-0.056 0.017,-0.054 c 0.021,-0.068 0.039,-0.129 0.055,-0.179 0.03,-0.098 0.048,-0.154 0.048,-0.154 0,0 -0.012,0.056 -0.031,0.154 -0.01,0.049 -0.022,0.107 -0.036,0.176 l -0.011,0.053 -0.008,0.056 c -0.008,0.036 -0.016,0.073 -0.023,0.114 -0.015,0.077 -0.031,0.159 -0.049,0.253 l -0.021,0.138 c -0.007,0.046 -0.014,0.092 -0.021,0.144 l -0.015,0.146 c -0.005,0.049 -0.009,0.098 -0.013,0.149 l -0.008,0.149 -0.004,0.075 0,0.074 0.006,0.292 0.008,0.141 0.014,0.134 0.006,0.064 0.01,0.063 0.019,0.12 c 0.017,0.075 0.031,0.146 0.046,0.213 l 0.022,0.092 c 0.009,0.028 0.017,0.056 0.024,0.081 l 0.021,0.064 c 0.554,-0.542 1.081,-1.143 1.386,-1.846 0.31,-0.699 0.486,-1.419 0.48,-2.088 -0.027,-1.376 -1.103,-1.234 -1.909,-2.383 z"
           id="path4530"
           inkscape:connector-curvature="0"
           style="fill:#a0baa1" /><path
           d="m 453.289,410.704 c -0.621,1.164 -0.746,2.615 -0.494,3.743 0.254,1.031 0.911,1.648 1.734,1.7 l -0.012,-0.029 c -0.023,-0.063 -0.049,-0.13 -0.076,-0.201 l -0.036,-0.114 -0.019,-0.059 -0.018,-0.062 -0.034,-0.126 -0.03,-0.133 c -0.018,-0.094 -0.035,-0.185 -0.053,-0.275 l -0.012,-0.069 -0.01,-0.072 -0.018,-0.141 c -0.004,-0.05 -0.008,-0.096 -0.013,-0.143 l -0.011,-0.138 c -0.002,-0.048 -0.004,-0.092 -0.006,-0.136 l -0.002,-0.131 c -0.004,-0.092 -0.008,-0.172 -0.012,-0.247 l -0.004,-0.11 -0.001,-0.052 0.001,-0.049 c 0,-0.062 10e-4,-0.118 0.002,-0.165 0,-0.09 10e-4,-0.142 10e-4,-0.142 0,0 0.005,0.049 0.012,0.138 0.003,0.043 0.009,0.096 0.013,0.156 l 0.004,0.047 0.008,0.049 c 0.004,0.033 0.009,0.067 0.014,0.104 0.011,0.071 0.022,0.146 0.035,0.231 l 0.019,0.121 c 0.007,0.041 0.013,0.081 0.019,0.125 l 0.024,0.126 c 0.009,0.041 0.018,0.082 0.026,0.127 l 0.031,0.126 0.017,0.062 0.019,0.062 0.078,0.239 0.043,0.113 0.045,0.105 0.021,0.053 0.025,0.048 0.045,0.094 c 0.033,0.058 0.062,0.111 0.092,0.162 l 0.043,0.068 0.04,0.06 0.034,0.048 c 0.702,-1.162 0.864,-2.651 0.54,-3.771 -0.347,-1.157 -1.21,-0.771 -2.124,-1.542 z"
           id="path4532"
           inkscape:connector-curvature="0"
           style="fill:#a0baa1" /><path
           d="m 456.834,398.22 c -0.314,1.101 -0.262,2.336 0.202,3.255 0.419,0.828 1.075,1.207 1.747,1.087 l -0.016,-0.021 c -0.033,-0.049 -0.066,-0.099 -0.104,-0.152 l -0.053,-0.088 -0.027,-0.045 -0.027,-0.048 -0.054,-0.1 -0.052,-0.104 c -0.035,-0.075 -0.067,-0.147 -0.101,-0.221 l -0.024,-0.056 -0.021,-0.059 -0.045,-0.115 c -0.014,-0.042 -0.026,-0.079 -0.039,-0.117 l -0.037,-0.114 c -0.012,-0.041 -0.023,-0.076 -0.033,-0.113 l -0.03,-0.109 c -0.019,-0.076 -0.034,-0.142 -0.049,-0.204 l -0.021,-0.092 -0.01,-0.042 -0.006,-0.041 c -0.01,-0.053 -0.018,-0.099 -0.023,-0.137 -0.014,-0.075 -0.021,-0.118 -0.021,-0.118 0,0 0.012,0.04 0.031,0.111 0.01,0.036 0.021,0.079 0.035,0.129 l 0.01,0.038 0.014,0.039 0.027,0.084 c 0.02,0.058 0.041,0.116 0.064,0.187 l 0.039,0.098 c 0.014,0.032 0.026,0.065 0.041,0.102 l 0.046,0.101 c 0.016,0.034 0.031,0.066 0.048,0.103 l 0.052,0.1 0.026,0.05 0.027,0.048 0.113,0.185 0.058,0.087 0.059,0.08 0.028,0.039 0.029,0.036 0.057,0.069 c 0.038,0.042 0.074,0.08 0.107,0.116 l 0.049,0.049 0.045,0.042 0.037,0.032 c 0.282,-1.107 0.228,-2.345 -0.221,-3.226 -0.461,-0.912 -1.11,-0.447 -1.977,-0.945 z"
           id="path4534"
           inkscape:connector-curvature="0"
           style="fill:#a0baa1" /><path
           d="m 407.967,440.889 c 0,0 1.155,0.244 3.265,0.448 2.103,0.211 5.14,0.371 8.765,0.119 3.619,-0.239 7.832,-0.93 12.107,-2.394 2.144,-0.718 4.268,-1.688 6.357,-2.797 2.04,-1.187 4.086,-2.467 5.9,-4.044 1.875,-1.503 3.518,-3.27 5.07,-5.053 0.719,-0.941 1.447,-1.865 2.121,-2.81 0.621,-0.983 1.275,-1.929 1.846,-2.905 2.312,-3.899 3.799,-7.912 4.876,-11.385 0.259,-0.875 0.507,-1.713 0.742,-2.51 0.206,-0.806 0.366,-1.58 0.536,-2.303 0.165,-0.724 0.32,-1.4 0.463,-2.026 0.137,-0.628 0.211,-1.217 0.306,-1.741 0.352,-2.107 0.552,-3.312 0.552,-3.312 0,0 -0.17,1.21 -0.467,3.326 -0.082,0.528 -0.141,1.12 -0.262,1.752 -0.127,0.631 -0.266,1.313 -0.412,2.043 -0.152,0.729 -0.293,1.51 -0.479,2.324 -0.217,0.806 -0.443,1.653 -0.681,2.538 -0.994,3.518 -2.386,7.6 -4.628,11.612 -0.553,1.004 -1.193,1.98 -1.799,2.997 -0.661,0.979 -1.379,1.938 -2.088,2.917 -1.537,1.86 -3.174,3.711 -5.059,5.304 -1.824,1.666 -3.893,3.038 -5.967,4.314 -2.123,1.197 -4.293,2.253 -6.485,3.051 -4.376,1.621 -8.708,2.442 -12.436,2.783 -3.735,0.354 -6.878,0.267 -9.069,0.103 -2.191,-0.157 -3.455,-0.39 -3.455,-0.39"
           id="path4536"
           inkscape:connector-curvature="0"
           style="fill:#a0baa1" /><path
           stroke-miterlimit="10"
           d="m 425.854,449.992 c -2.732,0.717 -5.801,0.398 -7.757,-0.762 -1.776,-1.041 -2.264,-2.504 -1.729,-3.775 l 0.039,0.038 c 0.081,0.082 0.183,0.166 0.283,0.256 l 0.166,0.134 0.087,0.066 0.094,0.066 0.192,0.134 0.208,0.133 c 0.138,0.09 0.292,0.174 0.444,0.259 l 0.115,0.062 0.119,0.061 0.24,0.118 c 0.086,0.039 0.164,0.074 0.244,0.11 l 0.242,0.105 c 0.077,0.034 0.162,0.06 0.241,0.088 0.08,0.028 0.159,0.055 0.235,0.081 0.149,0.055 0.305,0.096 0.443,0.137 0.068,0.021 0.135,0.039 0.199,0.058 l 0.093,0.026 0.09,0.022 c 0.116,0.028 0.22,0.053 0.304,0.073 0.168,0.04 0.264,0.062 0.264,0.062 0,0 -0.09,-0.029 -0.246,-0.082 -0.078,-0.025 -0.172,-0.058 -0.281,-0.094 l -0.082,-0.028 -0.085,-0.033 c -0.058,-0.022 -0.118,-0.046 -0.181,-0.071 -0.125,-0.05 -0.266,-0.101 -0.398,-0.165 l -0.208,-0.096 c -0.07,-0.033 -0.146,-0.064 -0.212,-0.103 l -0.21,-0.112 c -0.069,-0.04 -0.136,-0.079 -0.21,-0.122 l -0.201,-0.13 -0.102,-0.065 -0.096,-0.067 c -0.125,-0.092 -0.253,-0.181 -0.363,-0.274 l -0.167,-0.138 -0.15,-0.139 -0.073,-0.067 -0.066,-0.068 -0.127,-0.131 c -0.074,-0.087 -0.151,-0.167 -0.208,-0.245 -0.03,-0.038 -0.058,-0.074 -0.085,-0.109 -0.025,-0.036 -0.049,-0.069 -0.07,-0.101 -0.02,-0.029 -0.037,-0.057 -0.055,-0.083 2.438,-0.203 5.002,0.077 6.933,1.012 2.018,0.938 0.938,2.23 2.087,3.959 z"
           id="path4538"
           inkscape:connector-curvature="0"
           style="fill:#a0baa1;stroke:#c1d1c1;stroke-width:0.25;stroke-miterlimit:10" /><path
           d="m 441.18,443.934 c -2.092,1.373 -4.779,1.928 -6.727,1.485 -1.766,-0.388 -2.557,-1.507 -2.44,-2.699 l 0.042,0.021 c 0.097,0.045 0.197,0.092 0.304,0.142 l 0.175,0.069 0.092,0.035 0.096,0.034 0.197,0.065 0.209,0.054 c 0.139,0.036 0.289,0.063 0.438,0.092 l 0.112,0.021 0.116,0.016 0.23,0.032 c 0.082,0.009 0.157,0.017 0.233,0.024 l 0.229,0.021 c 0.081,0.005 0.154,0.009 0.228,0.014 0.075,0.002 0.147,0.005 0.221,0.008 0.152,0.001 0.284,0.002 0.409,0.003 0.063,-10e-4 0.125,-0.002 0.184,-0.002 l 0.086,-0.002 0.082,-0.004 c 0.104,-0.007 0.198,-0.013 0.274,-0.018 0.15,-0.017 0.236,-0.026 0.236,-0.026 0,0 -0.082,0.002 -0.227,0.005 -0.07,0.004 -0.16,-0.001 -0.261,-0.004 l -0.077,-0.003 -0.08,-0.007 c -0.055,-0.004 -0.112,-0.009 -0.172,-0.014 -0.12,-0.01 -0.25,-0.019 -0.381,-0.038 l -0.2,-0.027 c -0.067,-0.011 -0.134,-0.021 -0.206,-0.032 l -0.207,-0.04 c -0.066,-0.014 -0.135,-0.028 -0.207,-0.044 l -0.203,-0.052 -0.102,-0.026 -0.097,-0.03 c -0.129,-0.041 -0.257,-0.081 -0.374,-0.128 l -0.176,-0.068 -0.162,-0.074 -0.079,-0.035 -0.073,-0.039 -0.141,-0.073 c -0.085,-0.056 -0.164,-0.106 -0.238,-0.155 -0.036,-0.024 -0.069,-0.049 -0.102,-0.071 -0.03,-0.023 -0.059,-0.047 -0.085,-0.067 l -0.068,-0.057 c 0.989,-0.417 2.039,-0.73 3.08,-0.896 1.024,-0.21 2.06,-0.233 2.989,-0.111 1.937,0.205 1.391,1.589 2.823,2.701 z"
           id="path4540"
           inkscape:connector-curvature="0"
           style="fill:#a0baa1" /><path
           d="m 453.482,433.114 c -0.311,0.417 -0.651,0.822 -1.023,1.189 -0.395,0.35 -0.811,0.67 -1.236,0.949 -0.854,0.557 -1.721,0.973 -2.594,1.069 -1.547,0.21 -2.498,-0.39 -2.793,-1.396 l 0.041,0.004 c 0.089,0.004 0.182,0.009 0.282,0.014 l 0.159,-10e-4 0.083,-0.001 0.086,-0.005 0.177,-0.011 0.186,-0.019 c 0.131,-0.019 0.258,-0.037 0.385,-0.055 l 0.098,-0.017 0.1,-0.021 0.196,-0.042 c 0.068,-0.017 0.133,-0.032 0.196,-0.049 l 0.193,-0.05 c 0.062,-0.018 0.127,-0.035 0.186,-0.059 l 0.172,-0.066 c 0.119,-0.05 0.221,-0.093 0.318,-0.134 0.049,-0.021 0.096,-0.042 0.141,-0.062 l 0.066,-0.029 0.062,-0.03 c 0.078,-0.04 0.149,-0.075 0.207,-0.104 0.114,-0.058 0.181,-0.091 0.181,-0.091 0,0 -0.065,0.026 -0.18,0.071 -0.057,0.022 -0.125,0.05 -0.204,0.081 l -0.062,0.023 -0.063,0.021 c -0.044,0.015 -0.09,0.029 -0.138,0.046 -0.093,0.029 -0.192,0.06 -0.306,0.096 l -0.164,0.044 c -0.055,0.015 -0.109,0.028 -0.17,0.043 l -0.18,0.028 c -0.059,0.008 -0.117,0.017 -0.182,0.025 l -0.18,0.019 -0.09,0.009 -0.088,0.004 c -0.117,0.006 -0.234,0.011 -0.345,0.008 l -0.163,-0.003 -0.154,-0.012 -0.075,-0.005 -0.071,-0.009 -0.137,-0.018 c -0.084,-0.018 -0.163,-0.033 -0.238,-0.048 -0.035,-0.009 -0.069,-0.017 -0.102,-0.024 -0.031,-0.01 -0.061,-0.018 -0.089,-0.026 l -0.071,-0.023 c 0.666,-0.629 1.422,-1.181 2.167,-1.669 0.753,-0.477 1.59,-0.792 2.353,-0.986 1.595,-0.411 1.593,0.857 3.063,1.322 z"
           id="path4542"
           inkscape:connector-curvature="0"
           style="fill:#a0baa1" /><path
           d="m 461.098,419.312 c -0.275,0.778 -0.635,1.551 -1.144,2.186 -0.517,0.632 -1.106,1.152 -1.716,1.479 -1.102,0.59 -2.016,0.41 -2.553,-0.281 l 0.032,-0.01 c 0.069,-0.022 0.142,-0.046 0.22,-0.072 l 0.121,-0.047 0.062,-0.025 0.063,-0.028 0.132,-0.06 0.135,-0.067 c 0.094,-0.053 0.184,-0.103 0.274,-0.153 l 0.069,-0.04 0.068,-0.044 0.139,-0.09 c 0.047,-0.032 0.091,-0.062 0.135,-0.093 l 0.13,-0.095 c 0.044,-0.033 0.085,-0.064 0.124,-0.096 l 0.119,-0.095 c 0.081,-0.068 0.151,-0.129 0.217,-0.185 l 0.096,-0.084 0.043,-0.039 0.041,-0.039 c 0.054,-0.052 0.1,-0.096 0.137,-0.133 0.076,-0.073 0.119,-0.115 0.119,-0.115 0,0 -0.045,0.036 -0.123,0.101 -0.039,0.031 -0.086,0.069 -0.141,0.114 l -0.041,0.033 -0.046,0.032 -0.097,0.071 c -0.066,0.046 -0.137,0.095 -0.217,0.15 l -0.118,0.077 c -0.04,0.024 -0.08,0.049 -0.124,0.076 l -0.127,0.072 c -0.043,0.024 -0.084,0.047 -0.13,0.072 l -0.131,0.064 -0.065,0.032 -0.066,0.029 c -0.087,0.037 -0.174,0.075 -0.258,0.104 l -0.125,0.044 -0.121,0.036 -0.059,0.018 -0.058,0.014 -0.108,0.026 c -0.07,0.011 -0.135,0.021 -0.197,0.032 l -0.084,0.01 -0.076,0.007 -0.062,0.002 c 0.601,-1.381 1.681,-2.588 2.749,-3.283 1.154,-0.703 1.481,0.28 2.762,0.293 z"
           id="path4544"
           inkscape:connector-curvature="0"
           style="fill:#a0baa1" /><path
           d="m 464.632,404.647 c -0.157,1.262 -0.71,2.536 -1.499,3.259 -0.7,0.656 -1.496,0.702 -2.032,0.291 l 0.023,-0.014 c 0.052,-0.031 0.104,-0.062 0.161,-0.098 l 0.088,-0.06 0.043,-0.031 0.044,-0.035 0.087,-0.071 0.089,-0.079 0.177,-0.171 0.045,-0.044 0.043,-0.048 0.085,-0.094 c 0.029,-0.034 0.056,-0.065 0.082,-0.097 l 0.079,-0.097 c 0.027,-0.035 0.051,-0.065 0.075,-0.098 l 0.07,-0.095 c 0.047,-0.068 0.087,-0.126 0.125,-0.182 l 0.055,-0.082 0.025,-0.038 0.022,-0.037 c 0.029,-0.049 0.055,-0.092 0.076,-0.127 0.041,-0.068 0.065,-0.108 0.065,-0.108 0,0 -0.026,0.036 -0.072,0.099 -0.023,0.031 -0.051,0.069 -0.083,0.112 l -0.024,0.034 -0.027,0.033 -0.059,0.071 c -0.041,0.049 -0.083,0.098 -0.134,0.156 l -0.073,0.081 c -0.024,0.026 -0.05,0.053 -0.077,0.082 l -0.082,0.08 c -0.027,0.026 -0.055,0.052 -0.084,0.079 l -0.086,0.076 -0.043,0.037 -0.045,0.035 c -0.059,0.045 -0.116,0.092 -0.175,0.13 l -0.087,0.059 -0.084,0.053 -0.041,0.024 -0.041,0.022 -0.078,0.042 c -0.051,0.022 -0.099,0.044 -0.143,0.064 l -0.063,0.025 -0.058,0.02 -0.048,0.015 c 0.173,-1.178 0.697,-2.329 1.461,-3.035 0.791,-0.731 1.211,-0.037 2.218,-0.238 z"
           id="path4546"
           inkscape:connector-curvature="0"
           style="fill:#a0baa1" /></g></g></g><g
     transform="matrix(0.68241761,0,0,0.69077585,65.817183,-25.290728)"
     style="font-size:71.17185974px;font-family:StylishCalligraphyDemo;fill:#ffffff"
     id="text4548"><path
       d="m 199.65624,194.42208 q 0.35586,0.21352 0.14234,0.49821 -1.4946,2.41984 -3.06039,4.91085 -1.56578,2.49102 -3.34507,4.83969 -1.70813,2.34867 -3.77211,4.48383 -2.06399,2.06398 -4.48383,3.62976 -2.06398,1.35227 -3.91445,1.35227 -0.92524,0 -1.85047,-0.35586 -1.7793,-0.78289 -2.41984,-3.13156 -0.56938,-2.41985 0.21351,-6.26313 1.42344,-6.54781 3.77211,-12.95328 -2.34867,0.7829 -4.83968,1.35227 -2.49102,0.56938 -4.555,0.92523 -3.20274,0.56938 -6.61899,0.92524 -3.41625,0.28469 -6.54781,0.42703 -0.9964,2.2775 -2.13515,4.41266 -1.06758,2.06398 -2.2775,3.98562 -6.90367,10.81812 -15.87133,10.88929 l -0.14234,0 q -3.91445,0 -6.76133,-1.92164 -2.70453,-1.77929 -4.27031,-5.12437 l -0.28469,-0.64055 q -1.70812,0.64055 -3.70093,1.06758 -1.92164,0.42703 -3.91446,0.35586 -1.92164,-0.14234 -3.7721,-0.92523 -1.85047,-0.85407 -3.41625,-2.70453 -1.70813,-2.06399 -2.13516,-4.76852 -0.4982,-2.70453 0.42703,-4.98203 0.14234,-0.35586 0.42703,-0.64055 0.35586,-0.35586 0.85406,-0.35586 0.56938,0 0.92524,0.42704 0.42703,0.35585 0.42703,0.92523 0,0.56937 -0.42703,0.92523 -0.35586,0.35586 -0.92524,0.35586 -0.56937,0 -0.92523,-0.35586 -0.4982,1.99282 0,4.19914 0.4982,2.13516 1.92164,3.84328 1.28109,1.56579 2.98922,2.34868 1.70812,0.71171 3.48742,0.78289 1.85047,0 3.70094,-0.56938 1.85047,-0.64055 3.41625,-1.70812 -1.35227,-4.62617 -0.56938,-10.10641 0.4982,-3.41625 1.70813,-6.40546 1.20992,-2.98922 3.06039,-5.12438 2.20632,-2.63336 5.0532,-3.62976 1.56578,-0.56938 3.13156,-0.56938 1.63695,0 3.27391,0.42703 1.56578,0.42703 2.49101,1.13875 0.99641,0.71172 1.49461,1.56578 0.56937,0.78289 0.71172,1.63696 0.21351,0.85406 0.21351,1.56578 -0.14234,2.7757 -2.13515,6.26312 -1.99281,3.48742 -5.62258,6.90367 -2.63336,2.56219 -5.62258,4.555 -2.91804,1.99281 -5.90726,3.27391 0.14234,0.21351 0.28469,0.64054 1.49461,3.13156 4.19914,4.91086 2.7757,1.70813 6.26312,1.70813 6.26312,0 11.81453,-9.89289 1.20992,-1.99282 2.20633,-4.19914 1.06757,-2.2775 2.06398,-4.69735 -0.99641,-0.21351 -1.63695,-0.64054 -1.2811,-0.85406 -1.49461,-2.34867 0,-0.56938 0.21351,-1.06758 0.28469,-0.4982 1.06758,-0.4982 0.56938,0 0.92524,0.42703 0.42703,0.35586 0.42703,0.92523 0,0.56938 -0.42703,0.92523 -0.35586,0.35586 -0.92524,0.35586 l -0.14234,0 q 0.35586,0.56938 0.92523,0.85407 0.64055,0.28468 1.2811,0.42703 1.13875,-2.77571 2.20632,-5.62258 1.06758,-2.84687 2.06399,-5.69375 1.92164,-5.33789 3.77211,-10.03523 1.85046,-4.69734 3.7721,-7.68656 -2.41984,-0.4982 -5.0532,-1.13875 -2.56218,-0.64055 -5.19554,-1.28109 -4.69735,-1.20993 -9.18117,-2.20633 -4.48383,-0.99641 -7.61539,-0.99641 l -0.0712,0 q -2.77571,0 -3.91446,1.2811 l -0.21351,0.21351 0.0712,0 q 0.56938,0 0.92523,0.42703 0.42704,0.35586 0.42704,0.92524 0,0.56937 -0.42704,0.92523 -0.35585,0.35586 -0.92523,0.35586 -1.13875,0 -1.28109,-1.13875 l 0,-0.0712 0,-0.0712 0,-0.14235 q 0.14234,-1.13875 0.92523,-1.92164 1.49461,-1.49461 4.41266,-1.49461 l 0.0712,0 q 3.20273,0 7.68656,0.99641 4.555,0.99641 9.25234,2.20633 2.70453,0.71172 5.40906,1.35226 2.70453,0.64055 5.12438,1.13875 0.64054,-0.85406 1.28109,-1.49461 0.99641,-0.9964 2.56219,-1.92164 1.56578,-0.9964 3.62976,-0.92523 0.78289,0 1.99281,0.35586 1.2811,0.28469 1.85047,1.06758 0.71172,0.92523 0.14235,1.99281 -0.56938,0.9964 -2.06399,1.70812 -1.42344,0.64055 -3.06039,0.64055 -0.4982,0 -1.06758,0 -0.4982,0 -1.06757,-0.0712 -1.85047,2.7757 -3.5586,6.97484 -1.63695,4.12797 -3.41625,8.82531 -1.20992,3.13156 -2.41984,6.3343 -1.20992,3.13156 -2.63336,6.33429 2.49102,-0.0712 5.40906,-0.35586 2.91805,-0.28469 5.90727,-0.71172 2.98922,-0.4982 5.83609,-1.20992 2.91805,-0.71172 5.40906,-1.56578 0.35586,-0.99641 0.78289,-1.99281 0.42703,-0.99641 0.85406,-1.99281 0.42703,-0.99641 1.35227,-3.48742 0.99641,-2.49102 2.34867,-5.55141 1.42344,-3.13156 3.06039,-6.40547 1.63695,-3.2739 3.41625,-5.83609 1.7793,-2.63336 3.48742,-4.0568 1.7793,-1.42343 3.34508,-0.92523 1.28109,0.56938 1.49461,2.13516 0.35586,2.20632 -1.2811,6.26312 -0.64054,1.85047 -1.63695,3.91445 -0.9964,1.99281 -2.20633,4.12797 -2.20632,3.84328 -4.555,7.04601 -2.2775,3.20274 -4.12796,4.83969 -1.56578,3.98562 -2.98922,7.82891 -1.42344,3.7721 -2.49102,6.97484 -2.06398,6.12078 -1.06757,8.32711 1.06757,2.13515 3.98562,0.14234 2.34867,-1.56578 4.19914,-3.48742 1.92164,-1.92164 3.55859,-4.12797 1.70813,-2.2775 3.20274,-4.69734 1.56578,-2.49102 3.13156,-5.05321 0.21351,-0.35585 0.4982,-0.0712 z m -68.89436,-10.74695 q -1.63695,1.92164 -2.7757,4.48383 -1.06758,2.56219 -1.63695,5.33789 -0.49821,2.7757 -0.49821,5.62258 0.0712,2.84687 0.78289,5.40906 3.41625,-2.06399 6.61899,-5.19555 4.05679,-3.77211 6.54781,-7.54422 2.56218,-3.84328 2.98921,-6.69015 0.0712,-0.78289 -0.14234,-1.70813 -0.14234,-0.92523 -0.64055,-1.70812 -0.4982,-0.85406 -1.35226,-1.35227 -0.85406,-0.56937 -2.13516,-0.56937 -2.70453,0 -4.62617,1.28109 -1.92164,1.20993 -3.13156,2.63336 z m 66.83038,-18.93171 q -0.85407,1.77929 -1.92164,4.27031 -1.06758,2.41984 -2.2775,5.33789 -1.20992,2.91804 -2.56219,6.12078 -1.28109,3.20273 -2.56219,6.47664 1.63696,-1.85047 3.5586,-4.62617 1.99281,-2.77571 3.84328,-5.97844 2.70453,-4.62617 3.98562,-8.25594 1.35227,-3.70093 1.06758,-5.5514 -0.14235,-0.78289 -0.28469,-0.99641 -0.14234,-0.21351 -0.35586,-0.28468 -0.4982,-0.14235 -1.13875,0.85406 -0.56937,0.9964 -1.35226,2.63336 z m -20.21281,-1.49461 q 0.28469,-0.56938 0,-1.13875 -0.28469,-0.64055 -0.99641,-0.64055 -0.71172,-0.0712 -1.70812,0.49821 -0.99641,0.56937 -2.06399,1.56578 -0.35586,0.35586 -0.71171,0.78289 -0.28469,0.35586 -0.64055,0.85406 0.42703,0.0712 0.85406,0.0712 0.42703,0 0.78289,0 1.63695,0 2.84688,-0.56937 1.28109,-0.64055 1.63695,-1.42344 z"
       style="font-size:71.17185974px;font-family:StylishCalligraphyDemo;fill:#ffffff"
       id="path4873"
       inkscape:connector-curvature="0" /><path
       d="m 237.08596,194.6356 q 0.21352,0.28469 0,0.4982 -4.62617,5.0532 -10.1064,7.04602 -4.19914,1.63695 -7.97125,0.85406 0,0.0712 -0.0712,0.14234 0,0 0,0.0712 -2.70453,4.98203 -6.04961,7.90008 -3.84328,3.20273 -7.90008,3.20273 -4.27031,0 -6.40546,-2.49101 -1.92164,-2.20633 -2.13516,-6.12078 -0.14234,-2.56219 0.56938,-5.55141 0.71171,-2.98921 2.13515,-5.69375 0.71172,-1.28109 1.49461,-2.27749 0.78289,-1.06758 1.49461,-1.92164 1.20992,-1.42344 2.98922,-1.85047 1.85047,-0.42703 4.41265,-0.0712 0,-4.27032 1.7793,-7.47305 2.13516,-3.84328 5.62258,-4.19914 3.20273,-0.35586 4.98203,2.20633 2.34867,3.55859 1.35226,10.74695 -0.35586,2.91804 -1.28109,5.97843 -0.85406,2.98922 -2.13516,5.76493 1.70813,1.06757 3.91446,0.78289 2.27749,-0.28469 4.55499,-1.35227 2.2775,-1.06758 4.41266,-2.70453 2.20633,-1.70812 3.77211,-3.48742 0.28469,-0.28469 0.56937,0 z m -18.78937,8.25593 q -0.42703,-0.0712 -0.78289,-0.28468 -3.2739,-1.06758 -5.33789,-3.98563 -2.13515,-2.98922 -2.56218,-7.47304 l -0.14235,-1.99281 q -2.49101,0.56937 -4.91086,4.83968 -1.28109,2.20633 -2.13515,4.76852 -0.78289,2.56218 -0.92524,4.98203 -0.21351,3.62976 0.49821,5.76492 0.78289,2.13515 2.20632,2.98922 1.42344,0.78289 3.27391,0.42703 1.92164,-0.35586 3.84328,-1.63696 1.92164,-1.35226 3.77211,-3.48742 1.85047,-2.13515 3.20273,-4.91086 z m 3.06039,-23.55788 q -0.92523,-1.20992 -1.92164,-1.28109 -0.92523,-0.14235 -1.77929,0.4982 -0.85407,0.56937 -1.63696,1.70812 -0.71172,1.06758 -1.13875,2.20633 -1.42343,3.77211 -0.9964,8.6118 0.35586,3.2739 1.85046,5.83609 1.56579,2.49101 3.48743,4.05679 1.28109,-2.70453 2.13515,-5.62257 0.85406,-2.98922 1.20992,-5.76492 0.49821,-3.41625 0.14235,-6.04961 -0.28469,-2.63336 -1.35227,-4.19914 z"
       style="font-size:71.17185974px;font-family:StylishCalligraphyDemo;fill:#ffffff"
       id="path4875"
       inkscape:connector-curvature="0" /><path
       d="m 268.81527,204.81317 q -1.99281,5.69375 -2.20633,8.6118 -0.14234,2.91805 1.13875,3.48742 1.06758,0.42703 3.06039,-0.99641 1.99281,-1.35226 4.48383,-4.48382 2.98922,-3.62977 5.19554,-7.11719 2.2775,-3.55859 4.48383,-7.18836 0.35586,-0.71171 0.78289,-1.35226 0.42703,-0.64055 0.78289,-1.2811 0.14234,-0.28468 0.4982,-0.0712 0.28469,0.14235 0.0712,0.49821 l -1.56579,2.56218 q -2.13515,3.62977 -4.27031,7.11719 -2.13515,3.48742 -5.19554,7.18836 -0.99641,1.20992 -2.13516,2.41984 -1.06758,1.28109 -2.2775,2.20633 -1.20992,0.9964 -2.56218,1.56578 -1.35227,0.56937 -2.77571,0.35586 -3.34507,-0.49821 -3.91445,-4.27031 -0.56937,-3.84328 1.28109,-9.46586 0.56938,-1.7793 1.06758,-3.41625 0.4982,-1.70812 0.64055,-3.06039 0.21351,-1.42344 0,-2.34867 -0.14235,-0.99641 -0.92524,-1.2811 -0.9964,-0.28468 -2.13515,0.35586 -1.06758,0.56938 -2.20633,1.85047 -1.13875,1.2811 -2.34867,2.98922 -1.13875,1.70813 -2.2775,3.55859 -1.06758,1.85047 -1.99281,3.62977 -0.92524,1.7793 -1.63695,3.20273 -0.35586,0.78289 -0.64055,1.42344 -0.28469,0.56937 -0.4982,0.99641 -0.56938,0.9964 -1.49461,1.42343 -0.85407,0.35586 -1.7793,0.35586 -0.85406,0 -1.63695,-0.14234 -0.71172,-0.21352 -0.92524,-0.28469 0.21352,-0.56937 0.99641,-2.41984 0.78289,-1.92164 1.70812,-4.41266 0.92524,-2.56218 1.85047,-5.33789 0.92524,-2.84687 1.42344,-5.26671 0.4982,-2.49102 0.42703,-4.19914 0,-1.70813 -0.99641,-2.06399 -1.13875,-0.35586 -2.49101,0.85406 -1.35227,1.13875 -2.7757,3.27391 -1.42344,2.13516 -2.84688,4.83969 -1.42343,2.63335 -2.70453,5.19554 -1.20992,2.56219 -2.20633,4.76852 -0.9964,2.13515 -1.49461,3.20273 l 0,0.14234 q -0.4982,0.85407 -1.28109,1.20993 -0.85406,0.35585 -1.70812,0.42703 -0.85407,0.0712 -1.56578,-0.0712 -0.78289,-0.14234 -1.20993,-0.28468 0.92524,-3.41625 1.56579,-5.76492 0.64054,-2.34867 1.13874,-4.34149 0.49821,-1.99281 0.99641,-3.84328 0.4982,-1.92164 1.28109,-4.41265 0.35586,-1.13875 1.13875,-1.63696 0.78289,-0.56937 1.70813,-0.71171 0.92523,-0.14235 1.7793,0 0.92523,0.14234 1.4946,0.35586 l -4.41265,15.58663 q 0.85406,-1.77929 1.85047,-4.05679 1.06758,-2.2775 2.20633,-4.555 1.20992,-2.34867 2.49101,-4.48383 1.35227,-2.20633 2.70453,-3.84328 1.42344,-1.63695 2.84688,-2.56219 1.42343,-0.92523 2.91804,-0.71172 2.13516,0.28469 2.98922,1.99282 0.92523,1.63695 0.92523,4.05679 0.0712,2.41985 -0.56937,5.26672 -0.56938,2.7757 -1.42344,5.33789 1.13875,-2.2775 2.56219,-4.555 1.42344,-2.34867 2.91804,-4.12797 1.56579,-1.85047 3.27391,-2.84687 1.70813,-1.06758 3.48742,-0.78289 1.92164,0.28469 2.84688,1.42343 0.9964,1.06758 1.20992,2.77571 0.28468,1.63695 -0.0712,3.62976 -0.35586,1.92164 -1.06758,3.91445 z"
       style="font-size:71.17185974px;font-family:StylishCalligraphyDemo;fill:#ffffff"
       id="path4877"
       inkscape:connector-curvature="0" /><path
       d="m 312.85285,194.35091 q 0.28469,0.28469 0.14235,0.4982 -2.20633,3.20274 -4.27032,6.40547 -2.06398,3.20274 -4.62617,6.26313 -1.42343,1.70812 -3.13156,3.41624 -1.70812,1.70813 -3.77211,3.06039 -1.63695,1.06758 -3.62976,1.63696 -1.99281,0.56937 -3.91445,0.21351 -1.92164,-0.28468 -3.48743,-1.70812 -1.56578,-1.42344 -2.20632,-4.34149 -0.49821,-2.20632 -0.35586,-4.76851 0.14234,-2.56219 0.85406,-5.12437 0.71172,-2.63336 1.85047,-5.19555 1.20992,-2.56219 2.70453,-4.69734 2.7757,-3.98563 6.04961,-5.97844 3.2739,-2.06398 6.26312,-1.70812 1.06758,0.14234 1.49461,0.85406 0.42703,0.71172 0.42703,1.70812 0.0712,0.92524 -0.21351,1.92164 -0.21352,0.99641 -0.42704,1.70813 -0.78289,2.20633 -2.2775,4.27031 -1.42343,1.99281 -3.2739,3.84328 -1.85047,1.7793 -3.98563,3.48742 -2.06398,1.63695 -4.19914,3.13156 -0.64054,2.13516 -0.9964,4.0568 -0.28469,1.92164 -0.14234,3.48742 0.14234,1.49461 0.78289,2.56219 0.64054,0.9964 1.92164,1.35226 2.84687,0.78289 6.33429,-1.49461 2.34867,-1.56578 4.555,-3.91445 2.2775,-2.34867 4.27031,-4.98203 2.06399,-2.63336 3.77211,-5.19554 1.70813,-2.56219 2.98922,-4.62618 0.14234,-0.28468 0.4982,-0.14234 z m -20.14163,-0.42703 q -0.99641,1.99281 -1.92164,4.0568 -0.85407,1.99281 -1.56579,4.05679 1.70813,-1.28109 3.5586,-2.7757 1.92164,-1.49461 3.70093,-3.20273 1.7793,-1.70813 3.20274,-3.62977 1.42343,-1.92164 2.20633,-4.05679 0.21351,-0.49821 0.42703,-1.2811 0.21351,-0.78289 0.21351,-1.56578 0,-0.78289 -0.28469,-1.35226 -0.28468,-0.64055 -0.9964,-0.85407 -0.64055,-0.14234 -1.63695,0.64055 -0.92524,0.78289 -2.13516,2.20633 -1.13875,1.42343 -2.41984,3.48742 -1.20992,1.99281 -2.34867,4.27031 z"
       style="font-size:71.17185974px;font-family:StylishCalligraphyDemo;fill:#ffffff"
       id="path4879"
       inkscape:connector-curvature="0" /></g></svg>