<?xml version="1.0" encoding="utf-8"?>
<!-- Generator: Adobe Illustrator 16.0.0, SVG Export Plug-In . SVG Version: 6.00 Build 0)  -->
<!DOCTYPE svg PUBLIC "-//W3C//DTD SVG 1.1//EN" "http://www.w3.org/Graphics/SVG/1.1/DTD/svg11.dtd">
<svg version="1.1" id="Layer_1" xmlns="http://www.w3.org/2000/svg" xmlns:xlink="http://www.w3.org/1999/xlink" x="0px" y="0px"
	 width="792px" height="612px" viewBox="0 0 792 612" enable-background="new 0 0 792 612" xml:space="preserve">
<text transform="matrix(1 0 0 1 101.0415 127.8267)" fill="#584C6D" font-family="'StylishCalligraphyDemo'" font-size="48">Homemaker        Synonymous</text>
<text transform="matrix(1 0 0 1 218.0654 181.0464)" fill="#584C6D" font-family="'Champagne&Limousines'" font-size="24">Where traditional skills meet modern lifestyles</text>
<path fill="#7B8E7D" d="M92.042,532.615"/>
<path fill="#A0BAA1" stroke="#C1D1C1" stroke-miterlimit="10" d="M392.411,74.39c0,0,18.924,47.535,0,57.693"/>
<path fill="#A0BAA1" stroke="#FFFFFF" stroke-miterlimit="10" d="M415.364,74.019c0,0-13.102,48.538-1.455,55.959
	c11.646,7.421,11.646,7.421,11.646,7.421"/>
<g>
	<path fill="#A0BAA1" d="M401.962,127.827c0,0-11.352-15.787-4.653-20.445c6.696-4.66,1.097-5.734,1.915-10.195"/>
	<g>
		<g>
			<path fill="#FFFFFF" d="M401.146,128.414c0,0-0.331-0.459-0.858-1.263s-1.258-1.965-2.068-3.4
				c-0.806-1.438-1.695-3.152-2.475-5.089c-0.766-1.936-1.478-4.103-1.546-6.489c-0.021-1.185,0.159-2.458,0.757-3.607
				c0.151-0.282,0.34-0.549,0.518-0.814c0.215-0.236,0.417-0.49,0.652-0.7c0.231-0.191,0.508-0.419,0.705-0.566l0.581-0.434
				c0.768-0.573,1.277-1.048,1.709-1.672c0.43-0.6,0.531-1.351,0.329-1.962c-0.194-0.636-0.459-1.056-0.733-1.734
				c-0.29-0.655-0.456-1.337-0.534-1.897c-0.016-0.285-0.029-0.539-0.042-0.761c0.003-0.22,0.033-0.406,0.046-0.557
				c0.033-0.302,0.051-0.463,0.051-0.463s-0.014,0.162-0.039,0.464c-0.008,0.152-0.032,0.337-0.029,0.557
				c0.018,0.22,0.038,0.472,0.062,0.754c0.093,0.555,0.274,1.223,0.582,1.864c0.289,0.661,0.591,1.098,0.821,1.758
				c0.238,0.636,0.167,1.434-0.263,2.088c-0.423,0.672-0.979,1.23-1.743,1.842l-0.578,0.462l-0.65,0.554
				c-0.212,0.202-0.391,0.443-0.584,0.665c-0.157,0.251-0.324,0.5-0.456,0.764c-0.52,1.074-0.655,2.263-0.6,3.385
				c0.134,2.26,0.886,4.349,1.697,6.213c0.823,1.867,1.751,3.522,2.588,4.911c1.688,2.771,3.013,4.473,3.013,4.473"/>
			<path fill="#FFFFFF" d="M396.413,128.109c0.322,0.784,1.059,1.385,1.962,1.499c0.809,0.095,1.589-0.188,2.056-0.772l-0.024,0.001
				c-0.054,0.002-0.109,0.004-0.17,0.006l-0.093-0.002l-0.047,0l-0.049-0.003l-0.099-0.006l-0.101-0.01
				c-0.07-0.01-0.137-0.02-0.204-0.03l-0.051-0.008l-0.05-0.011l-0.1-0.022c-0.034-0.009-0.064-0.018-0.097-0.026l-0.094-0.027
				c-0.032-0.011-0.06-0.02-0.089-0.03l-0.084-0.03c-0.055-0.018-0.104-0.042-0.151-0.062l-0.066-0.029l-0.03-0.014l-0.028-0.014
				c-0.037-0.019-0.068-0.036-0.095-0.049c-0.051-0.027-0.081-0.042-0.081-0.042s0.031,0.012,0.086,0.032
				c0.028,0.01,0.062,0.022,0.1,0.037l0.029,0.011l0.032,0.009l0.069,0.02c0.048,0.014,0.099,0.031,0.155,0.042l0.085,0.019
				c0.029,0.006,0.057,0.012,0.09,0.018l0.093,0.015c0.031,0.004,0.062,0.008,0.096,0.013l0.098,0.009l0.049,0.004l0.049,0.002
				c0.064,0.001,0.128,0.002,0.194,0.003l0.095-0.002l0.093-0.006l0.045-0.003l0.044-0.005l0.085-0.01
				c0.054-0.009,0.104-0.018,0.152-0.026l0.066-0.013l0.06-0.015l0.049-0.013c-0.358-0.705-1.036-1.216-1.89-1.334
				C397.77,127.112,397.443,127.775,396.413,128.109z"/>
			<path fill="#FFFFFF" d="M392.743,120.251c0.185,0.775,0.765,1.436,1.55,1.658c0.71,0.201,1.416,0.014,1.932-0.407l-0.022-0.001
				c-0.047-0.005-0.097-0.011-0.15-0.016l-0.082-0.013l-0.042-0.007l-0.042-0.009l-0.087-0.019l-0.088-0.022
				c-0.061-0.018-0.119-0.036-0.177-0.053l-0.044-0.015l-0.043-0.016l-0.086-0.033c-0.029-0.013-0.056-0.024-0.083-0.036
				l-0.079-0.037c-0.027-0.014-0.051-0.027-0.075-0.04l-0.071-0.039c-0.048-0.03-0.087-0.054-0.125-0.078l-0.055-0.036l-0.025-0.017
				l-0.023-0.017c-0.03-0.022-0.055-0.042-0.077-0.058c-0.042-0.032-0.067-0.05-0.067-0.05s0.026,0.015,0.073,0.042
				c0.023,0.013,0.051,0.029,0.083,0.047l0.025,0.014l0.027,0.013l0.058,0.028c0.041,0.018,0.083,0.037,0.132,0.06l0.074,0.029
				c0.024,0.01,0.049,0.019,0.077,0.029l0.081,0.026c0.027,0.008,0.053,0.016,0.083,0.025l0.085,0.021l0.043,0.011l0.043,0.008
				l0.173,0.029l0.085,0.011l0.083,0.007l0.04,0.003l0.04,0.001l0.076,0.003c0.05-0.001,0.095-0.002,0.139-0.002l0.061-0.003
				l0.055-0.005l0.045-0.004c-0.219-0.668-0.754-1.227-1.496-1.467C394.096,119.567,393.712,120.115,392.743,120.251z"/>
			<path fill="#FFFFFF" d="M391.325,110.364c-0.119,0.469-0.119,0.957-0.023,1.394c0.116,0.419,0.31,0.807,0.602,1.075
				c0.536,0.48,1.183,0.543,1.742,0.339l-0.018-0.009c-0.038-0.021-0.078-0.043-0.121-0.067l-0.064-0.041l-0.033-0.021l-0.033-0.023
				l-0.067-0.048l-0.066-0.053l-0.132-0.114l-0.032-0.03l-0.031-0.032l-0.062-0.063l-0.054-0.067l-0.052-0.068l-0.047-0.068
				l-0.044-0.067c-0.029-0.048-0.053-0.088-0.076-0.126l-0.032-0.058l-0.015-0.026l-0.013-0.026
				c-0.017-0.034-0.031-0.064-0.042-0.088c-0.023-0.049-0.037-0.077-0.037-0.077s0.016,0.025,0.044,0.071
				c0.014,0.022,0.031,0.049,0.051,0.081l0.015,0.023l0.018,0.024l0.037,0.051c0.027,0.035,0.055,0.07,0.087,0.113l0.05,0.058
				l0.052,0.059l0.057,0.058l0.059,0.057l0.062,0.054l0.032,0.026l0.034,0.024l0.136,0.091l0.068,0.041l0.067,0.037l0.033,0.018
				l0.033,0.015l0.063,0.03c0.042,0.017,0.081,0.032,0.117,0.047l0.052,0.019l0.047,0.015l0.04,0.012
				c0.018-0.674-0.205-1.376-0.677-1.967C392.658,110.43,392.118,110.762,391.325,110.364z"/>
			<path fill="#FFFFFF" d="M396.636,103.3c-0.179,0.068-0.058,0.249,0.159,0.689c0.212,0.385,0.519,0.857,0.93,1.166l-0.006-0.014
				c-0.013-0.032-0.025-0.064-0.039-0.099l-0.02-0.053l-0.01-0.027l-0.009-0.028l-0.02-0.056l-0.019-0.056l-0.034-0.111
				l-0.008-0.027l-0.007-0.027l-0.015-0.052l-0.012-0.05l-0.012-0.048l-0.01-0.045l-0.009-0.042
				c-0.005-0.029-0.01-0.053-0.014-0.075l-0.008-0.033l-0.004-0.015l-0.003-0.014c-0.003-0.018-0.006-0.033-0.008-0.045
				c-0.005-0.024-0.008-0.039-0.008-0.039s0.006,0.015,0.015,0.042c0.005,0.013,0.01,0.029,0.017,0.048l0.004,0.015l0.007,0.016
				l0.013,0.034c0.009,0.024,0.018,0.049,0.027,0.078l0.015,0.043l0.017,0.046l0.019,0.048l0.019,0.05l0.021,0.052l0.01,0.026
				l0.012,0.027l0.047,0.107l0.023,0.053l0.025,0.052l0.013,0.025l0.013,0.025l0.023,0.048c0.018,0.032,0.033,0.061,0.048,0.089
				l0.021,0.04l0.021,0.035l0.018,0.029c0.365-0.196,0.479-0.655,0.204-1.045C397.788,103.778,397.293,103.687,396.636,103.3z"/>
			<path fill="#FFFFFF" d="M396.063,96.929c-0.081,0.371-0.115,0.768-0.028,1.133c0.095,0.368,0.262,0.695,0.485,0.926
				c0.432,0.409,0.936,0.417,1.333,0.218l-0.015-0.007c-0.03-0.016-0.062-0.032-0.097-0.05l-0.052-0.031l-0.026-0.016l-0.027-0.018
				l-0.055-0.037l-0.055-0.042c-0.036-0.027-0.075-0.059-0.105-0.092l-0.023-0.025l-0.023-0.026l-0.046-0.054l-0.043-0.055
				l-0.041-0.055c-0.014-0.021-0.026-0.038-0.038-0.056l-0.035-0.055c-0.024-0.041-0.043-0.073-0.062-0.105l-0.026-0.048
				l-0.012-0.022l-0.011-0.022c-0.014-0.028-0.024-0.054-0.034-0.074c-0.02-0.042-0.03-0.065-0.03-0.065s0.013,0.022,0.036,0.06
				c0.011,0.019,0.024,0.042,0.04,0.068l0.013,0.02l0.014,0.02l0.03,0.043c0.021,0.029,0.043,0.058,0.069,0.093l0.039,0.048
				l0.042,0.048l0.044,0.047l0.047,0.046l0.048,0.043l0.024,0.022l0.024,0.02l0.102,0.075l0.052,0.032l0.054,0.028l0.026,0.014
				l0.025,0.012l0.05,0.022c0.033,0.012,0.063,0.023,0.093,0.034l0.041,0.013l0.036,0.01l0.03,0.007
				c-0.018-0.56-0.218-1.134-0.547-1.598C397.07,96.978,396.662,97.24,396.063,96.929z"/>
			<path fill="#FFFFFF" d="M402.479,119.46c0.513,0.633,0.637,1.541,0.259,2.444c-0.345,0.814-1.034,1.438-1.841,1.703l0.014-0.024
				c0.029-0.053,0.06-0.107,0.093-0.166l0.045-0.092l0.023-0.047l0.022-0.049l0.044-0.1l0.042-0.104
				c0.027-0.074,0.053-0.143,0.078-0.213l0.019-0.054l0.016-0.054l0.03-0.107c0.01-0.038,0.018-0.071,0.026-0.105l0.023-0.103
				c0.007-0.037,0.013-0.067,0.02-0.1l0.016-0.095c0.012-0.062,0.016-0.12,0.021-0.174l0.009-0.077l0.004-0.036l0.002-0.034
				c0.002-0.043,0.004-0.081,0.005-0.112c0.003-0.062,0.005-0.097,0.005-0.097s-0.007,0.036-0.018,0.098
				c-0.006,0.031-0.012,0.068-0.02,0.111l-0.007,0.034l-0.009,0.035l-0.019,0.075c-0.014,0.052-0.027,0.104-0.044,0.169
				l-0.027,0.091c-0.01,0.031-0.02,0.061-0.031,0.095l-0.035,0.098c-0.013,0.033-0.024,0.063-0.038,0.099l-0.043,0.1l-0.021,0.05
				l-0.024,0.049c-0.032,0.064-0.064,0.127-0.099,0.194l-0.052,0.094l-0.055,0.089l-0.026,0.043l-0.027,0.042l-0.054,0.08
				c-0.036,0.05-0.07,0.097-0.104,0.142l-0.047,0.061l-0.045,0.054l-0.037,0.043c-0.535-0.666-0.685-1.614-0.287-2.486
				C400.695,120.228,401.527,120.248,402.479,119.46z"/>
			<path fill="#FFFFFF" d="M399.196,113.031c0.206,0.507,0.091,1.187-0.438,1.821c-0.479,0.571-1.174,0.964-1.911,1.026l0.017-0.017
				c0.036-0.038,0.072-0.077,0.111-0.119l0.058-0.067l0.029-0.035l0.028-0.036l0.059-0.074l0.058-0.077
				c0.039-0.054,0.076-0.106,0.113-0.158l0.027-0.04l0.025-0.041l0.051-0.08c0.017-0.028,0.031-0.054,0.046-0.08l0.044-0.078
				c0.014-0.027,0.025-0.051,0.038-0.076l0.035-0.073c0.022-0.051,0.041-0.093,0.059-0.133l0.024-0.059l0.011-0.027l0.009-0.026
				c0.012-0.033,0.022-0.062,0.031-0.086c0.018-0.047,0.029-0.075,0.029-0.075s-0.015,0.026-0.04,0.072
				c-0.012,0.023-0.026,0.051-0.043,0.083l-0.013,0.025l-0.016,0.026l-0.032,0.056c-0.022,0.038-0.047,0.078-0.075,0.125
				l-0.044,0.067c-0.016,0.023-0.031,0.045-0.048,0.07l-0.052,0.071l-0.055,0.072l-0.059,0.072l-0.029,0.036l-0.031,0.035
				l-0.127,0.138l-0.064,0.066l-0.065,0.062l-0.032,0.031l-0.032,0.029l-0.062,0.055c-0.042,0.035-0.08,0.066-0.116,0.097
				l-0.052,0.041l-0.049,0.036l-0.04,0.029c-0.312-0.661-0.211-1.49,0.355-2.07C397.521,113.164,398.192,113.377,399.196,113.031z"
				/>
			<path fill="#FFFFFF" d="M400.708,108.594c-0.389,0.437-0.665,0.573-1.039,0.716c-0.181,0.062-0.368,0.102-0.556,0.115
				c-0.18,0.008-0.409,0.021-0.506-0.075c-0.467-0.279-1.041-0.686-1.346-1.217l0.019,0.008c0.041,0.017,0.082,0.034,0.127,0.052
				l0.068,0.026l0.035,0.014l0.036,0.013l0.071,0.026l0.073,0.024c0.05,0.016,0.097,0.031,0.145,0.046l0.035,0.011l0.035,0.009
				l0.068,0.019c0.021,0.007,0.045,0.01,0.074,0.011l0.081,0.005c0.028,0,0.054,0.001,0.079,0.001h0.075
				c0.053-0.003,0.097-0.005,0.138-0.007l0.062-0.004l0.028-0.002l0.027-0.004c0.034-0.005,0.064-0.009,0.089-0.013
				c0.049-0.007,0.078-0.011,0.078-0.011s-0.029,0-0.079,0.001c-0.024,0-0.055,0.001-0.09,0.001l-0.026,0l-0.028-0.002l-0.061-0.003
				c-0.041-0.003-0.084-0.006-0.136-0.011l-0.072-0.009c-0.024-0.003-0.049-0.007-0.076-0.011l-0.077-0.015
				c-0.025-0.005-0.05-0.011-0.078-0.017c-0.025-0.007-0.054-0.013-0.074-0.023l-0.033-0.014l-0.033-0.015l-0.135-0.062
				l-0.067-0.032l-0.064-0.033l-0.032-0.016l-0.031-0.017l-0.061-0.032c-0.039-0.022-0.075-0.043-0.11-0.063l-0.049-0.028
				l-0.043-0.027l-0.035-0.023c0.384-0.443,1.117-0.656,1.828-0.506C399.837,107.479,399.894,108.128,400.708,108.594z"/>
			<path fill="#FFFFFF" d="M401.339,98.42c0.148,0.269,0.038,0.636-0.273,1.113c-0.281,0.422-0.738,0.754-1.236,0.85l0.011-0.013
				c0.021-0.029,0.043-0.06,0.067-0.092l0.034-0.051l0.019-0.026l0.017-0.027l0.035-0.056l0.033-0.058l0.062-0.119l0.016-0.03
				l0.014-0.03l0.027-0.06c0.009-0.021,0.016-0.04,0.024-0.059l0.025-0.056c0.009-0.021,0.017-0.037,0.024-0.055l0.021-0.052
				c0.014-0.036,0.025-0.065,0.036-0.094l0.015-0.042l0.007-0.019l0.006-0.018c0.007-0.023,0.013-0.043,0.018-0.06
				c0.01-0.033,0.015-0.051,0.015-0.051s-0.008,0.019-0.022,0.05c-0.007,0.016-0.016,0.036-0.026,0.058l-0.008,0.018l-0.01,0.019
				l-0.021,0.04c-0.015,0.027-0.029,0.055-0.048,0.089l-0.027,0.049l-0.03,0.051l-0.033,0.052l-0.034,0.054l-0.033,0.054
				l-0.017,0.027l-0.019,0.027l-0.074,0.105l-0.039,0.051l-0.039,0.048l-0.019,0.023l-0.021,0.022l-0.038,0.043
				c-0.025,0.027-0.05,0.052-0.072,0.077l-0.033,0.033l-0.031,0.028l-0.025,0.023c-0.281-0.441-0.257-1.069,0.139-1.472
				C400.172,98.489,400.643,98.634,401.339,98.42z"/>
		</g>
	</g>
</g>
<g>
	<path fill="#A0BAA1" d="M414.189,125.4c0,0-6.812-6.123,1.392-14.476c8.203-8.353,0.717-15.75,0.717-15.75"/>
	<g>
		<g>
			<path fill="#FFFFFF" d="M413.517,126.148c-0.033-0.034-0.49-0.434-1.093-1.268c-0.593-0.83-1.352-2.133-1.701-3.894
				c-0.367-1.746-0.18-3.932,0.72-5.917c0.224-0.493,0.502-0.963,0.76-1.455c0.271-0.48,0.62-0.908,0.934-1.37
				c0.303-0.474,0.702-0.856,1.063-1.28l1.061-1.202c1.393-1.452,2.423-3.184,2.869-4.918c0.474-1.735,0.305-3.445-0.14-4.818
				c-0.913-2.779-2.494-4.201-2.398-4.138c-0.096-0.059,1.534,1.295,2.565,4.086c0.502,1.379,0.744,3.136,0.315,4.959
				c-0.399,1.821-1.414,3.663-2.798,5.207c-0.631,0.813-1.418,1.625-2.006,2.502c-0.286,0.453-0.608,0.874-0.852,1.338
				c-0.228,0.474-0.478,0.927-0.673,1.396c-0.78,1.89-0.872,3.869-0.494,5.425c0.365,1.57,1.086,2.722,1.644,3.451
				c0.567,0.731,0.973,1.061,0.973,1.061"/>
			<path fill="#FFFFFF" d="M408.4,125.555c0.41,1.096,1.405,1.935,2.455,2.088c0.936,0.128,1.783-0.207,2.031-0.953l-0.029,0.001
				c-0.066,0-0.126,0.005-0.188,0.013l-0.1,0.005l-0.052,0.002h-0.054l-0.109-0.002l-0.114-0.008
				c-0.077-0.008-0.15-0.016-0.224-0.024l-0.057-0.008l-0.056-0.011l-0.112-0.022c-0.04-0.01-0.075-0.019-0.111-0.028l-0.107-0.029
				c-0.038-0.012-0.07-0.022-0.104-0.033l-0.096-0.035c-0.062-0.021-0.119-0.05-0.173-0.073l-0.077-0.035l-0.035-0.016l-0.033-0.018
				c-0.042-0.023-0.08-0.043-0.11-0.06c-0.061-0.033-0.096-0.052-0.096-0.052s0.036,0.015,0.1,0.041
				c0.031,0.013,0.069,0.028,0.113,0.045l0.033,0.013l0.037,0.012l0.077,0.025c0.054,0.017,0.111,0.037,0.174,0.05l0.094,0.022
				c0.032,0.007,0.063,0.013,0.099,0.021l0.105,0.016c0.034,0.004,0.068,0.008,0.106,0.013l0.106,0.008l0.054,0.003l0.053,0
				c0.07,0,0.141,0.002,0.207-0.004l0.1-0.007l0.096-0.012l0.047-0.006l0.047-0.008l0.089-0.016c0.056-0.014,0.107-0.027,0.156-0.04
				l0.067-0.02l0.06-0.021l0.048-0.019c-0.563-0.727-1.264-1.251-2.181-1.482C409.805,124.627,409.488,125.349,408.4,125.555z"/>
			<path fill="#FFFFFF" d="M408.191,114.123c-0.231,0.431-0.38,0.921-0.409,1.398c0.005,0.506,0.121,0.991,0.351,1.382
				c0.406,0.707,1.125,0.953,1.78,0.869l-0.018-0.016c-0.04-0.033-0.072-0.069-0.111-0.108l-0.056-0.063l-0.028-0.033l-0.028-0.035
				l-0.056-0.072l-0.055-0.078l-0.104-0.165l-0.025-0.043l-0.022-0.044l-0.045-0.089c-0.015-0.032-0.028-0.061-0.041-0.09
				l-0.038-0.089c-0.012-0.032-0.022-0.06-0.033-0.088l-0.03-0.087c-0.019-0.062-0.033-0.113-0.048-0.162l-0.02-0.073l-0.009-0.034
				l-0.008-0.033c-0.008-0.042-0.016-0.08-0.021-0.11c-0.012-0.061-0.019-0.096-0.019-0.096s0.01,0.033,0.028,0.092
				c0.01,0.029,0.021,0.064,0.034,0.104l0.01,0.031l0.013,0.032l0.027,0.068c0.02,0.045,0.04,0.093,0.063,0.15l0.039,0.079
				c0.014,0.026,0.026,0.051,0.041,0.08l0.047,0.08c0.016,0.026,0.031,0.051,0.049,0.08l0.052,0.078l0.027,0.039l0.028,0.037
				l0.115,0.141l0.06,0.065l0.061,0.06l0.029,0.029l0.03,0.026l0.059,0.051c0.039,0.03,0.076,0.058,0.111,0.084l0.05,0.035
				l0.046,0.03l0.039,0.023c0.25-0.739,0.164-1.575-0.157-2.304C409.639,114.569,408.966,114.748,408.191,114.123z"/>
			<path fill="#FFFFFF" d="M413.693,107.047c-0.402,0.276-0.548,0.792-0.385,1.438c0.088,0.277,0.166,0.608,0.334,0.86
				c0.162,0.256,0.383,0.464,0.637,0.612l-0.005-0.02c-0.011-0.042-0.021-0.086-0.033-0.133l-0.015-0.074l-0.007-0.038l-0.006-0.039
				l-0.012-0.081l-0.016-0.076c-0.009-0.053-0.018-0.103-0.026-0.153l-0.007-0.039l-0.004-0.038l-0.009-0.075l-0.006-0.073
				l-0.005-0.071l-0.002-0.067l-0.001-0.064c0.001-0.044,0.002-0.081,0.003-0.115l0.002-0.05l0.001-0.023l0.003-0.021
				c0.003-0.027,0.006-0.052,0.008-0.072c0.004-0.039,0.007-0.062,0.007-0.062s0,0.023,0.001,0.065
				c0.001,0.021,0.001,0.045,0.002,0.074l0.001,0.022l0.002,0.024l0.004,0.051c0.004,0.036,0.007,0.073,0.012,0.116l0.009,0.064
				c0.003,0.021,0.007,0.042,0.01,0.066l0.014,0.069l0.014,0.071l0.018,0.072l0.009,0.036l0.01,0.037l0.043,0.144l0.023,0.071
				l0.024,0.068l0.013,0.033l0.013,0.032l0.025,0.062c0.017,0.042,0.031,0.081,0.046,0.117l0.021,0.051l0.021,0.045l0.018,0.037
				c0.438-0.368,0.638-0.95,0.478-1.562C414.806,107.815,414.246,107.687,413.693,107.047z"/>
			<path fill="#FFFFFF" d="M415.838,102.478c-0.138,0.331,0.117,0.672,0.524,0.988c0.384,0.281,0.918,0.475,1.432,0.459
				l-0.014-0.009c-0.029-0.021-0.059-0.042-0.09-0.063l-0.048-0.036l-0.023-0.018l-0.024-0.02l-0.049-0.04l-0.047-0.041
				l-0.092-0.085l-0.022-0.021l-0.021-0.022l-0.042-0.043l-0.038-0.043l-0.037-0.042l-0.033-0.041l-0.03-0.04
				c-0.024-0.028-0.045-0.051-0.063-0.073l-0.027-0.033l-0.013-0.015l-0.011-0.014c-0.014-0.019-0.025-0.035-0.035-0.048
				c-0.02-0.026-0.03-0.042-0.03-0.042s0.014,0.014,0.037,0.039c0.012,0.012,0.026,0.027,0.043,0.045l0.013,0.013l0.016,0.014
				l0.031,0.03c0.022,0.021,0.047,0.042,0.074,0.067l0.04,0.036l0.039,0.037l0.042,0.037l0.044,0.038l0.047,0.038l0.023,0.019
				l0.024,0.018l0.101,0.072l0.05,0.034l0.051,0.032l0.025,0.016l0.024,0.015l0.049,0.029c0.032,0.018,0.062,0.034,0.091,0.049
				l0.041,0.021l0.037,0.018l0.031,0.014c0.185-0.426-0.055-0.931-0.496-1.216C417.015,102.365,416.566,102.571,415.838,102.478z"/>
			<path fill="#FFFFFF" d="M414.097,97.465c0.116,0.249,0.477,0.439,0.954,0.404c0.438-0.035,0.873-0.217,1.187-0.536l-0.015,0.002
				c-0.03,0.003-0.061,0.007-0.094,0.011l-0.052,0.003l-0.026,0.002l-0.027,0.001l-0.056,0.003l-0.057,0.001l-0.113-0.001
				l-0.028-0.001l-0.027-0.001l-0.056-0.004l-0.053-0.006l-0.051-0.006l-0.048-0.007l-0.046-0.008
				c-0.032-0.007-0.057-0.013-0.081-0.018l-0.036-0.008l-0.016-0.004l-0.016-0.005c-0.019-0.006-0.035-0.011-0.049-0.016
				c-0.027-0.009-0.043-0.014-0.043-0.014s0.017,0.003,0.046,0.008c0.015,0.002,0.032,0.005,0.053,0.009l0.016,0.003l0.018,0.001
				l0.037,0.004c0.025,0.002,0.052,0.004,0.084,0.007l0.047,0.002l0.049,0.001l0.052,0l0.053-0.001l0.054-0.002l0.027-0.001
				l0.027-0.002l0.11-0.012l0.054-0.007l0.053-0.009l0.025-0.004l0.025-0.005l0.049-0.01c0.031-0.008,0.061-0.015,0.088-0.022
				l0.039-0.01l0.034-0.011l0.028-0.009c-0.179-0.363-0.578-0.597-1.046-0.535C414.799,96.738,414.627,97.112,414.097,97.465z"/>
			<path fill="#FFFFFF" d="M416.327,119.112c0.073,0.189,0.07,0.359-0.094,0.566c-0.102,0.2-0.368,0.437-0.692,0.708
				c-0.579,0.482-1.388,0.977-2.214,1.104l0.02-0.019c0.041-0.041,0.084-0.083,0.13-0.129l0.067-0.071l0.035-0.036l0.034-0.038
				l0.069-0.076l0.067-0.078c0.045-0.054,0.088-0.105,0.131-0.157l0.031-0.039l0.029-0.04l0.059-0.077
				c0.021-0.027,0.041-0.051,0.061-0.076l0.06-0.074c0.02-0.026,0.036-0.047,0.054-0.07l0.05-0.067
				c0.033-0.047,0.059-0.083,0.085-0.12l0.035-0.052l0.017-0.024l0.014-0.023c0.017-0.029,0.032-0.054,0.044-0.075
				c0.025-0.041,0.039-0.064,0.039-0.064s-0.019,0.023-0.051,0.062c-0.016,0.02-0.035,0.044-0.058,0.073l-0.018,0.021l-0.021,0.023
				l-0.044,0.049c-0.032,0.035-0.063,0.07-0.103,0.114l-0.06,0.062c-0.021,0.021-0.04,0.042-0.062,0.065l-0.068,0.067l-0.071,0.07
				l-0.075,0.071l-0.034,0.035l-0.036,0.035l-0.146,0.138l-0.074,0.068l-0.075,0.064l-0.036,0.032l-0.037,0.031l-0.071,0.059
				c-0.048,0.037-0.093,0.072-0.135,0.105l-0.062,0.045l-0.056,0.04l-0.047,0.032c-0.377-0.664-0.139-1.562,0.602-2.03
				C414.369,118.961,415.116,119.25,416.327,119.112z"/>
			<path fill="#FFFFFF" d="M417.958,114.14c-0.149,0.275-0.383,0.482-0.689,0.613c-0.294,0.134-0.609,0.206-1.019,0.185
				c-0.724-0.038-1.481-0.341-1.992-0.86l0.023,0.003c0.052,0.005,0.105,0.01,0.163,0.015l0.088,0.004l0.046,0.002l0.046,0.001
				l0.094,0.001l0.095-0.001c0.065-0.003,0.129-0.005,0.19-0.008l0.048-0.003l0.046-0.005l0.092-0.01
				c0.031-0.004,0.06-0.008,0.089-0.012l0.085-0.013c0.029-0.005,0.055-0.01,0.081-0.016l0.076-0.016
				c0.052-0.013,0.095-0.024,0.135-0.035l0.06-0.017l0.027-0.007l0.024-0.009c0.032-0.011,0.06-0.021,0.083-0.029
				c0.045-0.016,0.071-0.025,0.071-0.025s-0.028,0.005-0.076,0.015c-0.024,0.005-0.055,0.011-0.089,0.018l-0.025,0.005l-0.029,0.004
				l-0.062,0.008c-0.043,0.005-0.088,0.01-0.141,0.016l-0.078,0.006c-0.026,0.001-0.053,0.003-0.082,0.005l-0.085,0.002
				c-0.029,0-0.058,0-0.089,0.001l-0.091-0.002l-0.046,0l-0.046-0.003l-0.184-0.014l-0.091-0.009l-0.088-0.013l-0.043-0.006
				l-0.043-0.008l-0.081-0.014c-0.053-0.011-0.102-0.022-0.148-0.032l-0.065-0.016l-0.059-0.016l-0.048-0.014
				c0.158-0.316,0.404-0.588,0.705-0.772c0.318-0.174,0.716-0.246,1.119-0.213C416.792,112.93,417.044,113.592,417.958,114.14z"/>
			<path fill="#FFFFFF" d="M422.258,104.834c0.02,0.873-0.547,1.669-1.25,2.007c-0.637,0.311-1.333,0.146-1.829-0.209l0.021-0.002
				c0.045-0.008,0.091-0.016,0.141-0.024l0.073-0.019l0.037-0.01l0.038-0.012l0.076-0.025l0.078-0.03
				c0.055-0.024,0.105-0.047,0.157-0.069l0.038-0.019l0.038-0.021l0.076-0.042c0.025-0.016,0.049-0.03,0.072-0.044l0.07-0.045
				c0.023-0.017,0.044-0.032,0.065-0.047l0.062-0.047c0.042-0.035,0.077-0.064,0.11-0.092l0.049-0.042l0.021-0.02l0.021-0.02
				c0.025-0.026,0.048-0.048,0.066-0.067c0.037-0.037,0.059-0.059,0.059-0.059s-0.024,0.019-0.064,0.051
				c-0.021,0.016-0.045,0.035-0.074,0.058l-0.021,0.017l-0.024,0.017l-0.052,0.035c-0.036,0.023-0.074,0.047-0.119,0.075
				l-0.065,0.038l-0.069,0.037l-0.072,0.035l-0.074,0.034l-0.077,0.03l-0.038,0.015l-0.039,0.013l-0.156,0.046l-0.076,0.019
				l-0.075,0.014l-0.036,0.007l-0.037,0.005l-0.069,0.009c-0.045,0.003-0.087,0.006-0.127,0.009l-0.056,0.002l-0.051,0l-0.041-0.001
				c0.094-0.648,0.584-1.181,1.195-1.557C420.88,104.486,421.343,104.93,422.258,104.834z"/>
			<path fill="#FFFFFF" d="M419.011,95.061c0.437,0.447,0.629,1.125,0.413,1.726c-0.186,0.54-0.626,0.877-1.121,1.008l0.009-0.014
				c0.019-0.031,0.038-0.062,0.059-0.097l0.028-0.055l0.016-0.028l0.014-0.03l0.027-0.06l0.025-0.063
				c0.017-0.045,0.031-0.088,0.047-0.131l0.011-0.034l0.009-0.034l0.018-0.067c0.006-0.024,0.01-0.045,0.015-0.067l0.013-0.065
				c0.004-0.023,0.007-0.043,0.01-0.064l0.008-0.062c0.004-0.044,0.007-0.079,0.01-0.113l0.002-0.051l0.002-0.023v-0.022
				c-0.001-0.029-0.001-0.054-0.001-0.074c-0.003-0.04-0.004-0.063-0.004-0.063s-0.002,0.023-0.004,0.063
				c-0.003,0.021-0.006,0.045-0.009,0.073l-0.002,0.021l-0.005,0.023l-0.009,0.049c-0.007,0.034-0.014,0.068-0.022,0.11
				l-0.015,0.059c-0.006,0.02-0.012,0.039-0.018,0.061l-0.02,0.062l-0.022,0.062l-0.025,0.062l-0.013,0.031l-0.014,0.031
				l-0.06,0.119l-0.031,0.057l-0.033,0.053l-0.017,0.026l-0.017,0.025l-0.033,0.047c-0.022,0.03-0.044,0.057-0.064,0.083
				l-0.029,0.036l-0.028,0.031l-0.023,0.025c-0.301-0.414-0.405-0.959-0.245-1.528C418.024,95.664,418.529,95.635,419.011,95.061z"
				/>
		</g>
	</g>
</g>
<path fill="#A0BAA1" d="M426.716,59.778c-2.114,0.042-4.166,1.19-5.291,3.194c-1.016,1.806-1.044,3.896-0.258,5.63
	c0.007-0.02,0.014-0.039,0.021-0.06c0.043-0.127,0.102-0.26,0.156-0.403c0.031-0.07,0.062-0.142,0.096-0.215
	c0.016-0.037,0.033-0.074,0.051-0.11c0.018-0.037,0.035-0.074,0.055-0.111c0.037-0.074,0.075-0.15,0.115-0.226
	c0.038-0.075,0.082-0.15,0.124-0.227c0.083-0.152,0.181-0.3,0.274-0.449c0.023-0.037,0.046-0.075,0.07-0.111l0.076-0.106
	c0.051-0.072,0.102-0.142,0.152-0.212c0.047-0.072,0.104-0.136,0.156-0.202c0.053-0.065,0.104-0.131,0.154-0.194
	c0.05-0.065,0.105-0.122,0.158-0.181c0.053-0.058,0.105-0.115,0.155-0.169c0.097-0.113,0.202-0.207,0.294-0.297
	c0.047-0.044,0.091-0.087,0.133-0.128c0.021-0.02,0.041-0.041,0.062-0.06c0.021-0.018,0.041-0.036,0.061-0.053
	c0.08-0.067,0.148-0.125,0.208-0.174c0.112-0.096,0.177-0.151,0.177-0.151s-0.058,0.063-0.158,0.173
	c-0.051,0.055-0.111,0.122-0.182,0.199c-0.018,0.019-0.037,0.039-0.055,0.059c-0.018,0.022-0.035,0.044-0.053,0.068
	c-0.037,0.045-0.076,0.092-0.116,0.143c-0.077,0.101-0.169,0.204-0.25,0.327c-0.042,0.06-0.086,0.121-0.13,0.183
	c-0.042,0.063-0.09,0.125-0.13,0.195c-0.042,0.067-0.083,0.136-0.127,0.206c-0.042,0.069-0.088,0.138-0.126,0.213
	c-0.039,0.072-0.08,0.146-0.119,0.22l-0.059,0.111c-0.02,0.038-0.037,0.076-0.055,0.114c-0.07,0.152-0.146,0.302-0.204,0.456
	c-0.031,0.076-0.063,0.152-0.091,0.226c-0.027,0.076-0.055,0.151-0.08,0.225c-0.014,0.036-0.025,0.072-0.039,0.108
	c-0.012,0.036-0.021,0.073-0.032,0.109c-0.021,0.071-0.042,0.141-0.063,0.208c-0.034,0.138-0.072,0.266-0.097,0.386
	c-0.013,0.06-0.024,0.117-0.037,0.171c-0.009,0.055-0.018,0.107-0.028,0.156c-0.007,0.045-0.014,0.088-0.02,0.128
	c2.038-0.113,3.99-1.25,5.076-3.185C427.869,63.957,426.579,62.558,426.716,59.778z"/>
<path fill="#A0BAA1" d="M425.694,71.955c-2.763,1.562-4.654,4.538-4.714,7.983c-0.055,3.108,1.396,5.887,3.669,7.617
	c-0.006-0.031-0.01-0.062-0.015-0.095c-0.033-0.198-0.053-0.415-0.081-0.644c-0.009-0.114-0.016-0.232-0.026-0.352
	c-0.005-0.061-0.009-0.122-0.013-0.182c-0.003-0.062-0.004-0.124-0.006-0.187c-0.004-0.124-0.01-0.251-0.012-0.378
	c-0.001-0.129,0.004-0.258,0.006-0.389c0.002-0.261,0.021-0.526,0.041-0.788c0.005-0.065,0.008-0.132,0.016-0.197l0.024-0.196
	c0.016-0.13,0.033-0.259,0.048-0.388c0.016-0.129,0.041-0.253,0.062-0.378c0.023-0.124,0.048-0.247,0.068-0.367
	c0.021-0.121,0.051-0.238,0.08-0.352c0.027-0.114,0.059-0.225,0.084-0.333c0.051-0.217,0.117-0.418,0.176-0.602
	c0.027-0.092,0.058-0.181,0.084-0.265c0.014-0.041,0.026-0.083,0.041-0.122c0.014-0.039,0.027-0.076,0.042-0.113
	c0.058-0.146,0.106-0.272,0.149-0.377c0.08-0.208,0.128-0.328,0.128-0.328s-0.031,0.125-0.088,0.343
	c-0.028,0.108-0.062,0.24-0.099,0.392c-0.01,0.037-0.02,0.077-0.027,0.116c-0.01,0.041-0.016,0.083-0.023,0.126
	c-0.018,0.086-0.035,0.176-0.051,0.271c-0.034,0.188-0.076,0.391-0.099,0.61c-0.011,0.109-0.026,0.221-0.04,0.335
	c-0.013,0.113-0.029,0.23-0.033,0.35c-0.006,0.118-0.015,0.239-0.021,0.361c-0.007,0.123-0.018,0.246-0.016,0.372
	c0.002,0.124,0.002,0.249,0.002,0.375v0.189c0,0.063,0.005,0.126,0.008,0.188c0.015,0.251,0.027,0.502,0.057,0.748
	c0.014,0.122,0.023,0.245,0.041,0.364c0.016,0.119,0.035,0.236,0.055,0.353c0.008,0.057,0.016,0.114,0.023,0.171
	c0.013,0.056,0.025,0.112,0.035,0.167c0.023,0.11,0.045,0.216,0.064,0.321c0.055,0.206,0.096,0.402,0.148,0.578
	c0.027,0.087,0.051,0.172,0.074,0.252c0.026,0.079,0.049,0.154,0.072,0.225c0.022,0.065,0.045,0.126,0.064,0.183
	c2.612-1.601,4.379-4.491,4.436-7.818C430.189,76.651,427.492,75.721,425.694,71.955z"/>
<path fill="#A0BAA1" d="M410.772,62.504c-3.125-0.546-6.477,0.553-8.709,3.178c-2.014,2.368-2.656,5.436-2,8.215
	c0.018-0.027,0.034-0.053,0.05-0.082c0.101-0.174,0.224-0.354,0.347-0.548c0.066-0.094,0.135-0.19,0.203-0.289
	c0.033-0.05,0.068-0.099,0.104-0.148c0.039-0.049,0.077-0.098,0.115-0.147c0.075-0.099,0.152-0.2,0.231-0.3
	c0.081-0.101,0.167-0.197,0.251-0.297c0.168-0.2,0.349-0.393,0.531-0.583c0.046-0.048,0.09-0.097,0.137-0.143l0.143-0.136
	c0.096-0.09,0.191-0.178,0.285-0.269c0.092-0.09,0.191-0.17,0.288-0.252c0.095-0.081,0.192-0.161,0.285-0.241
	c0.093-0.081,0.19-0.151,0.284-0.221s0.188-0.137,0.276-0.204c0.178-0.135,0.356-0.248,0.519-0.354
	c0.081-0.053,0.158-0.103,0.232-0.151c0.037-0.023,0.073-0.047,0.108-0.069c0.036-0.021,0.07-0.041,0.105-0.061
	c0.138-0.075,0.255-0.142,0.355-0.197c0.193-0.108,0.306-0.171,0.306-0.171s-0.104,0.076-0.285,0.209
	c-0.09,0.066-0.199,0.146-0.324,0.241c-0.032,0.022-0.064,0.047-0.096,0.071c-0.033,0.027-0.064,0.055-0.1,0.083
	c-0.067,0.056-0.138,0.114-0.211,0.177c-0.145,0.125-0.305,0.254-0.463,0.409c-0.077,0.078-0.16,0.153-0.242,0.234
	c-0.083,0.079-0.169,0.159-0.25,0.248c-0.079,0.088-0.162,0.176-0.244,0.267c-0.084,0.09-0.169,0.178-0.248,0.277
	c-0.077,0.097-0.156,0.193-0.237,0.291l-0.119,0.146c-0.039,0.049-0.075,0.101-0.112,0.152c-0.15,0.204-0.299,0.404-0.432,0.613
	c-0.066,0.104-0.137,0.204-0.199,0.307c-0.064,0.103-0.122,0.206-0.182,0.307c-0.029,0.049-0.06,0.099-0.09,0.148
	c-0.026,0.05-0.053,0.101-0.078,0.151c-0.053,0.098-0.104,0.194-0.154,0.288c-0.089,0.193-0.181,0.371-0.252,0.542
	c-0.035,0.084-0.07,0.164-0.104,0.242c-0.03,0.077-0.059,0.15-0.086,0.22c-0.024,0.064-0.046,0.126-0.065,0.182
	c3.033,0.42,6.232-0.692,8.389-3.227C411.267,68.987,409.772,66.556,410.772,62.504z"/>
<path fill="#A0BAA1" d="M374.071,79.935c-0.842,3.059-0.067,6.5,2.333,8.972c2.166,2.231,5.158,3.164,7.988,2.774
	c-0.026-0.019-0.05-0.037-0.078-0.057c-0.164-0.117-0.331-0.257-0.513-0.397c-0.087-0.075-0.176-0.152-0.268-0.23
	c-0.046-0.039-0.092-0.079-0.138-0.119c-0.045-0.042-0.091-0.084-0.136-0.127c-0.091-0.084-0.184-0.171-0.276-0.259
	c-0.093-0.089-0.18-0.185-0.272-0.278c-0.184-0.186-0.358-0.385-0.529-0.584c-0.044-0.05-0.088-0.099-0.129-0.149l-0.122-0.155
	c-0.081-0.104-0.159-0.208-0.24-0.309c-0.081-0.1-0.151-0.208-0.223-0.311c-0.072-0.104-0.142-0.208-0.213-0.307
	c-0.071-0.1-0.131-0.204-0.193-0.304c-0.061-0.1-0.118-0.201-0.176-0.295c-0.118-0.188-0.213-0.377-0.303-0.549
	c-0.045-0.085-0.087-0.168-0.128-0.247c-0.02-0.039-0.041-0.077-0.059-0.114c-0.018-0.038-0.034-0.074-0.05-0.111
	c-0.062-0.144-0.117-0.267-0.162-0.371c-0.089-0.204-0.142-0.322-0.142-0.322s0.066,0.111,0.182,0.305
	c0.057,0.095,0.126,0.212,0.208,0.347c0.02,0.032,0.041,0.067,0.063,0.102c0.023,0.034,0.048,0.069,0.073,0.105
	c0.05,0.072,0.101,0.148,0.156,0.227c0.11,0.157,0.225,0.329,0.364,0.5c0.069,0.085,0.137,0.175,0.209,0.264
	c0.071,0.09,0.142,0.184,0.224,0.272c0.08,0.088,0.159,0.178,0.242,0.27c0.082,0.091,0.162,0.185,0.252,0.272
	c0.089,0.087,0.177,0.175,0.266,0.265l0.134,0.133c0.045,0.043,0.093,0.084,0.141,0.126c0.188,0.167,0.374,0.336,0.568,0.488
	c0.098,0.076,0.19,0.156,0.287,0.229c0.097,0.072,0.193,0.141,0.289,0.209c0.046,0.035,0.093,0.069,0.14,0.103
	c0.048,0.031,0.095,0.062,0.143,0.093c0.093,0.062,0.184,0.122,0.272,0.182c0.184,0.106,0.353,0.215,0.515,0.302
	c0.081,0.043,0.157,0.085,0.231,0.126c0.074,0.037,0.144,0.073,0.211,0.106c0.062,0.031,0.121,0.058,0.175,0.083
	c0.708-2.979-0.094-6.27-2.413-8.657C380.572,80.061,378.009,81.317,374.071,79.935z"/>
<path fill="#A0BAA1" d="M394.965,50.289c-3.06,0.841-5.621,3.266-6.519,6.593c-0.811,3.001-0.082,6.05,1.7,8.283
	c0.002-0.032,0.006-0.062,0.009-0.096c0.017-0.201,0.051-0.416,0.079-0.644c0.02-0.113,0.041-0.229,0.06-0.348
	c0.01-0.06,0.021-0.12,0.032-0.179c0.014-0.061,0.026-0.121,0.04-0.182c0.026-0.121,0.053-0.246,0.082-0.37
	c0.03-0.126,0.067-0.249,0.1-0.375c0.066-0.253,0.148-0.505,0.232-0.754c0.021-0.063,0.04-0.126,0.062-0.188l0.072-0.184
	c0.047-0.122,0.097-0.243,0.142-0.364c0.046-0.121,0.101-0.235,0.153-0.35c0.052-0.114,0.105-0.229,0.156-0.34
	c0.05-0.111,0.107-0.217,0.162-0.321c0.055-0.104,0.112-0.204,0.164-0.303c0.102-0.197,0.216-0.375,0.317-0.541
	c0.05-0.082,0.1-0.16,0.146-0.236c0.023-0.037,0.046-0.074,0.069-0.108c0.023-0.035,0.046-0.068,0.069-0.1
	c0.092-0.126,0.17-0.238,0.237-0.33c0.129-0.18,0.204-0.285,0.204-0.285s-0.062,0.113-0.169,0.311
	c-0.053,0.098-0.117,0.217-0.191,0.356c-0.019,0.034-0.037,0.069-0.056,0.105c-0.018,0.038-0.035,0.077-0.053,0.117
	c-0.037,0.08-0.076,0.163-0.115,0.25c-0.078,0.174-0.168,0.361-0.244,0.567c-0.038,0.103-0.081,0.208-0.121,0.315
	c-0.041,0.107-0.084,0.216-0.119,0.331c-0.035,0.114-0.072,0.229-0.108,0.346c-0.037,0.117-0.076,0.233-0.105,0.356
	c-0.028,0.121-0.06,0.242-0.091,0.364l-0.046,0.184c-0.014,0.061-0.024,0.123-0.037,0.185c-0.048,0.248-0.098,0.494-0.129,0.738
	c-0.016,0.123-0.037,0.243-0.05,0.363c-0.012,0.121-0.021,0.239-0.032,0.356c-0.006,0.057-0.012,0.115-0.017,0.171
	c-0.002,0.058-0.004,0.115-0.007,0.171c-0.005,0.111-0.011,0.22-0.016,0.327c0.002,0.212-0.005,0.413,0.003,0.597
	c0.004,0.091,0.006,0.179,0.009,0.264c0.006,0.082,0.01,0.161,0.016,0.235c0.005,0.068,0.012,0.134,0.018,0.193
	c2.923-0.915,5.341-3.287,6.208-6.5C398.18,55.94,395.79,54.381,394.965,50.289z"/>
<path fill="#A0BAA1" d="M386.967,67.197c-2.037,0.575-3.732,2.204-4.315,4.427c-0.526,2.005-0.025,4.033,1.173,5.512
	c0.001-0.021,0.003-0.04,0.005-0.063c0.009-0.134,0.032-0.277,0.049-0.43c0.013-0.075,0.025-0.153,0.039-0.232
	c0.007-0.04,0.013-0.08,0.021-0.12c0.008-0.039,0.017-0.08,0.025-0.121c0.018-0.081,0.035-0.164,0.054-0.248
	c0.019-0.083,0.042-0.167,0.064-0.25c0.041-0.169,0.098-0.336,0.151-0.504c0.014-0.041,0.026-0.084,0.041-0.125l0.047-0.123
	c0.031-0.082,0.062-0.164,0.093-0.244c0.028-0.082,0.067-0.158,0.101-0.235c0.034-0.076,0.067-0.153,0.103-0.227
	c0.031-0.076,0.07-0.145,0.106-0.215c0.037-0.069,0.073-0.137,0.107-0.203c0.065-0.133,0.144-0.251,0.209-0.362
	c0.034-0.054,0.066-0.108,0.097-0.158c0.016-0.025,0.03-0.049,0.045-0.073c0.016-0.023,0.03-0.045,0.046-0.066
	c0.06-0.084,0.112-0.159,0.156-0.221c0.085-0.121,0.134-0.191,0.134-0.191s-0.041,0.076-0.111,0.208
	c-0.034,0.067-0.077,0.146-0.126,0.238c-0.012,0.022-0.024,0.047-0.037,0.071c-0.012,0.026-0.023,0.051-0.035,0.079
	c-0.024,0.053-0.049,0.108-0.075,0.167c-0.051,0.117-0.112,0.241-0.16,0.379c-0.026,0.069-0.052,0.139-0.079,0.211
	s-0.056,0.144-0.077,0.221c-0.023,0.076-0.047,0.153-0.071,0.23c-0.024,0.079-0.05,0.156-0.068,0.239
	c-0.019,0.08-0.04,0.162-0.06,0.243l-0.029,0.123c-0.009,0.041-0.016,0.082-0.024,0.124c-0.029,0.165-0.064,0.329-0.082,0.493
	c-0.011,0.081-0.022,0.162-0.031,0.242c-0.007,0.08-0.014,0.159-0.02,0.237c-0.003,0.038-0.007,0.077-0.01,0.115
	c-0.001,0.039-0.002,0.076-0.003,0.113c-0.004,0.075-0.006,0.147-0.01,0.218c0.002,0.142-0.003,0.275,0.005,0.398
	c0.003,0.061,0.005,0.119,0.008,0.175c0.004,0.055,0.008,0.108,0.011,0.158c0.004,0.045,0.008,0.088,0.013,0.129
	c1.944-0.625,3.546-2.217,4.109-4.363C389.136,70.951,387.536,69.921,386.967,67.197z"/>
<path fill="#A0BAA1" d="M406.271,47.333c-0.991,1.868-0.987,4.22,0.215,6.178c1.084,1.766,2.896,2.807,4.793,2.964
	c-0.014-0.015-0.025-0.031-0.041-0.048c-0.09-0.099-0.178-0.215-0.275-0.333c-0.046-0.062-0.094-0.125-0.142-0.188
	c-0.024-0.032-0.048-0.065-0.072-0.098c-0.022-0.034-0.046-0.068-0.07-0.102c-0.046-0.069-0.095-0.139-0.143-0.21
	c-0.046-0.071-0.089-0.146-0.136-0.22c-0.094-0.147-0.176-0.304-0.26-0.458c-0.021-0.038-0.043-0.077-0.062-0.116l-0.057-0.119
	c-0.037-0.08-0.074-0.158-0.111-0.235c-0.038-0.078-0.066-0.157-0.1-0.236c-0.031-0.077-0.063-0.154-0.094-0.23
	c-0.033-0.074-0.055-0.151-0.082-0.226c-0.025-0.074-0.049-0.147-0.072-0.217c-0.051-0.14-0.082-0.278-0.116-0.401
	c-0.017-0.062-0.031-0.123-0.048-0.179c-0.006-0.028-0.016-0.056-0.022-0.083c-0.005-0.027-0.011-0.053-0.016-0.079
	c-0.02-0.102-0.037-0.192-0.051-0.266c-0.03-0.146-0.046-0.229-0.046-0.229s0.026,0.082,0.074,0.224
	c0.022,0.071,0.053,0.156,0.085,0.256c0.008,0.024,0.017,0.05,0.025,0.076c0.011,0.026,0.021,0.052,0.032,0.079
	c0.021,0.055,0.045,0.111,0.068,0.171c0.05,0.117,0.096,0.247,0.163,0.377c0.033,0.066,0.065,0.134,0.099,0.202
	c0.034,0.069,0.064,0.141,0.105,0.209c0.039,0.069,0.079,0.139,0.119,0.211c0.041,0.07,0.078,0.144,0.125,0.214
	c0.044,0.069,0.089,0.14,0.134,0.211l0.068,0.105c0.024,0.035,0.05,0.068,0.073,0.103c0.098,0.136,0.192,0.273,0.299,0.4
	c0.052,0.064,0.102,0.128,0.153,0.189c0.053,0.061,0.105,0.12,0.157,0.179c0.025,0.029,0.051,0.058,0.076,0.087
	c0.025,0.026,0.053,0.054,0.08,0.081c0.051,0.054,0.102,0.106,0.15,0.158c0.104,0.097,0.197,0.192,0.291,0.271
	c0.045,0.041,0.089,0.079,0.131,0.116c0.043,0.035,0.085,0.068,0.121,0.1c0.037,0.028,0.07,0.055,0.103,0.08
	c0.894-1.835,0.851-4.093-0.312-5.984C410.482,48.36,408.634,48.804,406.271,47.333z"/>
<path fill="#A0BAA1" d="M412.737,78.296c-2.084-0.364-4.318,0.369-5.806,2.12c-1.343,1.579-1.771,3.624-1.334,5.477
	c0.013-0.018,0.021-0.036,0.033-0.055c0.065-0.116,0.149-0.236,0.23-0.365c0.045-0.062,0.09-0.127,0.136-0.193
	c0.022-0.033,0.047-0.066,0.07-0.099c0.024-0.032,0.05-0.065,0.075-0.099c0.051-0.065,0.103-0.132,0.156-0.199
	c0.053-0.067,0.109-0.131,0.165-0.198c0.111-0.135,0.236-0.26,0.355-0.388c0.029-0.032,0.06-0.065,0.092-0.096l0.095-0.09
	c0.063-0.06,0.126-0.12,0.188-0.179c0.062-0.061,0.129-0.113,0.193-0.168c0.064-0.054,0.128-0.108,0.191-0.16
	c0.06-0.055,0.126-0.1,0.188-0.147c0.063-0.047,0.125-0.092,0.185-0.136c0.116-0.092,0.239-0.164,0.346-0.236
	c0.054-0.035,0.105-0.068,0.155-0.101c0.025-0.015,0.049-0.032,0.072-0.046c0.024-0.014,0.047-0.027,0.07-0.04
	c0.09-0.051,0.17-0.095,0.236-0.131c0.129-0.073,0.204-0.114,0.204-0.114s-0.069,0.05-0.19,0.139
	c-0.061,0.045-0.133,0.099-0.217,0.16c-0.021,0.016-0.042,0.032-0.064,0.048c-0.021,0.018-0.041,0.036-0.063,0.055
	c-0.046,0.037-0.092,0.077-0.141,0.118c-0.098,0.084-0.206,0.168-0.31,0.273c-0.053,0.05-0.107,0.103-0.162,0.156
	s-0.112,0.105-0.166,0.166c-0.053,0.058-0.107,0.117-0.163,0.177c-0.056,0.061-0.112,0.119-0.165,0.185
	c-0.053,0.064-0.105,0.129-0.158,0.193l-0.08,0.098c-0.025,0.033-0.049,0.067-0.074,0.101c-0.1,0.136-0.202,0.269-0.289,0.409
	c-0.045,0.069-0.09,0.136-0.133,0.205c-0.04,0.069-0.08,0.137-0.12,0.205c-0.021,0.033-0.04,0.066-0.06,0.099
	c-0.018,0.034-0.035,0.067-0.053,0.101c-0.035,0.066-0.07,0.13-0.104,0.193c-0.059,0.128-0.121,0.247-0.166,0.36
	c-0.025,0.056-0.048,0.11-0.069,0.161c-0.021,0.052-0.04,0.101-0.058,0.147c-0.018,0.043-0.031,0.084-0.046,0.122
	c2.023,0.28,4.155-0.461,5.593-2.151C413.066,82.619,412.069,80.999,412.737,78.296z"/>
<path fill="#A0BAA1" d="M376.873,54.293c-0.992,1.868-0.987,4.22,0.215,6.178c1.084,1.765,2.896,2.807,4.794,2.964
	c-0.014-0.015-0.027-0.031-0.042-0.048c-0.09-0.099-0.178-0.215-0.276-0.332c-0.046-0.062-0.094-0.125-0.142-0.188
	c-0.024-0.033-0.048-0.065-0.072-0.098c-0.023-0.033-0.047-0.068-0.07-0.102c-0.047-0.068-0.094-0.139-0.142-0.21
	c-0.046-0.071-0.09-0.146-0.137-0.219c-0.094-0.147-0.175-0.304-0.259-0.458c-0.021-0.038-0.042-0.077-0.063-0.115l-0.056-0.119
	c-0.038-0.079-0.075-0.158-0.112-0.235c-0.039-0.077-0.067-0.157-0.1-0.235c-0.032-0.078-0.063-0.155-0.093-0.23
	c-0.033-0.075-0.056-0.151-0.082-0.226c-0.025-0.074-0.049-0.146-0.073-0.217c-0.051-0.14-0.082-0.278-0.117-0.402
	c-0.016-0.062-0.032-0.122-0.047-0.179c-0.007-0.027-0.016-0.055-0.022-0.083c-0.006-0.027-0.011-0.053-0.016-0.079
	c-0.02-0.102-0.038-0.191-0.052-0.266c-0.028-0.146-0.044-0.229-0.044-0.229s0.026,0.082,0.073,0.224
	c0.024,0.071,0.053,0.156,0.085,0.256c0.008,0.024,0.017,0.05,0.026,0.075c0.01,0.027,0.021,0.052,0.032,0.08
	c0.021,0.055,0.045,0.111,0.069,0.171c0.049,0.117,0.096,0.247,0.163,0.377c0.032,0.066,0.065,0.134,0.098,0.202
	c0.034,0.069,0.065,0.141,0.106,0.21c0.038,0.069,0.078,0.139,0.118,0.211c0.041,0.07,0.078,0.143,0.125,0.213
	c0.045,0.069,0.089,0.14,0.134,0.211l0.069,0.105c0.023,0.035,0.049,0.068,0.073,0.104c0.099,0.136,0.193,0.273,0.299,0.4
	c0.051,0.064,0.102,0.128,0.153,0.189c0.053,0.061,0.105,0.121,0.157,0.179c0.026,0.028,0.051,0.058,0.076,0.087
	c0.026,0.027,0.053,0.054,0.079,0.081c0.052,0.054,0.103,0.106,0.152,0.157c0.104,0.097,0.197,0.192,0.29,0.271
	c0.046,0.041,0.09,0.079,0.132,0.116c0.043,0.035,0.084,0.068,0.122,0.1c0.036,0.029,0.07,0.056,0.102,0.081
	c0.893-1.836,0.85-4.094-0.312-5.985C381.085,55.32,379.235,55.765,376.873,54.293z"/>
<path fill="#A0BAA1" d="M402.62,37.966c-2.115,0.042-4.167,1.19-5.291,3.193c-1.016,1.807-1.044,3.896-0.259,5.631
	c0.007-0.021,0.015-0.04,0.022-0.061c0.042-0.127,0.101-0.26,0.155-0.403c0.032-0.07,0.063-0.142,0.097-0.215
	c0.016-0.037,0.033-0.074,0.051-0.11c0.018-0.036,0.035-0.074,0.055-0.111c0.037-0.074,0.076-0.15,0.114-0.227
	c0.038-0.075,0.083-0.15,0.125-0.226c0.083-0.153,0.181-0.301,0.274-0.449c0.022-0.038,0.045-0.075,0.07-0.111l0.075-0.107
	c0.051-0.071,0.103-0.142,0.153-0.212c0.047-0.072,0.104-0.136,0.155-0.202c0.053-0.065,0.104-0.131,0.155-0.194
	c0.049-0.065,0.105-0.123,0.158-0.181s0.105-0.115,0.154-0.17c0.098-0.113,0.203-0.207,0.294-0.297
	c0.047-0.044,0.092-0.087,0.134-0.129c0.021-0.019,0.041-0.04,0.062-0.059s0.042-0.036,0.062-0.053
	c0.079-0.068,0.148-0.126,0.207-0.175c0.113-0.096,0.178-0.151,0.178-0.151s-0.058,0.063-0.158,0.173
	c-0.051,0.056-0.112,0.123-0.183,0.199c-0.018,0.019-0.036,0.039-0.055,0.059c-0.017,0.022-0.034,0.044-0.053,0.067
	c-0.036,0.045-0.075,0.092-0.116,0.143c-0.077,0.101-0.168,0.204-0.249,0.327c-0.042,0.06-0.087,0.121-0.13,0.184
	s-0.09,0.125-0.131,0.194c-0.041,0.067-0.083,0.136-0.126,0.206c-0.042,0.07-0.088,0.138-0.127,0.213
	c-0.038,0.073-0.079,0.146-0.118,0.22l-0.059,0.111c-0.02,0.037-0.037,0.076-0.055,0.114c-0.07,0.152-0.146,0.301-0.204,0.456
	c-0.032,0.077-0.063,0.152-0.092,0.227c-0.026,0.076-0.054,0.15-0.079,0.224c-0.014,0.036-0.026,0.072-0.039,0.108
	c-0.012,0.037-0.022,0.073-0.033,0.109c-0.021,0.072-0.042,0.141-0.062,0.209c-0.035,0.138-0.072,0.266-0.098,0.386
	c-0.012,0.06-0.023,0.117-0.036,0.172c-0.009,0.055-0.019,0.107-0.028,0.155c-0.007,0.045-0.014,0.088-0.02,0.128
	c2.037-0.113,3.99-1.25,5.076-3.185C403.772,42.145,402.483,40.746,402.62,37.966z"/>
<path fill="#A0BAA1" d="M409.085,81.074"/>
<g>
	<g>
		<g>
			<path fill="#A0BAA1" stroke="#C1D1C1" stroke-width="0.25" stroke-miterlimit="10" d="M425.004,26.145
				c-1.794-0.848-4.018-0.857-5.627,0.092c-1.468,0.855-2.084,2.235-1.82,3.561l0.035-0.034c0.077-0.07,0.155-0.144,0.241-0.222
				l0.139-0.114l0.071-0.059l0.077-0.058l0.159-0.116l0.166-0.111c0.111-0.076,0.233-0.144,0.354-0.212l0.092-0.052l0.095-0.047
				l0.186-0.091c0.061-0.031,0.125-0.055,0.188-0.082l0.187-0.077c0.066-0.024,0.124-0.046,0.185-0.068l0.179-0.061
				c0.114-0.041,0.229-0.066,0.331-0.095c0.052-0.013,0.102-0.026,0.149-0.039l0.068-0.018l0.067-0.014
				c0.086-0.017,0.161-0.031,0.224-0.043c0.124-0.024,0.195-0.038,0.195-0.038s-0.067,0.021-0.187,0.058
				c-0.059,0.018-0.13,0.041-0.212,0.066l-0.062,0.02l-0.064,0.025c-0.044,0.017-0.09,0.035-0.139,0.054
				c-0.095,0.038-0.201,0.075-0.304,0.126l-0.162,0.077c-0.055,0.027-0.112,0.052-0.166,0.084l-0.165,0.093
				c-0.056,0.032-0.113,0.062-0.166,0.098l-0.161,0.105l-0.081,0.053l-0.076,0.057c-0.102,0.076-0.207,0.153-0.299,0.235
				l-0.139,0.12l-0.127,0.122l-0.062,0.059l-0.056,0.062l-0.109,0.117c-0.063,0.08-0.132,0.153-0.183,0.225l-0.077,0.101
				c-0.022,0.033-0.044,0.064-0.063,0.094c-0.019,0.028-0.035,0.054-0.051,0.078c1.66,0.451,3.422,0.362,4.938-0.41
				C424.351,29.081,423.858,27.752,425.004,26.145z"/>
			<path fill="#A0BAA1" d="M435.078,31.58c-1.381-1.187-3.316-1.751-4.896-1.293c-1.428,0.391-2.235,1.446-2.42,2.629l0.037-0.021
				c0.077-0.046,0.163-0.086,0.253-0.132l0.144-0.064l0.074-0.033l0.078-0.03l0.159-0.061l0.169-0.055
				c0.113-0.038,0.231-0.068,0.351-0.098l0.09-0.022l0.091-0.018l0.182-0.036c0.064-0.01,0.123-0.019,0.182-0.028l0.179-0.024
				c0.062-0.006,0.118-0.011,0.175-0.016l0.167-0.008c0.107-0.006,0.212-0.001,0.308,0c0.048,0.001,0.094,0.002,0.138,0.003
				l0.063,0.002l0.061,0.004c0.078,0.007,0.147,0.013,0.204,0.018c0.112,0.01,0.177,0.016,0.177,0.016s-0.063,0.001-0.175,0.004
				c-0.055,0.001-0.121,0.003-0.198,0.005l-0.059,0.002l-0.062,0.006c-0.042,0.003-0.086,0.007-0.133,0.012
				c-0.091,0.009-0.19,0.016-0.293,0.034l-0.156,0.026c-0.053,0.008-0.108,0.018-0.162,0.032l-0.165,0.042
				c-0.055,0.015-0.108,0.03-0.167,0.046l-0.164,0.054l-0.083,0.027l-0.08,0.031c-0.106,0.042-0.212,0.083-0.311,0.132l-0.147,0.07
				l-0.139,0.075l-0.067,0.036l-0.062,0.039l-0.122,0.074c-0.075,0.053-0.145,0.102-0.21,0.148c-0.032,0.024-0.062,0.046-0.09,0.068
				c-0.028,0.023-0.054,0.044-0.078,0.064l-0.062,0.054c1.279,0.797,2.854,1.149,4.363,0.858
				C433.802,33.95,433.685,32.683,435.078,31.58z"/>
			<path fill="#A0BAA1" d="M443.228,40.007c-0.396-0.725-0.978-1.349-1.647-1.799c-0.652-0.47-1.4-0.749-2.145-0.794
				c-1.335-0.096-2.303,0.544-2.8,1.501l0.037-0.006c0.079-0.011,0.162-0.023,0.251-0.036l0.14-0.011l0.073-0.006l0.074-0.002
				l0.153-0.003l0.159,0.003c0.106,0.002,0.217,0.011,0.326,0.022l0.082,0.008l0.083,0.012l0.165,0.025
				c0.058,0.011,0.109,0.021,0.162,0.031l0.159,0.033c0.055,0.014,0.104,0.026,0.154,0.039l0.146,0.041
				c0.096,0.026,0.187,0.057,0.269,0.086c0.04,0.016,0.077,0.031,0.114,0.046l0.053,0.021l0.05,0.023
				c0.063,0.03,0.12,0.057,0.166,0.079c0.092,0.044,0.145,0.069,0.145,0.069s-0.055-0.019-0.148-0.051
				c-0.047-0.016-0.103-0.035-0.168-0.058l-0.05-0.017l-0.054-0.014c-0.036-0.01-0.074-0.021-0.114-0.031
				c-0.078-0.023-0.17-0.041-0.264-0.056l-0.144-0.022c-0.048-0.006-0.095-0.013-0.148-0.02l-0.152-0.014
				c-0.051-0.003-0.101-0.007-0.155-0.011l-0.155-0.003l-0.078-0.002l-0.077,0.002c-0.103,0.004-0.204,0.007-0.302,0.018
				l-0.146,0.016l-0.139,0.022l-0.067,0.01l-0.064,0.014l-0.125,0.027c-0.078,0.022-0.151,0.043-0.221,0.062l-0.095,0.031
				c-0.03,0.011-0.058,0.021-0.084,0.031l-0.068,0.027c0.868,1.048,2.09,1.829,3.462,2.031
				C441.443,41.629,441.729,40.512,443.228,40.007z"/>
			<path fill="#A0BAA1" d="M447.938,50.597c-0.269-1.357-1.076-2.667-2.277-3.197c-1.056-0.492-2.053-0.285-2.764,0.331l0.032,0.006
				c0.068,0.016,0.14,0.033,0.217,0.051l0.118,0.036l0.061,0.019l0.062,0.021l0.127,0.046l0.128,0.053
				c0.089,0.041,0.175,0.081,0.26,0.121l0.064,0.032l0.064,0.036l0.126,0.071c0.044,0.027,0.083,0.052,0.123,0.077l0.118,0.077
				c0.041,0.028,0.077,0.054,0.113,0.079l0.107,0.079c0.072,0.058,0.134,0.107,0.191,0.153l0.084,0.07l0.036,0.034l0.033,0.034
				c0.041,0.044,0.078,0.083,0.108,0.114c0.06,0.063,0.094,0.1,0.094,0.1s-0.037-0.031-0.103-0.086
				c-0.033-0.027-0.072-0.06-0.117-0.098l-0.035-0.029l-0.039-0.028l-0.087-0.059c-0.061-0.038-0.124-0.079-0.199-0.125
				l-0.109-0.062c-0.037-0.021-0.074-0.041-0.115-0.063l-0.12-0.059c-0.04-0.019-0.08-0.037-0.123-0.057l-0.125-0.052l-0.063-0.026
				l-0.063-0.022l-0.253-0.081l-0.123-0.034l-0.12-0.026l-0.059-0.013l-0.058-0.009l-0.109-0.018c-0.072-0.007-0.138-0.013-0.2-0.02
				c-0.031-0.001-0.061-0.003-0.088-0.005c-0.028,0-0.055-0.001-0.079-0.001l-0.064,0c0.387,1.127,1.12,2.151,2.182,2.723
				C445.997,51.39,446.562,50.575,447.938,50.597z"/>
			<path fill="#A0BAA1" d="M449.006,61.514c0.095-1.11-0.212-2.289-1.045-3.003c-0.732-0.645-1.603-0.752-2.346-0.453l0.024,0.014
				c0.052,0.031,0.106,0.063,0.164,0.098l0.087,0.059l0.046,0.031l0.045,0.033l0.091,0.069l0.092,0.076l0.181,0.163l0.044,0.042
				l0.043,0.044l0.085,0.089c0.028,0.032,0.054,0.062,0.08,0.091l0.077,0.091c0.025,0.033,0.049,0.062,0.071,0.091l0.067,0.089
				c0.044,0.057,0.075,0.115,0.107,0.167l0.045,0.076l0.021,0.035l0.018,0.035c0.022,0.044,0.043,0.083,0.061,0.116
				c0.032,0.063,0.052,0.101,0.052,0.101s-0.022-0.033-0.062-0.093c-0.02-0.029-0.044-0.065-0.071-0.105l-0.021-0.031l-0.024-0.032
				l-0.052-0.067c-0.037-0.045-0.075-0.092-0.12-0.147l-0.072-0.077c-0.025-0.025-0.051-0.05-0.078-0.079l-0.083-0.077l-0.086-0.077
				l-0.089-0.073l-0.045-0.036l-0.046-0.034l-0.186-0.129l-0.092-0.058l-0.092-0.052l-0.044-0.025l-0.045-0.022l-0.086-0.043
				c-0.056-0.024-0.108-0.047-0.158-0.068l-0.07-0.027l-0.064-0.022l-0.053-0.017c0.023,1.002,0.338,2.012,1.077,2.71
				C447.212,61.713,447.867,61.193,449.006,61.514z"/>
			<path fill="#A0BAA1" d="M447.607,71.788c0.256-0.846,0.144-1.822-0.368-2.511c-0.462-0.624-1.143-0.875-1.807-0.778l0.017,0.015
				c0.036,0.034,0.073,0.07,0.112,0.107l0.059,0.062l0.03,0.033l0.029,0.034l0.06,0.071l0.059,0.076
				c0.038,0.055,0.075,0.107,0.112,0.16l0.027,0.041l0.025,0.042l0.051,0.084c0.017,0.031,0.031,0.058,0.046,0.085l0.044,0.084
				c0.015,0.031,0.026,0.056,0.039,0.083l0.036,0.081c0.023,0.058,0.042,0.105,0.061,0.151l0.024,0.068l0.012,0.031l0.01,0.031
				c0.012,0.039,0.022,0.074,0.031,0.102c0.017,0.056,0.026,0.088,0.026,0.088s-0.014-0.03-0.036-0.084
				c-0.012-0.026-0.026-0.059-0.042-0.096l-0.013-0.028l-0.016-0.029l-0.032-0.063c-0.022-0.042-0.046-0.085-0.075-0.138
				l-0.043-0.073c-0.016-0.024-0.03-0.048-0.048-0.075l-0.051-0.075l-0.054-0.075l-0.057-0.073l-0.029-0.037l-0.03-0.035
				l-0.123-0.134l-0.063-0.062l-0.062-0.057l-0.031-0.028l-0.031-0.025l-0.061-0.049c-0.04-0.029-0.078-0.057-0.114-0.083
				l-0.051-0.035l-0.048-0.029l-0.039-0.023c-0.216,0.791-0.087,1.668,0.405,2.341C446.108,71.667,446.724,71.357,447.607,71.788z"
				/>
			<path fill="#A0BAA1" d="M417.211,31.345c0,0,0.881,0.096,2.336,0.417c1.458,0.317,3.517,0.867,5.887,1.822
				c2.368,0.946,5.047,2.324,7.62,4.253c1.292,0.958,2.524,2.083,3.701,3.301c1.13,1.258,2.239,2.587,3.131,4.064
				c1.862,2.904,3.104,6.168,3.769,9.301c0.704,3.134,0.826,6.126,0.794,8.659c-0.017,0.634-0.033,1.242-0.049,1.82
				c-0.048,0.574-0.095,1.12-0.138,1.631c-0.083,1.025-0.171,1.917-0.298,2.642c-0.218,1.456-0.343,2.288-0.343,2.288
				s0.094-0.836,0.258-2.299c0.1-0.728,0.154-1.621,0.199-2.646c0.023-0.511,0.05-1.055,0.077-1.629
				c-0.007-0.575-0.013-1.18-0.02-1.812c-0.062-2.516-0.294-5.472-1.1-8.52c-0.767-3.048-2.096-6.174-3.995-8.901
				c-0.91-1.389-2.026-2.624-3.151-3.787c-1.172-1.123-2.388-2.153-3.657-3.02c-2.527-1.749-5.134-2.966-7.429-3.781
				c-2.296-0.824-4.278-1.271-5.666-1.518c-1.392-0.25-2.172-0.302-2.172-0.302"/>
			<path fill="#A0BAA1" stroke="#C1D1C1" stroke-width="0.25" stroke-miterlimit="10" d="M424.148,43.033
				c-1.192-0.341-2.2-1.283-2.685-2.749c-0.43-1.323-0.322-2.756,0.376-3.892l0.01,0.043c0.024,0.092,0.05,0.188,0.077,0.291
				l0.05,0.156l0.024,0.082l0.028,0.083l0.058,0.167l0.065,0.169c0.042,0.114,0.094,0.225,0.143,0.336l0.037,0.083l0.041,0.081
				l0.081,0.161c0.03,0.055,0.057,0.103,0.084,0.153l0.084,0.147c0.03,0.052,0.057,0.096,0.084,0.143l0.082,0.134
				c0.051,0.089,0.108,0.166,0.157,0.238l0.072,0.103l0.032,0.048l0.034,0.043c0.043,0.055,0.081,0.103,0.112,0.143
				c0.062,0.078,0.098,0.123,0.098,0.123s-0.03-0.049-0.082-0.136c-0.025-0.043-0.057-0.096-0.093-0.156l-0.028-0.047l-0.026-0.052
				c-0.019-0.035-0.038-0.072-0.058-0.111c-0.039-0.078-0.087-0.16-0.126-0.253l-0.063-0.141c-0.021-0.048-0.041-0.095-0.064-0.149
				l-0.062-0.156c-0.02-0.052-0.04-0.102-0.062-0.158l-0.058-0.163l-0.028-0.082l-0.025-0.083c-0.033-0.112-0.069-0.222-0.095-0.334
				l-0.041-0.165l-0.033-0.163l-0.017-0.079l-0.013-0.078l-0.025-0.151c-0.012-0.099-0.022-0.19-0.032-0.277
				c-0.004-0.043-0.008-0.083-0.012-0.123c-0.002-0.039-0.004-0.076-0.006-0.11c-0.002-0.033-0.003-0.062-0.004-0.091
				c1.458,0.272,2.723,1.38,3.104,2.86C425.716,40.46,424.617,41.174,424.148,43.033z"/>
			<path fill="#A0BAA1" d="M430.481,46.265c-0.871-0.597-1.435-1.618-1.439-2.964c0.005-1.214,0.455-2.374,1.339-3.145l-0.003,0.039
				c-0.004,0.083-0.008,0.169-0.012,0.262l0.001,0.143v0.073l0.003,0.075l0.007,0.152l0.008,0.16
				c0.009,0.109,0.018,0.215,0.026,0.32l0.009,0.08l0.012,0.079l0.022,0.156c0.01,0.054,0.019,0.102,0.027,0.151l0.028,0.146
				c0.013,0.05,0.022,0.094,0.033,0.139l0.034,0.131c0.026,0.089,0.048,0.164,0.069,0.235l0.033,0.103l0.015,0.047l0.018,0.044
				c0.021,0.055,0.04,0.105,0.056,0.146c0.027,0.083,0.043,0.131,0.043,0.131s-0.01-0.05-0.027-0.138
				c-0.01-0.042-0.021-0.093-0.035-0.153l-0.011-0.045l-0.009-0.049c-0.007-0.034-0.013-0.069-0.02-0.106
				c-0.012-0.073-0.024-0.15-0.039-0.24l-0.017-0.132c-0.005-0.045-0.01-0.089-0.015-0.139l-0.01-0.145
				c-0.003-0.048-0.006-0.096-0.009-0.148l-0.003-0.152l-0.002-0.076l0.002-0.077l0.013-0.305l0.011-0.149l0.017-0.146l0.007-0.07
				l0.011-0.069l0.02-0.134c0.016-0.084,0.03-0.163,0.044-0.237c0.008-0.037,0.015-0.071,0.021-0.104
				c0.008-0.033,0.016-0.063,0.022-0.092c0.008-0.027,0.014-0.052,0.021-0.076c0.564,0.309,1.042,0.776,1.371,1.324
				c0.307,0.571,0.484,1.202,0.439,1.869C432.485,44.558,431.389,44.85,430.481,46.265z"/>
			<path fill="#A0BAA1" d="M435.363,51.51c-0.139-0.197-0.241-0.413-0.318-0.64c-0.093-0.218-0.152-0.45-0.179-0.694
				c-0.055-0.486,0.044-1.034,0.227-1.559c0.359-0.961,1.114-1.762,2.048-2.091l-0.014,0.03c-0.03,0.066-0.061,0.134-0.094,0.208
				l-0.046,0.115l-0.023,0.059l-0.021,0.061l-0.044,0.125l-0.04,0.129c-0.025,0.089-0.049,0.176-0.072,0.262l-0.018,0.066
				l-0.013,0.066l-0.027,0.13c-0.008,0.045-0.015,0.087-0.021,0.128l-0.02,0.125c-0.005,0.043-0.01,0.082-0.015,0.121l-0.018,0.119
				c-0.009,0.082-0.017,0.15-0.024,0.216l-0.009,0.095l-0.004,0.044l-0.001,0.042c-0.002,0.052-0.003,0.1-0.004,0.138
				c-0.003,0.076-0.004,0.119-0.004,0.119s0.007-0.043,0.019-0.119c0.006-0.038,0.014-0.083,0.021-0.137l0.007-0.041l0.01-0.043
				c0.006-0.029,0.013-0.06,0.02-0.093c0.016-0.064,0.031-0.131,0.05-0.209l0.031-0.114c0.012-0.038,0.022-0.076,0.034-0.118
				l0.034-0.118c0.012-0.039,0.024-0.078,0.037-0.121l0.042-0.121l0.021-0.061l0.024-0.06l0.101-0.238l0.052-0.115l0.057-0.11
				l0.026-0.054l0.029-0.052l0.056-0.1c0.039-0.062,0.075-0.121,0.11-0.176l0.051-0.077l0.047-0.067l0.041-0.055
				c0.748,0.833,0.929,2.102,0.479,3.139C437.488,50.75,436.518,50.637,435.363,51.51z"/>
			<path fill="#A0BAA1" d="M438.355,58.727c-0.133-0.422-0.12-0.879-0.04-1.313c0.075-0.432,0.27-0.859,0.584-1.244
				c0.569-0.693,1.398-1.089,2.221-1.061l-0.021,0.02c-0.043,0.043-0.088,0.089-0.136,0.138l-0.07,0.078l-0.036,0.041l-0.036,0.042
				l-0.072,0.087l-0.07,0.091c-0.046,0.065-0.091,0.128-0.136,0.19l-0.033,0.048l-0.03,0.05l-0.062,0.099
				c-0.02,0.034-0.037,0.066-0.056,0.098l-0.053,0.097c-0.017,0.034-0.032,0.064-0.048,0.094l-0.043,0.091
				c-0.027,0.063-0.051,0.118-0.072,0.168l-0.03,0.076l-0.014,0.034l-0.012,0.034c-0.015,0.043-0.026,0.081-0.037,0.112
				c-0.021,0.061-0.032,0.096-0.032,0.096s0.016-0.033,0.044-0.092c0.015-0.029,0.031-0.064,0.052-0.105l0.015-0.032l0.019-0.032
				l0.039-0.07c0.027-0.047,0.057-0.097,0.091-0.155l0.054-0.083c0.019-0.028,0.037-0.055,0.057-0.086l0.062-0.086
				c0.021-0.029,0.042-0.057,0.065-0.088l0.069-0.085l0.035-0.043l0.037-0.042l0.15-0.162l0.076-0.077l0.076-0.072l0.038-0.035
				l0.038-0.032l0.073-0.063c0.05-0.039,0.096-0.074,0.139-0.108l0.063-0.046l0.058-0.04l0.048-0.031
				c0.283,0.903,0.185,1.941-0.503,2.686C440.237,58.67,439.489,58.309,438.355,58.727z"/>
			<path fill="#A0BAA1" d="M439.373,67.21c-0.061-0.756,0.264-1.522,0.92-2.023c0.599-0.451,1.286-0.579,1.932-0.379l-0.02,0.011
				c-0.041,0.025-0.083,0.051-0.129,0.08l-0.067,0.047l-0.036,0.024l-0.036,0.026l-0.075,0.054l-0.074,0.058l-0.146,0.124
				l-0.036,0.032l-0.034,0.034l-0.068,0.066c-0.023,0.024-0.044,0.046-0.064,0.068l-0.062,0.067
				c-0.021,0.024-0.039,0.045-0.058,0.066l-0.053,0.065c-0.036,0.046-0.065,0.084-0.094,0.121l-0.04,0.055l-0.019,0.025
				l-0.016,0.025c-0.021,0.032-0.039,0.06-0.054,0.083c-0.029,0.045-0.046,0.072-0.046,0.072s0.02-0.024,0.055-0.066
				c0.018-0.021,0.038-0.046,0.062-0.076l0.019-0.022l0.021-0.022l0.046-0.049c0.032-0.033,0.064-0.066,0.104-0.107l0.06-0.056
				c0.02-0.019,0.04-0.037,0.062-0.058l0.067-0.056l0.069-0.057l0.072-0.054l0.036-0.027l0.038-0.026l0.151-0.098l0.075-0.045
				l0.075-0.041l0.036-0.02l0.036-0.018l0.07-0.035c0.047-0.02,0.09-0.038,0.131-0.056L442.344,65l0.053-0.019l0.042-0.015
				c0.031,0.772-0.301,1.566-0.932,2.042C440.854,67.498,440.326,67.069,439.373,67.21z"/>
		</g>
	</g>
</g>
<g>
	<g>
		<g>
			<path fill="#A0BAA1" stroke="#C1D1C1" stroke-width="0.25" stroke-miterlimit="10" d="M401.57,154.56
				c1.973,0.214,4.076-0.506,5.286-1.931c1.106-1.289,1.236-2.795,0.553-3.96l-0.022,0.043c-0.049,0.092-0.1,0.187-0.154,0.289
				l-0.094,0.153l-0.049,0.079l-0.054,0.08l-0.112,0.162l-0.121,0.159c-0.079,0.108-0.173,0.212-0.265,0.317l-0.068,0.078
				l-0.074,0.076l-0.146,0.147c-0.047,0.049-0.101,0.094-0.151,0.139l-0.15,0.134c-0.055,0.045-0.103,0.084-0.151,0.125
				l-0.149,0.117c-0.094,0.076-0.193,0.137-0.282,0.198l-0.128,0.085l-0.06,0.04l-0.059,0.035c-0.076,0.044-0.143,0.083-0.197,0.115
				c-0.109,0.063-0.172,0.1-0.172,0.1s0.058-0.042,0.157-0.116c0.049-0.037,0.109-0.082,0.179-0.132l0.052-0.04l0.053-0.045
				c0.036-0.03,0.074-0.062,0.113-0.096c0.078-0.067,0.166-0.137,0.246-0.219l0.128-0.125c0.043-0.043,0.089-0.086,0.13-0.134
				l0.125-0.142c0.042-0.048,0.087-0.095,0.125-0.147l0.117-0.152l0.059-0.077l0.054-0.079c0.071-0.105,0.146-0.212,0.205-0.32
				l0.092-0.159l0.08-0.157l0.038-0.076l0.033-0.076l0.064-0.146c0.034-0.096,0.075-0.188,0.1-0.272
				c0.014-0.042,0.026-0.083,0.039-0.121c0.011-0.039,0.021-0.075,0.03-0.109c0.008-0.032,0.015-0.062,0.021-0.09
				c-1.716,0.118-3.351,0.779-4.53,2.006C401.226,151.571,402.126,152.666,401.57,154.56z"/>
			<path fill="#A0BAA1" d="M390.271,152.727c1.694,0.668,3.708,0.567,5.051-0.383c1.221-0.837,1.638-2.099,1.424-3.277l-0.027,0.032
				c-0.058,0.069-0.126,0.135-0.196,0.208l-0.114,0.108l-0.06,0.055l-0.063,0.054l-0.131,0.11l-0.142,0.107
				c-0.094,0.073-0.196,0.14-0.299,0.208l-0.077,0.051l-0.08,0.047l-0.16,0.093c-0.058,0.031-0.109,0.058-0.163,0.086l-0.161,0.081
				c-0.057,0.026-0.108,0.049-0.16,0.073l-0.155,0.062c-0.1,0.041-0.2,0.071-0.291,0.101c-0.046,0.015-0.089,0.028-0.131,0.042
				l-0.061,0.019l-0.059,0.016c-0.076,0.019-0.143,0.036-0.198,0.05c-0.109,0.027-0.172,0.043-0.172,0.043s0.059-0.022,0.164-0.061
				c0.051-0.02,0.114-0.043,0.186-0.07l0.055-0.021l0.057-0.026c0.038-0.017,0.078-0.036,0.121-0.055
				c0.084-0.038,0.175-0.078,0.266-0.128l0.14-0.075c0.047-0.025,0.097-0.052,0.143-0.084l0.142-0.094
				c0.046-0.032,0.092-0.064,0.143-0.099l0.138-0.105l0.069-0.053l0.065-0.056c0.086-0.074,0.173-0.148,0.251-0.226l0.116-0.115
				l0.106-0.116l0.052-0.056l0.047-0.058l0.091-0.11c0.054-0.075,0.103-0.144,0.15-0.209c0.021-0.033,0.042-0.063,0.062-0.093
				c0.019-0.031,0.035-0.06,0.052-0.086c0.015-0.025,0.028-0.049,0.041-0.072c-1.47-0.333-3.074-0.15-4.403,0.62
				C390.7,150.07,391.226,151.228,390.271,152.727z"/>
			<path fill="#A0BAA1" d="M379.81,147.435c0.611,0.555,1.365,0.954,2.146,1.16c0.77,0.23,1.568,0.248,2.286,0.048
				c1.293-0.347,1.998-1.27,2.153-2.337l-0.032,0.019c-0.072,0.037-0.146,0.075-0.226,0.116l-0.128,0.056l-0.066,0.029l-0.07,0.027
				l-0.143,0.053l-0.151,0.049c-0.102,0.033-0.208,0.06-0.316,0.086l-0.08,0.02l-0.083,0.016l-0.164,0.031
				c-0.058,0.008-0.11,0.016-0.164,0.024l-0.161,0.021c-0.057,0.005-0.107,0.009-0.158,0.014l-0.152,0.01
				c-0.098,0.007-0.194,0.006-0.282,0.006c-0.043-0.002-0.083-0.004-0.123-0.006l-0.057-0.003l-0.054-0.005
				c-0.07-0.008-0.132-0.015-0.183-0.02c-0.101-0.011-0.159-0.018-0.159-0.018s0.057,0,0.156,0c0.049,0,0.108,0,0.178,0l0.053,0
				l0.055-0.004c0.038-0.002,0.077-0.005,0.119-0.008c0.081-0.004,0.174-0.017,0.267-0.034l0.143-0.026
				c0.048-0.01,0.095-0.02,0.147-0.03l0.148-0.037c0.049-0.014,0.098-0.027,0.15-0.041l0.148-0.047l0.074-0.024l0.072-0.028
				c0.096-0.037,0.191-0.073,0.28-0.116l0.132-0.062l0.124-0.066l0.06-0.032l0.057-0.034l0.108-0.066
				c0.067-0.047,0.129-0.09,0.188-0.131l0.08-0.061l0.069-0.057l0.055-0.048c-1.164-0.706-2.574-1.043-3.936-0.784
				C380.964,145.318,381.06,146.468,379.81,147.435z"/>
			<path fill="#A0BAA1" d="M371.889,138.975c0.699,1.194,1.891,2.167,3.2,2.274c1.158,0.119,2.032-0.403,2.502-1.218l-0.033,0.004
				c-0.07,0.007-0.143,0.015-0.222,0.022l-0.123,0.005l-0.063,0.002l-0.065,0l-0.135-0.001l-0.139-0.008
				c-0.097-0.01-0.191-0.02-0.285-0.029l-0.072-0.009l-0.072-0.013l-0.143-0.026c-0.05-0.011-0.095-0.021-0.141-0.032l-0.138-0.034
				c-0.047-0.014-0.09-0.026-0.132-0.038l-0.127-0.04c-0.087-0.031-0.162-0.057-0.231-0.082l-0.102-0.039l-0.045-0.02l-0.042-0.021
				c-0.054-0.028-0.101-0.052-0.14-0.073c-0.077-0.04-0.122-0.063-0.122-0.063s0.045,0.018,0.125,0.048
				c0.04,0.015,0.087,0.033,0.143,0.055l0.042,0.016l0.046,0.014c0.032,0.009,0.065,0.018,0.101,0.028
				c0.07,0.016,0.144,0.033,0.229,0.053l0.124,0.023c0.042,0.007,0.083,0.014,0.13,0.022l0.132,0.016
				c0.044,0.004,0.088,0.009,0.135,0.014l0.135,0.008l0.068,0.003l0.067,0l0.265-0.006l0.127-0.009l0.122-0.015l0.059-0.007
				l0.057-0.01l0.11-0.019c0.069-0.017,0.134-0.033,0.195-0.047l0.084-0.024c0.027-0.009,0.052-0.017,0.075-0.024l0.061-0.021
				c-0.735-0.939-1.764-1.666-2.953-1.857C373.463,137.589,373.196,138.544,371.889,138.975z"/>
			<path fill="#A0BAA1" d="M367.303,129.01c0.275,1.08,0.95,2.093,1.972,2.495c0.903,0.369,1.76,0.186,2.365-0.34l-0.028-0.005
				c-0.059-0.012-0.121-0.025-0.188-0.039l-0.102-0.027l-0.053-0.015l-0.053-0.017l-0.109-0.035l-0.111-0.042
				c-0.077-0.032-0.15-0.063-0.224-0.094l-0.056-0.025l-0.055-0.028l-0.109-0.056c-0.038-0.021-0.071-0.041-0.106-0.06l-0.103-0.061
				c-0.035-0.022-0.066-0.042-0.097-0.062l-0.092-0.062c-0.061-0.04-0.109-0.084-0.157-0.123l-0.067-0.057l-0.031-0.026
				l-0.029-0.026c-0.036-0.034-0.068-0.065-0.095-0.09c-0.052-0.049-0.082-0.078-0.082-0.078s0.032,0.024,0.089,0.067
				c0.028,0.021,0.063,0.047,0.102,0.076l0.03,0.022l0.033,0.022l0.072,0.046c0.049,0.031,0.101,0.063,0.162,0.1l0.093,0.049
				c0.032,0.016,0.064,0.031,0.1,0.049l0.103,0.045c0.035,0.014,0.069,0.028,0.106,0.044l0.108,0.04l0.055,0.019l0.055,0.017
				l0.217,0.061l0.106,0.025l0.104,0.019l0.05,0.01l0.049,0.006l0.095,0.013c0.061,0.004,0.118,0.008,0.172,0.012l0.076,0.003
				l0.068,0l0.056-0.001c-0.351-0.939-0.979-1.791-1.906-2.208C368.932,128.234,368.484,128.94,367.303,129.01z"/>
			<path fill="#A0BAA1" d="M365.257,118.844c0.036,0.884,0.461,1.769,1.171,2.252c0.641,0.438,1.366,0.452,1.961,0.143l-0.021-0.009
				c-0.045-0.021-0.091-0.042-0.141-0.065l-0.076-0.04l-0.039-0.021l-0.039-0.023l-0.08-0.047l-0.08-0.052
				c-0.055-0.039-0.106-0.076-0.159-0.114l-0.04-0.03l-0.038-0.032l-0.075-0.063c-0.026-0.024-0.048-0.044-0.072-0.066l-0.069-0.065
				c-0.024-0.024-0.044-0.044-0.064-0.065l-0.061-0.065c-0.041-0.047-0.074-0.085-0.106-0.123l-0.046-0.056l-0.021-0.025
				l-0.019-0.026c-0.024-0.033-0.045-0.062-0.062-0.086c-0.035-0.048-0.054-0.075-0.054-0.075s0.022,0.024,0.062,0.067
				c0.02,0.021,0.044,0.047,0.071,0.077l0.021,0.022l0.024,0.022l0.051,0.049c0.036,0.033,0.072,0.065,0.116,0.106l0.065,0.054
				c0.022,0.018,0.044,0.035,0.069,0.055l0.073,0.054l0.075,0.053l0.078,0.05l0.039,0.025l0.04,0.023l0.161,0.086l0.08,0.039
				l0.079,0.033l0.038,0.017l0.038,0.014l0.073,0.027c0.048,0.015,0.093,0.028,0.135,0.041l0.06,0.016l0.054,0.012l0.044,0.009
				c-0.055-0.817-0.465-1.604-1.15-2.079C366.713,118.467,366.233,118.962,365.257,118.844z"/>
			<path fill="#A0BAA1" d="M407.229,147.093c0,0-0.863,0.198-2.344,0.372c-1.481,0.178-3.606,0.333-6.159,0.208
				c-2.546-0.118-5.529-0.542-8.593-1.521c-1.534-0.481-3.068-1.141-4.578-1.906c-1.48-0.818-2.964-1.71-4.291-2.813
				c-2.711-2.133-4.953-4.811-6.608-7.553c-1.692-2.73-2.788-5.518-3.587-7.921c-0.192-0.605-0.376-1.185-0.551-1.735
				c-0.143-0.559-0.277-1.089-0.404-1.587c-0.257-0.996-0.467-1.867-0.584-2.593c-0.271-1.447-0.426-2.273-0.426-2.273
				s0.186,0.82,0.511,2.257c0.144,0.72,0.385,1.582,0.679,2.565c0.145,0.491,0.298,1.013,0.461,1.564
				c0.194,0.542,0.398,1.111,0.612,1.705c0.882,2.357,2.07,5.074,3.831,7.689c1.723,2.629,4.003,5.146,6.691,7.101
				c1.315,1.014,2.774,1.814,4.218,2.544c1.475,0.677,2.961,1.252,4.445,1.655c2.96,0.824,5.822,1.119,8.257,1.138
				c2.439,0.026,4.459-0.201,5.851-0.423c1.397-0.219,2.151-0.427,2.151-0.427"/>
			<path fill="#A0BAA1" stroke="#C1D1C1" stroke-width="0.25" stroke-miterlimit="10" d="M396.843,138.324
				c1.238-0.069,2.499,0.491,3.438,1.717c0.84,1.109,1.208,2.499,0.921,3.8l-0.024-0.038c-0.054-0.079-0.108-0.161-0.168-0.249
				l-0.098-0.132l-0.05-0.069l-0.054-0.069l-0.11-0.139l-0.117-0.138c-0.076-0.094-0.162-0.182-0.245-0.271l-0.062-0.066
				l-0.064-0.063l-0.129-0.125c-0.047-0.042-0.088-0.079-0.13-0.117l-0.128-0.112c-0.045-0.039-0.085-0.072-0.126-0.107l-0.121-0.1
				c-0.077-0.067-0.157-0.121-0.228-0.173l-0.102-0.074l-0.047-0.034l-0.046-0.03c-0.059-0.038-0.11-0.07-0.152-0.098
				c-0.084-0.054-0.133-0.084-0.133-0.084s0.045,0.037,0.122,0.102c0.038,0.032,0.085,0.072,0.14,0.117l0.041,0.035l0.042,0.04
				l0.091,0.086c0.063,0.061,0.135,0.123,0.202,0.198l0.106,0.113c0.035,0.039,0.069,0.076,0.109,0.12l0.109,0.127
				c0.036,0.042,0.07,0.083,0.11,0.129l0.107,0.135l0.054,0.068l0.051,0.07c0.068,0.095,0.139,0.187,0.199,0.285l0.093,0.143
				l0.085,0.143l0.041,0.069l0.038,0.07l0.073,0.134c0.044,0.089,0.083,0.172,0.122,0.251c0.018,0.039,0.034,0.077,0.051,0.112
				c0.015,0.036,0.028,0.07,0.042,0.102c0.012,0.03,0.022,0.059,0.033,0.085c-1.467,0.22-3.024-0.412-3.87-1.685
				C396.206,141.269,397.01,140.233,396.843,138.324z"/>
			<path fill="#A0BAA1" d="M389.801,137.346c1.018,0.279,1.886,1.059,2.332,2.329c0.393,1.148,0.347,2.392-0.234,3.41l-0.01-0.038
				c-0.024-0.08-0.048-0.162-0.075-0.251l-0.047-0.135l-0.024-0.069l-0.027-0.07l-0.056-0.141l-0.06-0.148
				c-0.044-0.1-0.087-0.197-0.13-0.294l-0.034-0.073l-0.037-0.07l-0.072-0.14c-0.027-0.047-0.051-0.09-0.076-0.133l-0.075-0.129
				c-0.028-0.043-0.052-0.082-0.077-0.121l-0.075-0.113c-0.054-0.075-0.1-0.139-0.143-0.199l-0.064-0.086l-0.03-0.04l-0.03-0.036
				c-0.038-0.046-0.072-0.086-0.101-0.12c-0.053-0.07-0.083-0.11-0.083-0.11s0.025,0.044,0.07,0.121
				c0.023,0.037,0.051,0.081,0.084,0.133l0.025,0.039l0.024,0.044l0.053,0.093c0.036,0.065,0.072,0.134,0.116,0.214l0.059,0.12
				c0.02,0.041,0.039,0.082,0.06,0.126l0.057,0.133c0.018,0.045,0.037,0.089,0.056,0.138l0.053,0.143l0.027,0.071l0.023,0.073
				l0.088,0.292l0.039,0.145l0.032,0.143l0.016,0.069l0.013,0.069l0.025,0.132c0.013,0.085,0.025,0.164,0.036,0.239
				c0.005,0.037,0.009,0.072,0.014,0.105c0.003,0.034,0.006,0.065,0.008,0.095c0.002,0.028,0.004,0.054,0.006,0.079
				c-0.634-0.107-1.239-0.392-1.729-0.801c-0.478-0.439-0.852-0.977-1.028-1.622C388.467,139.616,389.408,138.98,389.801,137.346z"
				/>
			<path fill="#A0BAA1" d="M383.47,133.991c0.196,0.141,0.364,0.311,0.511,0.501c0.159,0.175,0.292,0.375,0.396,0.597
				c0.211,0.442,0.297,0.992,0.297,1.547c-0.024,1.026-0.476,2.03-1.25,2.647l0.003-0.033c0.007-0.072,0.013-0.146,0.021-0.227
				l0.005-0.124l0.003-0.063l0-0.065l0-0.132l-0.004-0.135c-0.006-0.092-0.012-0.182-0.018-0.271l-0.006-0.068l-0.009-0.066
				l-0.017-0.132c-0.008-0.045-0.015-0.087-0.022-0.128l-0.022-0.124c-0.009-0.043-0.017-0.081-0.025-0.119l-0.022-0.118
				c-0.018-0.081-0.033-0.147-0.048-0.212l-0.023-0.093l-0.011-0.043l-0.012-0.04c-0.016-0.05-0.03-0.095-0.041-0.132
				c-0.023-0.072-0.036-0.114-0.036-0.114s0.008,0.043,0.021,0.119c0.007,0.038,0.015,0.083,0.025,0.136l0.007,0.041l0.005,0.044
				c0.004,0.03,0.008,0.061,0.012,0.095c0.006,0.065,0.014,0.134,0.021,0.214l0.008,0.118c0.002,0.04,0.004,0.079,0.006,0.123
				l0.006,0.122c0.001,0.041,0.003,0.082,0.005,0.126v0.128v0.064l-0.003,0.065l-0.017,0.257l-0.012,0.126l-0.017,0.123l-0.007,0.06
				l-0.011,0.058l-0.02,0.112c-0.016,0.072-0.032,0.139-0.046,0.203c-0.008,0.031-0.015,0.061-0.022,0.089
				c-0.008,0.028-0.016,0.054-0.023,0.079l-0.02,0.065c-0.98-0.542-1.567-1.681-1.481-2.809
				C381.712,135.404,382.666,135.194,383.47,133.991z"/>
			<path fill="#A0BAA1" d="M378.278,128.153c0.264,0.355,0.402,0.791,0.468,1.228c0.071,0.433,0.027,0.9-0.144,1.367
				c-0.311,0.841-0.964,1.488-1.75,1.73l0.013-0.025c0.026-0.055,0.054-0.113,0.083-0.174l0.041-0.097l0.021-0.05l0.02-0.052
				l0.04-0.106l0.037-0.109c0.023-0.077,0.044-0.151,0.066-0.225l0.016-0.057l0.012-0.057l0.025-0.113
				c0.007-0.039,0.014-0.075,0.021-0.111l0.019-0.108c0.005-0.037,0.009-0.071,0.014-0.105l0.011-0.1
				c0.005-0.069,0.009-0.128,0.013-0.183l0.004-0.081l0.002-0.037l0-0.036c0-0.045-0.001-0.085-0.001-0.118
				c-0.001-0.064-0.001-0.102-0.001-0.102s-0.004,0.037-0.011,0.102c-0.004,0.032-0.008,0.071-0.014,0.116l-0.004,0.035
				l-0.007,0.037l-0.014,0.079c-0.011,0.054-0.022,0.11-0.036,0.176l-0.023,0.096c-0.008,0.032-0.017,0.064-0.026,0.1l-0.03,0.102
				c-0.011,0.034-0.021,0.067-0.033,0.104l-0.038,0.104l-0.019,0.053l-0.021,0.051l-0.089,0.203l-0.046,0.098l-0.049,0.093
				l-0.024,0.045l-0.025,0.043l-0.049,0.083c-0.034,0.053-0.065,0.101-0.096,0.147l-0.044,0.063l-0.042,0.056l-0.035,0.045
				c-0.563-0.761-0.811-1.773-0.405-2.702C376.52,128.823,377.344,128.92,378.278,128.153z"/>
			<path fill="#A0BAA1" d="M374.538,120.472c0.305,0.695,0.249,1.525-0.206,2.213c-0.418,0.622-1.026,0.968-1.702,0.991l0.015-0.017
				c0.031-0.038,0.062-0.076,0.096-0.118l0.049-0.067l0.026-0.035l0.026-0.037l0.052-0.075l0.051-0.08
				c0.034-0.057,0.065-0.11,0.098-0.165l0.023-0.042l0.021-0.043l0.043-0.085c0.014-0.031,0.026-0.057,0.039-0.085l0.037-0.083
				c0.012-0.03,0.022-0.055,0.033-0.082l0.029-0.079c0.018-0.056,0.033-0.101,0.048-0.146l0.02-0.065l0.009-0.03l0.007-0.029
				c0.009-0.037,0.017-0.07,0.023-0.097c0.013-0.053,0.02-0.083,0.02-0.083s-0.011,0.029-0.03,0.08
				c-0.01,0.026-0.021,0.057-0.034,0.092l-0.011,0.027l-0.013,0.028l-0.027,0.062c-0.02,0.042-0.04,0.084-0.064,0.135l-0.038,0.072
				c-0.013,0.024-0.026,0.048-0.041,0.075l-0.045,0.075c-0.015,0.025-0.03,0.049-0.047,0.076l-0.051,0.076l-0.025,0.038
				l-0.027,0.037l-0.111,0.143l-0.057,0.067l-0.057,0.063l-0.028,0.031l-0.029,0.028l-0.055,0.056
				c-0.038,0.034-0.072,0.065-0.105,0.096l-0.048,0.041l-0.043,0.035l-0.036,0.027c-0.282-0.719-0.229-1.578,0.211-2.234
				C373.044,120.685,373.683,120.917,374.538,120.472z"/>
		</g>
	</g>
</g>
<g>
	<g>
		<g>
			<path fill="#A0BAA1" stroke="#C1D1C1" stroke-width="0.25" stroke-miterlimit="10" d="M181.571,152.155
				c0.665-1.87,0.452-4.083-0.653-5.59c-0.997-1.375-2.432-1.85-3.724-1.455l0.037,0.031c0.078,0.069,0.158,0.141,0.245,0.218
				l0.127,0.126l0.066,0.066l0.064,0.071l0.131,0.146l0.127,0.154c0.086,0.103,0.166,0.218,0.247,0.331l0.061,0.085l0.056,0.089
				l0.109,0.176c0.037,0.057,0.068,0.119,0.101,0.179l0.095,0.177c0.031,0.064,0.058,0.12,0.086,0.177l0.079,0.172
				c0.052,0.109,0.089,0.22,0.127,0.32c0.018,0.05,0.036,0.098,0.053,0.144l0.024,0.067l0.021,0.065
				c0.025,0.084,0.047,0.158,0.065,0.219c0.036,0.121,0.057,0.19,0.057,0.19s-0.028-0.065-0.076-0.18
				c-0.024-0.057-0.054-0.125-0.087-0.204l-0.026-0.06l-0.031-0.062c-0.021-0.042-0.043-0.086-0.067-0.132
				c-0.047-0.091-0.095-0.193-0.156-0.291l-0.092-0.153c-0.033-0.052-0.063-0.107-0.101-0.157l-0.109-0.155
				c-0.038-0.051-0.073-0.106-0.114-0.155l-0.121-0.15l-0.061-0.075l-0.064-0.07c-0.086-0.093-0.173-0.191-0.264-0.273l-0.133-0.126
				l-0.134-0.114l-0.065-0.055l-0.066-0.05l-0.127-0.097c-0.085-0.055-0.165-0.116-0.242-0.16c-0.038-0.023-0.074-0.045-0.108-0.066
				c-0.035-0.019-0.068-0.037-0.1-0.054c-0.029-0.015-0.057-0.029-0.083-0.042c-0.283,1.697-0.019,3.44,0.902,4.873
				C178.584,151.798,179.857,151.175,181.571,152.155z"/>
			<path fill="#A0BAA1" d="M177.169,162.722c1.043-1.493,1.411-3.475,0.797-5.002c-0.531-1.381-1.662-2.079-2.857-2.145l0.024,0.034
				c0.054,0.072,0.102,0.154,0.157,0.239l0.078,0.136l0.04,0.071l0.038,0.075l0.076,0.153l0.072,0.162
				c0.049,0.108,0.091,0.224,0.133,0.339l0.031,0.087l0.027,0.089l0.054,0.177c0.016,0.063,0.031,0.12,0.045,0.178l0.042,0.175
				c0.012,0.062,0.022,0.117,0.034,0.172l0.024,0.165c0.017,0.107,0.022,0.211,0.03,0.307c0.003,0.048,0.007,0.093,0.01,0.137
				l0.004,0.063l0.001,0.061c0.001,0.078,0.002,0.147,0.002,0.204c0.001,0.112,0.002,0.178,0.002,0.178s-0.008-0.063-0.021-0.173
				c-0.007-0.055-0.015-0.121-0.025-0.197l-0.008-0.058l-0.012-0.061c-0.008-0.041-0.016-0.084-0.025-0.13
				c-0.018-0.09-0.035-0.188-0.063-0.289l-0.041-0.153c-0.014-0.052-0.028-0.106-0.049-0.159l-0.059-0.16
				c-0.021-0.053-0.041-0.104-0.063-0.161l-0.07-0.158l-0.035-0.08l-0.039-0.076c-0.052-0.102-0.104-0.203-0.162-0.297l-0.084-0.14
				l-0.088-0.13l-0.043-0.063l-0.045-0.059l-0.086-0.114c-0.06-0.07-0.115-0.134-0.168-0.195l-0.077-0.083l-0.072-0.071l-0.06-0.056
				c-0.665,1.353-0.858,2.956-0.418,4.427C174.684,161.689,175.932,161.446,177.169,162.722z"/>
			<path fill="#A0BAA1" d="M169.598,171.672c0.681-0.466,1.244-1.107,1.625-1.819c0.402-0.695,0.604-1.468,0.576-2.212
				c-0.038-1.338-0.772-2.238-1.774-2.636l0.01,0.036c0.019,0.078,0.039,0.159,0.061,0.247l0.025,0.138l0.013,0.072l0.01,0.074
				l0.019,0.152l0.012,0.159c0.009,0.106,0.01,0.216,0.011,0.327v0.083l-0.003,0.083l-0.008,0.167
				c-0.005,0.058-0.01,0.111-0.015,0.165l-0.017,0.162c-0.008,0.056-0.016,0.106-0.023,0.157l-0.026,0.15
				c-0.016,0.098-0.039,0.191-0.059,0.276c-0.012,0.041-0.023,0.08-0.035,0.118l-0.016,0.055l-0.018,0.052
				c-0.024,0.066-0.045,0.125-0.062,0.173c-0.034,0.096-0.054,0.15-0.054,0.15s0.014-0.055,0.037-0.152
				c0.011-0.048,0.024-0.105,0.041-0.173l0.012-0.052l0.009-0.054c0.006-0.037,0.013-0.076,0.02-0.117
				c0.015-0.08,0.024-0.173,0.029-0.267l0.008-0.145c0.001-0.049,0.003-0.096,0.005-0.15l-0.001-0.153
				c-0.001-0.051-0.003-0.101-0.005-0.156l-0.012-0.155l-0.006-0.078l-0.01-0.077c-0.014-0.102-0.027-0.202-0.048-0.299l-0.03-0.143
				l-0.036-0.136l-0.017-0.065l-0.021-0.063l-0.039-0.121c-0.03-0.076-0.058-0.146-0.084-0.213l-0.041-0.092l-0.04-0.08
				l-0.034-0.065c-0.956,0.969-1.611,2.262-1.675,3.647C167.806,170.059,168.946,170.232,169.598,171.672z"/>
			<path fill="#A0BAA1" d="M159.532,177.417c1.323-0.403,2.546-1.337,2.954-2.585c0.384-1.099,0.079-2.07-0.605-2.717l-0.003,0.033
				c-0.009,0.069-0.019,0.143-0.029,0.221l-0.023,0.121l-0.012,0.062l-0.016,0.064l-0.033,0.13l-0.04,0.133
				c-0.032,0.092-0.063,0.181-0.094,0.271l-0.025,0.067l-0.03,0.067l-0.059,0.133c-0.022,0.045-0.043,0.087-0.063,0.13l-0.065,0.125
				c-0.024,0.043-0.046,0.082-0.068,0.121l-0.068,0.114c-0.05,0.078-0.093,0.144-0.133,0.206l-0.062,0.09l-0.03,0.04l-0.03,0.036
				c-0.04,0.045-0.075,0.086-0.103,0.119c-0.057,0.065-0.09,0.104-0.09,0.104s0.028-0.04,0.076-0.111
				c0.024-0.035,0.053-0.078,0.086-0.126l0.025-0.038l0.024-0.042c0.016-0.029,0.033-0.06,0.05-0.092
				c0.032-0.064,0.066-0.132,0.105-0.21l0.051-0.116c0.017-0.039,0.033-0.078,0.051-0.121l0.047-0.125
				c0.015-0.042,0.029-0.083,0.044-0.128l0.039-0.13l0.02-0.065l0.016-0.065l0.055-0.259l0.021-0.126l0.014-0.122l0.007-0.06
				l0.003-0.058l0.007-0.111c0-0.072,0-0.138-0.001-0.201c-0.001-0.031-0.002-0.06-0.003-0.088
				c-0.002-0.028-0.004-0.054-0.006-0.078l-0.007-0.064c-1.083,0.497-2.029,1.33-2.491,2.442
				C158.548,175.565,159.416,176.046,159.532,177.417z"/>
			<path fill="#A0BAA1" d="M148.775,179.569c1.114-0.017,2.256-0.439,2.884-1.34c0.568-0.793,0.589-1.669,0.217-2.379l-0.011,0.026
				c-0.026,0.055-0.053,0.112-0.082,0.173l-0.05,0.092l-0.026,0.048l-0.029,0.048l-0.059,0.098l-0.066,0.099
				c-0.049,0.067-0.097,0.131-0.144,0.196l-0.037,0.049l-0.041,0.047l-0.08,0.093c-0.029,0.032-0.056,0.06-0.083,0.089l-0.082,0.086
				c-0.03,0.029-0.057,0.054-0.084,0.08l-0.082,0.076c-0.053,0.05-0.107,0.086-0.156,0.124l-0.071,0.053l-0.033,0.024l-0.033,0.021
				c-0.042,0.027-0.079,0.052-0.11,0.071c-0.06,0.039-0.095,0.062-0.095,0.062s0.031-0.025,0.086-0.071
				c0.027-0.022,0.06-0.05,0.098-0.082l0.029-0.024l0.029-0.027l0.062-0.059c0.041-0.041,0.084-0.084,0.135-0.134l0.069-0.08
				c0.023-0.028,0.045-0.055,0.071-0.085l0.068-0.09c0.022-0.03,0.044-0.06,0.067-0.093l0.064-0.096l0.031-0.048l0.03-0.049
				l0.109-0.197l0.049-0.098l0.042-0.096l0.021-0.046l0.018-0.047l0.034-0.089c0.019-0.059,0.036-0.113,0.052-0.165l0.02-0.073
				l0.016-0.066l0.011-0.055c-0.995,0.124-1.969,0.537-2.589,1.343C148.398,177.804,148.981,178.404,148.775,179.569z"/>
			<path fill="#A0BAA1" d="M138.413,179.204c0.868,0.17,1.827-0.039,2.462-0.617c0.575-0.521,0.756-1.224,0.593-1.875l-0.014,0.018
				c-0.03,0.039-0.062,0.079-0.096,0.123l-0.056,0.064l-0.029,0.033l-0.031,0.033l-0.064,0.066l-0.069,0.066l-0.148,0.128
				l-0.038,0.031l-0.04,0.029l-0.079,0.059c-0.029,0.02-0.054,0.037-0.081,0.055l-0.08,0.052c-0.029,0.018-0.053,0.032-0.079,0.048
				l-0.077,0.043c-0.056,0.029-0.1,0.052-0.145,0.075l-0.065,0.032l-0.03,0.015l-0.029,0.013c-0.038,0.016-0.071,0.029-0.099,0.041
				c-0.054,0.022-0.085,0.035-0.085,0.035s0.029-0.016,0.08-0.044c0.025-0.014,0.056-0.031,0.091-0.051l0.027-0.015l0.027-0.018
				l0.059-0.039c0.04-0.027,0.081-0.055,0.13-0.088l0.068-0.051c0.022-0.018,0.044-0.035,0.07-0.054l0.069-0.059l0.069-0.061
				l0.067-0.064l0.033-0.032l0.032-0.034l0.121-0.136l0.056-0.068l0.051-0.069l0.025-0.033l0.022-0.034l0.043-0.065
				c0.025-0.044,0.048-0.083,0.071-0.122l0.029-0.055l0.024-0.05l0.019-0.042c-0.808-0.136-1.668,0.081-2.289,0.638
				C138.383,177.7,138.753,178.281,138.413,179.204z"/>
			<path fill="#A0BAA1" d="M175.618,144.92c0,0-0.007,0.886-0.181,2.366c-0.17,1.482-0.512,3.586-1.225,6.04
				c-0.704,2.45-1.808,5.253-3.471,8.007c-0.823,1.381-1.821,2.72-2.915,4.012c-1.139,1.25-2.351,2.487-3.731,3.522
				c-2.704,2.143-5.828,3.704-8.879,4.678c-3.048,1.014-6.013,1.434-8.537,1.655c-0.633,0.046-1.239,0.091-1.816,0.134
				c-0.577,0.009-1.124,0.018-1.637,0.025c-1.028,0.02-1.924,0.021-2.658-0.033c-1.47-0.072-2.31-0.112-2.31-0.112
				s0.841,0.009,2.313,0.026c0.734,0.027,1.628-0.008,2.652-0.066c0.511-0.027,1.055-0.056,1.629-0.086
				c0.572-0.063,1.173-0.13,1.8-0.2c2.498-0.312,5.415-0.838,8.367-1.945c2.957-1.067,5.934-2.702,8.458-4.864
				c1.291-1.044,2.408-2.278,3.453-3.514c1-1.278,1.904-2.591,2.64-3.94c1.487-2.689,2.438-5.405,3.02-7.769
				c0.591-2.367,0.838-4.384,0.944-5.79c0.11-1.41,0.083-2.191,0.083-2.191"/>
			<path fill="#A0BAA1" stroke="#C1D1C1" stroke-width="0.25" stroke-miterlimit="10" d="M164.682,152.991
				c0.22-1.22,1.056-2.317,2.466-2.946c1.273-0.56,2.71-0.596,3.91-0.015l-0.042,0.014c-0.09,0.034-0.182,0.069-0.281,0.106
				l-0.151,0.064l-0.079,0.033l-0.08,0.037l-0.161,0.074l-0.162,0.082c-0.109,0.053-0.215,0.116-0.32,0.176l-0.079,0.045
				l-0.077,0.048l-0.151,0.096c-0.052,0.036-0.097,0.067-0.144,0.099l-0.139,0.098c-0.048,0.036-0.09,0.066-0.133,0.098
				l-0.125,0.096c-0.083,0.059-0.154,0.124-0.222,0.18l-0.095,0.082l-0.044,0.038l-0.04,0.038c-0.05,0.048-0.094,0.091-0.13,0.126
				c-0.071,0.069-0.113,0.109-0.113,0.109s0.046-0.034,0.127-0.094c0.041-0.03,0.089-0.066,0.146-0.109l0.043-0.032l0.049-0.031
				c0.033-0.022,0.068-0.045,0.105-0.069c0.074-0.047,0.15-0.102,0.239-0.15l0.134-0.078c0.046-0.025,0.091-0.05,0.142-0.079
				l0.148-0.076c0.05-0.026,0.098-0.05,0.151-0.078l0.156-0.073l0.079-0.037l0.081-0.033c0.107-0.044,0.214-0.091,0.323-0.127
				l0.16-0.057l0.158-0.049l0.077-0.024l0.077-0.021l0.147-0.041c0.097-0.021,0.187-0.041,0.273-0.06
				c0.042-0.008,0.082-0.016,0.121-0.023c0.039-0.006,0.075-0.012,0.109-0.018c0.032-0.004,0.062-0.008,0.09-0.013
				c-0.126,1.479-1.102,2.847-2.536,3.375C167.398,154.293,166.578,153.271,164.682,152.991z"/>
			<path fill="#A0BAA1" d="M162.098,159.614c0.508-0.926,1.467-1.589,2.806-1.728c1.208-0.116,2.407,0.216,3.262,1.018l-0.038,0.001
				c-0.083,0.005-0.169,0.01-0.262,0.015l-0.142,0.015l-0.073,0.007l-0.074,0.011l-0.15,0.021l-0.158,0.024
				c-0.108,0.02-0.212,0.04-0.316,0.059l-0.079,0.016l-0.077,0.02l-0.153,0.038c-0.052,0.015-0.1,0.029-0.147,0.042l-0.143,0.043
				c-0.049,0.017-0.092,0.032-0.135,0.046l-0.127,0.047c-0.086,0.035-0.158,0.065-0.227,0.093l-0.099,0.043l-0.046,0.02
				l-0.042,0.021c-0.053,0.027-0.101,0.051-0.14,0.07c-0.081,0.036-0.126,0.056-0.126,0.056s0.049-0.015,0.134-0.04
				c0.042-0.014,0.091-0.031,0.149-0.051l0.044-0.016l0.048-0.014c0.033-0.009,0.067-0.019,0.103-0.029
				c0.072-0.02,0.147-0.04,0.235-0.063l0.13-0.029c0.044-0.009,0.088-0.019,0.137-0.029l0.143-0.024
				c0.048-0.008,0.095-0.015,0.147-0.023l0.151-0.019l0.076-0.009l0.077-0.006l0.305-0.018l0.15-0.005l0.146,0.002h0.071l0.07,0.004
				l0.135,0.006c0.086,0.007,0.165,0.014,0.241,0.02c0.037,0.004,0.072,0.007,0.105,0.011c0.033,0.005,0.065,0.009,0.094,0.014
				c0.028,0.004,0.053,0.008,0.078,0.012c-0.251,0.592-0.668,1.115-1.18,1.496c-0.538,0.363-1.147,0.603-1.816,0.625
				C163.997,161.438,163.597,160.376,162.098,159.614z"/>
			<path fill="#A0BAA1" d="M157.367,164.996c0.182-0.158,0.387-0.282,0.605-0.381c0.207-0.114,0.432-0.197,0.672-0.247
				c0.479-0.103,1.034-0.06,1.574,0.07c0.992,0.261,1.864,0.933,2.285,1.829l-0.031-0.012c-0.069-0.023-0.14-0.046-0.216-0.072
				l-0.119-0.034l-0.061-0.018l-0.063-0.016l-0.128-0.031l-0.132-0.027c-0.092-0.016-0.18-0.031-0.268-0.046l-0.067-0.01
				l-0.067-0.006l-0.132-0.014c-0.046-0.003-0.088-0.006-0.13-0.009l-0.126-0.006c-0.044-0.001-0.083-0.002-0.122-0.003l-0.12-0.006
				c-0.083-0.001-0.151-0.002-0.217-0.002l-0.095,0.001l-0.044,0l-0.042,0.002c-0.052,0.004-0.099,0.007-0.138,0.01
				c-0.075,0.005-0.119,0.008-0.119,0.008s0.044,0.002,0.121,0.007c0.038,0.002,0.084,0.005,0.138,0.008l0.041,0.002l0.044,0.005
				c0.03,0.003,0.062,0.007,0.095,0.011c0.065,0.009,0.133,0.018,0.213,0.028l0.116,0.02c0.039,0.007,0.078,0.014,0.121,0.022
				l0.121,0.022c0.04,0.008,0.08,0.016,0.124,0.025l0.125,0.03l0.062,0.015l0.062,0.018l0.247,0.076l0.12,0.041l0.115,0.045
				l0.056,0.021l0.054,0.024l0.104,0.045c0.066,0.033,0.128,0.063,0.187,0.092l0.082,0.042l0.072,0.041l0.058,0.035
				c-0.754,0.828-1.999,1.135-3.075,0.79C158.335,167.034,158.351,166.057,157.367,164.996z"/>
			<path fill="#A0BAA1" d="M150.485,168.694c0.407-0.174,0.863-0.208,1.303-0.171c0.438,0.031,0.882,0.182,1.296,0.457
				c0.747,0.497,1.224,1.283,1.278,2.104l-0.022-0.019c-0.047-0.039-0.097-0.079-0.15-0.122l-0.085-0.062l-0.044-0.032l-0.046-0.031
				l-0.094-0.063l-0.098-0.061c-0.07-0.04-0.137-0.078-0.203-0.116l-0.051-0.028l-0.053-0.025l-0.104-0.051
				c-0.036-0.016-0.07-0.031-0.104-0.046l-0.101-0.043c-0.035-0.013-0.067-0.025-0.099-0.038l-0.095-0.034
				c-0.066-0.021-0.122-0.039-0.175-0.055l-0.078-0.022l-0.036-0.011l-0.035-0.008c-0.044-0.01-0.083-0.019-0.115-0.025
				c-0.062-0.014-0.099-0.022-0.099-0.022s0.035,0.012,0.096,0.035c0.031,0.011,0.067,0.024,0.11,0.04l0.033,0.012l0.034,0.016
				l0.074,0.032c0.05,0.023,0.103,0.047,0.164,0.075l0.088,0.045c0.029,0.016,0.059,0.031,0.091,0.048l0.092,0.053
				c0.031,0.019,0.061,0.036,0.093,0.056l0.093,0.061l0.046,0.031l0.045,0.033l0.177,0.133l0.084,0.068l0.079,0.069l0.039,0.034
				l0.036,0.035l0.07,0.067c0.043,0.045,0.083,0.087,0.122,0.127l0.051,0.058l0.045,0.053l0.035,0.044
				c-0.871,0.372-1.913,0.377-2.722-0.231C150.729,170.56,151.015,169.78,150.485,168.694z"/>
			<path fill="#A0BAA1" d="M142.146,170.553c0.747-0.136,1.541,0.111,2.104,0.713c0.508,0.551,0.704,1.222,0.57,1.885l-0.013-0.018
				c-0.029-0.038-0.06-0.078-0.092-0.12l-0.054-0.063l-0.028-0.033l-0.03-0.034l-0.061-0.069l-0.065-0.068l-0.138-0.133
				l-0.035-0.033l-0.037-0.031l-0.073-0.062c-0.027-0.021-0.05-0.039-0.074-0.058l-0.073-0.055
				c-0.026-0.019-0.049-0.034-0.072-0.051l-0.07-0.046c-0.05-0.031-0.091-0.056-0.13-0.081l-0.059-0.034l-0.027-0.016l-0.026-0.014
				c-0.034-0.017-0.064-0.032-0.088-0.044c-0.049-0.025-0.076-0.039-0.076-0.039s0.026,0.018,0.071,0.048
				c0.023,0.015,0.05,0.034,0.082,0.055l0.024,0.016l0.025,0.019l0.053,0.041c0.036,0.029,0.072,0.058,0.117,0.094l0.062,0.053
				c0.021,0.019,0.041,0.037,0.063,0.057l0.063,0.061l0.063,0.064l0.062,0.066l0.031,0.034l0.029,0.035l0.113,0.141l0.052,0.071
				l0.048,0.07l0.023,0.034l0.021,0.035l0.042,0.066c0.024,0.044,0.047,0.085,0.068,0.125l0.028,0.056l0.024,0.051l0.019,0.041
				c-0.765,0.108-1.588-0.143-2.125-0.723C142.008,172.055,142.381,171.488,142.146,170.553z"/>
		</g>
	</g>
</g>
<g>
	<g>
		<g>
			<path fill="#A0BAA1" stroke="#C1D1C1" stroke-width="0.25" stroke-miterlimit="10" d="M649.402,44.803
				c0.137-1.271-0.392-2.558-1.566-3.492c-1.06-0.829-2.438-1.186-3.744-1.06l0.036,0.023c0.076,0.046,0.155,0.108,0.241,0.169
				l0.127,0.099l0.065,0.051l0.064,0.054l0.132,0.109l0.132,0.12c0.09,0.079,0.173,0.165,0.258,0.249l0.062,0.062l0.06,0.065
				l0.121,0.131c0.04,0.047,0.076,0.089,0.113,0.132l0.108,0.129c0.035,0.046,0.066,0.086,0.099,0.127l0.091,0.123
				c0.063,0.079,0.114,0.16,0.163,0.231l0.07,0.104l0.032,0.048l0.027,0.046c0.035,0.06,0.065,0.112,0.091,0.155
				c0.05,0.085,0.079,0.134,0.079,0.134s-0.035-0.045-0.097-0.124c-0.031-0.04-0.068-0.088-0.11-0.143l-0.033-0.042l-0.039-0.043
				l-0.082-0.093c-0.058-0.065-0.116-0.138-0.189-0.208l-0.106-0.109c-0.036-0.037-0.071-0.072-0.111-0.112l-0.12-0.112
				c-0.041-0.037-0.081-0.073-0.126-0.113l-0.131-0.111l-0.066-0.056l-0.069-0.053c-0.092-0.071-0.18-0.142-0.274-0.205
				l-0.138-0.096l-0.138-0.089l-0.066-0.043l-0.068-0.041l-0.13-0.078c-0.087-0.046-0.166-0.088-0.242-0.129
				c-0.038-0.019-0.074-0.037-0.108-0.054c-0.035-0.016-0.068-0.031-0.099-0.046c-0.029-0.013-0.057-0.025-0.083-0.037
				c-0.293,1.399,0.259,3.002,1.502,3.907C646.43,45.303,647.5,44.54,649.402,44.803z"/>
			<path fill="#A0BAA1" d="M650.43,51.944c-0.171-1.102-0.952-2.067-2.203-2.645c-1.144-0.505-2.444-0.538-3.522-0.018l0.037,0.013
				c0.081,0.03,0.166,0.061,0.257,0.095l0.138,0.057l0.07,0.029l0.071,0.033l0.145,0.066l0.146,0.074
				c0.099,0.054,0.192,0.106,0.287,0.158l0.071,0.041l0.068,0.043l0.136,0.086c0.046,0.032,0.088,0.061,0.13,0.089l0.124,0.088
				c0.041,0.032,0.078,0.061,0.116,0.089l0.111,0.085c0.075,0.054,0.14,0.111,0.2,0.162l0.087,0.073l0.04,0.034l0.036,0.033
				c0.045,0.043,0.085,0.082,0.118,0.113c0.064,0.062,0.103,0.098,0.103,0.098s-0.042-0.031-0.115-0.084
				c-0.037-0.027-0.081-0.06-0.133-0.097l-0.039-0.029l-0.045-0.028c-0.029-0.019-0.062-0.04-0.095-0.061
				c-0.065-0.041-0.135-0.084-0.217-0.134l-0.121-0.069c-0.04-0.023-0.08-0.046-0.125-0.072l-0.131-0.07
				c-0.044-0.023-0.088-0.045-0.136-0.07l-0.14-0.065l-0.07-0.034l-0.072-0.03c-0.097-0.038-0.192-0.076-0.29-0.115l-0.145-0.052
				l-0.142-0.044l-0.069-0.022l-0.069-0.019l-0.133-0.036c-0.087-0.02-0.168-0.038-0.245-0.054
				c-0.038-0.008-0.073-0.015-0.108-0.021c-0.034-0.005-0.067-0.011-0.098-0.016c-0.029-0.004-0.056-0.008-0.081-0.011
				c0.115,1.322,0.969,2.553,2.266,3.024C647.963,53.111,648.719,52.194,650.43,51.944z"/>
			<path fill="#A0BAA1" d="M653.425,58.166c-0.243-0.415-0.577-0.765-1.002-1.028c-0.445-0.245-0.968-0.416-1.565-0.465
				c-1.09-0.077-2.212,0.281-2.963,1.013l0.036,0c0.076,0.001,0.156,0.002,0.242,0.003l0.132,0.008l0.068,0.003l0.068,0.006
				l0.14,0.013l0.143,0.018c0.098,0.016,0.191,0.031,0.285,0.046l0.071,0.013l0.069,0.016l0.138,0.031
				c0.047,0.012,0.09,0.024,0.133,0.035l0.129,0.036c0.043,0.014,0.082,0.026,0.121,0.039l0.114,0.04
				c0.078,0.03,0.144,0.055,0.206,0.079l0.094,0.033l0.043,0.015l0.04,0.017c0.051,0.021,0.096,0.04,0.133,0.056
				c0.072,0.03,0.114,0.048,0.114,0.048s-0.044-0.012-0.121-0.034c-0.039-0.011-0.085-0.023-0.14-0.039l-0.042-0.011l-0.045-0.009
				c-0.031-0.007-0.063-0.014-0.099-0.021c-0.064-0.015-0.133-0.031-0.214-0.05l-0.117-0.024c-0.04-0.007-0.078-0.015-0.123-0.023
				l-0.128-0.019c-0.044-0.006-0.087-0.012-0.133-0.018l-0.136-0.013l-0.068-0.007l-0.069-0.003l-0.275-0.01l-0.135,0l-0.132,0.005
				l-0.063,0.001l-0.063,0.005l-0.122,0.009c-0.078,0.009-0.151,0.018-0.221,0.026l-0.097,0.014
				c-0.031,0.006-0.06,0.011-0.087,0.016l-0.071,0.014c0.46,1.064,1.537,1.824,2.74,1.834
				C651.715,59.86,652.068,58.889,653.425,58.166z"/>
			<path fill="#A0BAA1" d="M658.483,63.051c-0.652-0.622-1.644-0.768-2.645-0.493c-0.92,0.275-1.713,0.928-2.089,1.768l0.029-0.012
				c0.062-0.023,0.128-0.048,0.198-0.075l0.109-0.036l0.057-0.018l0.058-0.017l0.118-0.034l0.122-0.03
				c0.084-0.018,0.165-0.035,0.247-0.052l0.062-0.012l0.062-0.008l0.122-0.018c0.042-0.004,0.081-0.008,0.12-0.013l0.116-0.01
				c0.04-0.002,0.076-0.004,0.112-0.006l0.106-0.003c0.073,0,0.135,0.001,0.193,0.001l0.085,0.002h0.041l0.038,0
				c0.05,0.002,0.094,0.003,0.129,0.004c0.07,0.002,0.111,0.003,0.111,0.003s-0.041,0.004-0.112,0.01
				c-0.036,0.003-0.079,0.007-0.129,0.012l-0.038,0.003l-0.041,0.007l-0.086,0.009c-0.058,0.007-0.118,0.015-0.189,0.024
				l-0.104,0.017c-0.035,0.006-0.069,0.012-0.108,0.02l-0.111,0.024c-0.037,0.009-0.074,0.018-0.114,0.027l-0.115,0.032
				l-0.058,0.016l-0.058,0.019l-0.228,0.079l-0.109,0.042l-0.106,0.045l-0.051,0.022l-0.05,0.024l-0.097,0.045
				c-0.061,0.033-0.117,0.063-0.171,0.092l-0.074,0.042l-0.065,0.041l-0.054,0.034c0.706,0.731,1.833,1,2.836,0.65
				C657.58,64.968,657.571,64.047,658.483,63.051z"/>
			<path fill="#A0BAA1" d="M665.437,66.334c-0.752-0.378-1.701-0.259-2.479,0.219c-0.708,0.45-1.169,1.193-1.239,1.985l0.021-0.018
				c0.045-0.035,0.092-0.072,0.143-0.112l0.08-0.057l0.042-0.029l0.043-0.028l0.089-0.058l0.093-0.055
				c0.065-0.036,0.128-0.07,0.191-0.105l0.048-0.025l0.05-0.023l0.098-0.045c0.035-0.014,0.065-0.027,0.098-0.04l0.095-0.038
				c0.034-0.012,0.063-0.022,0.094-0.032l0.089-0.029c0.063-0.021,0.117-0.038,0.168-0.055l0.075-0.023l0.035-0.011l0.033-0.009
				c0.042-0.01,0.08-0.02,0.111-0.027c0.061-0.015,0.096-0.023,0.096-0.023s-0.033,0.013-0.093,0.035
				c-0.03,0.011-0.066,0.025-0.107,0.041l-0.031,0.012l-0.033,0.015l-0.071,0.032c-0.049,0.023-0.1,0.047-0.158,0.076l-0.084,0.041
				c-0.027,0.014-0.055,0.028-0.086,0.043l-0.087,0.048c-0.028,0.017-0.057,0.033-0.088,0.051l-0.088,0.055l-0.044,0.028
				l-0.043,0.03l-0.167,0.122l-0.08,0.062l-0.075,0.064l-0.036,0.031l-0.035,0.032l-0.066,0.062
				c-0.041,0.042-0.079,0.082-0.115,0.119l-0.05,0.054l-0.043,0.05l-0.034,0.042c0.783,0.425,1.798,0.338,2.562-0.178
				C665.144,68.12,664.903,67.356,665.437,66.334z"/>
			<path fill="#A0BAA1" d="M673.578,68.057c-0.725-0.181-1.519,0.017-2.104,0.584c-0.527,0.512-0.762,1.207-0.664,1.858l0.014-0.018
				c0.031-0.038,0.063-0.078,0.098-0.12l0.057-0.063l0.029-0.033l0.03-0.032l0.063-0.065l0.068-0.064l0.142-0.125l0.036-0.031
				l0.037-0.028l0.075-0.057c0.026-0.019,0.051-0.036,0.075-0.053l0.074-0.05c0.026-0.017,0.049-0.031,0.072-0.046l0.071-0.042
				c0.051-0.028,0.092-0.05,0.132-0.072l0.06-0.031l0.027-0.014l0.026-0.012c0.034-0.015,0.064-0.028,0.089-0.039
				c0.049-0.022,0.077-0.034,0.077-0.034s-0.026,0.016-0.072,0.043c-0.023,0.014-0.051,0.03-0.083,0.05l-0.024,0.015l-0.025,0.018
				l-0.055,0.037c-0.036,0.026-0.074,0.054-0.119,0.086l-0.063,0.049c-0.021,0.017-0.042,0.034-0.065,0.053l-0.064,0.057
				l-0.065,0.06l-0.064,0.062l-0.032,0.032l-0.03,0.033l-0.118,0.134l-0.055,0.067l-0.052,0.067l-0.024,0.033l-0.022,0.033
				l-0.044,0.064c-0.027,0.043-0.051,0.083-0.074,0.12l-0.031,0.054l-0.026,0.049l-0.021,0.041c0.74,0.15,1.556-0.048,2.114-0.596
				C673.621,69.564,673.29,68.976,673.578,68.057z"/>
			<path fill="#A0BAA1" d="M642.528,39.994c0,0-0.089,0.762-0.094,2.159c-0.01,1.392,0.07,3.397,0.457,5.762
				c0.378,2.361,1.089,5.083,2.308,7.793c0.601,1.36,1.365,2.69,2.217,3.99c0.9,1.262,1.861,2.521,3.002,3.612
				c2.218,2.245,4.89,4.017,7.597,5.259c2.696,1.278,5.425,2.01,7.775,2.506c0.591,0.117,1.157,0.229,1.696,0.335
				c0.546,0.075,1.063,0.146,1.55,0.212c0.972,0.137,1.821,0.244,2.529,0.276c1.411,0.103,2.217,0.162,2.217,0.162
				s-0.809-0.028-2.224-0.076c-0.711-0.005-1.566-0.079-2.548-0.179c-0.491-0.048-1.014-0.099-1.564-0.153
				c-0.547-0.086-1.121-0.177-1.721-0.271c-2.387-0.409-5.175-1.041-7.978-2.239c-2.812-1.161-5.64-2.877-8.036-5.125
				c-1.231-1.091-2.285-2.365-3.278-3.653c-0.942-1.324-1.797-2.692-2.481-4.094c-1.386-2.795-2.237-5.623-2.726-8.084
				c-0.499-2.465-0.662-4.568-0.706-6.044c-0.05-1.475,0.018-2.344,0.018-2.344"/>
			<path fill="#A0BAA1" stroke="#C1D1C1" stroke-width="0.25" stroke-miterlimit="10" d="M634.626,53.05
				c-0.76-1.876-0.594-4.105,0.45-5.591c0.938-1.35,2.351-1.805,3.655-1.56l-0.035,0.03c-0.075,0.068-0.153,0.139-0.236,0.216
				l-0.123,0.126l-0.062,0.065l-0.061,0.07l-0.122,0.145l-0.12,0.155c-0.082,0.104-0.157,0.218-0.232,0.331l-0.057,0.085
				l-0.053,0.088l-0.104,0.177c-0.036,0.057-0.064,0.12-0.096,0.18l-0.092,0.178c-0.03,0.057-0.052,0.118-0.076,0.176l-0.069,0.171
				c-0.048,0.11-0.081,0.222-0.116,0.322c-0.017,0.05-0.033,0.098-0.048,0.145l-0.022,0.067l-0.018,0.065
				c-0.023,0.084-0.043,0.158-0.059,0.219c-0.032,0.121-0.051,0.191-0.051,0.191s0.025-0.066,0.07-0.181
				c0.022-0.057,0.049-0.126,0.08-0.206l0.024-0.061l0.029-0.062c0.02-0.042,0.04-0.087,0.062-0.134
				c0.044-0.092,0.088-0.195,0.146-0.293l0.086-0.154c0.029-0.052,0.058-0.107,0.092-0.158l0.102-0.156
				c0.037-0.052,0.071-0.101,0.111-0.157l0.117-0.152l0.059-0.076l0.062-0.072c0.083-0.095,0.165-0.192,0.253-0.276l0.128-0.128
				l0.129-0.117l0.062-0.057l0.064-0.052l0.123-0.1c0.083-0.059,0.159-0.113,0.232-0.165c0.037-0.024,0.071-0.047,0.104-0.069
				c0.034-0.02,0.066-0.039,0.097-0.057c0.028-0.016,0.055-0.031,0.079-0.045c0.354,1.63,0.159,3.398-0.714,4.866
				C637.599,52.579,636.302,51.998,634.626,53.05z"/>
			<path fill="#A0BAA1" d="M640.234,63.432c-1.171-1.368-1.637-3.312-1.166-4.837c0.415-1.383,1.494-2.134,2.642-2.268l-0.022,0.035
				c-0.045,0.077-0.091,0.157-0.141,0.243l-0.07,0.139l-0.036,0.071l-0.034,0.075l-0.067,0.155l-0.058,0.161
				c-0.039,0.108-0.07,0.223-0.103,0.337l-0.023,0.086l-0.02,0.087l-0.038,0.175c-0.011,0.062-0.02,0.119-0.03,0.176l-0.026,0.172
				c-0.007,0.062-0.013,0.115-0.019,0.169c-0.005,0.057-0.01,0.109-0.015,0.164c-0.011,0.106-0.012,0.208-0.015,0.303
				c-0.001,0.047-0.002,0.092-0.004,0.135l-0.001,0.063l0.002,0.06c0.003,0.076,0.006,0.144,0.009,0.2
				c0.009,0.109,0.014,0.172,0.014,0.172s0.002-0.062,0.005-0.169c0.004-0.054,0.008-0.118,0.013-0.194l0.005-0.058l0.009-0.061
				c0.006-0.041,0.012-0.084,0.018-0.129c0.014-0.09,0.025-0.188,0.047-0.288l0.033-0.153c0.012-0.051,0.023-0.102,0.036-0.158
				l0.044-0.159c0.017-0.052,0.032-0.104,0.049-0.16l0.056-0.158l0.028-0.079l0.032-0.077c0.043-0.102,0.086-0.203,0.135-0.297
				l0.071-0.141l0.075-0.131l0.037-0.063l0.039-0.06l0.075-0.115c0.055-0.071,0.105-0.138,0.153-0.2l0.071-0.085l0.066-0.073
				l0.056-0.059c0.37,0.633,0.627,1.333,0.743,2.061c0.146,0.715,0.126,1.476-0.035,2.206
				C642.578,62.225,641.329,62.095,640.234,63.432z"/>
			<path fill="#A0BAA1" d="M648.954,71.249c-0.323-0.182-0.633-0.394-0.913-0.638c-0.269-0.26-0.512-0.546-0.72-0.849
				c-0.414-0.607-0.698-1.262-0.729-1.963c-0.078-1.245,0.519-2.159,1.402-2.636l-0.006,0.034c-0.011,0.075-0.022,0.152-0.035,0.235
				l-0.012,0.131l-0.005,0.068l-0.003,0.07l-0.005,0.143l0.002,0.148c0.006,0.104,0.012,0.205,0.018,0.305l0.007,0.077l0.011,0.077
				l0.021,0.153c0.01,0.054,0.019,0.103,0.027,0.151l0.029,0.148c0.01,0.048,0.021,0.098,0.036,0.142l0.042,0.131
				c0.025,0.085,0.058,0.165,0.087,0.238c0.014,0.037,0.027,0.072,0.041,0.105l0.02,0.049l0.021,0.045
				c0.027,0.058,0.052,0.11,0.071,0.153c0.04,0.084,0.062,0.132,0.062,0.132s-0.017-0.049-0.046-0.136
				c-0.015-0.043-0.032-0.095-0.052-0.155l-0.016-0.046l-0.013-0.05c-0.009-0.034-0.018-0.068-0.027-0.106
				c-0.019-0.073-0.041-0.152-0.056-0.237l-0.024-0.128c-0.007-0.043-0.014-0.086-0.021-0.134l-0.012-0.143
				c-0.003-0.047-0.006-0.094-0.009-0.145l-0.002-0.145l-0.001-0.073l0.003-0.072c0.004-0.096,0.008-0.191,0.019-0.283l0.016-0.136
				l0.021-0.13l0.01-0.063l0.014-0.061l0.025-0.117c0.021-0.074,0.041-0.142,0.06-0.207c0.011-0.032,0.021-0.061,0.029-0.089
				c0.011-0.028,0.021-0.054,0.029-0.079l0.026-0.064c0.951,0.803,1.697,1.891,1.858,3.172
				C650.467,69.568,649.437,69.854,648.954,71.249z"/>
			<path fill="#A0BAA1" d="M659.234,75.392c-0.563-0.118-1.116-0.33-1.571-0.684c-0.454-0.361-0.82-0.811-1.036-1.317
				c-0.391-0.915-0.202-1.8,0.34-2.441l0.005,0.028c0.013,0.06,0.026,0.123,0.041,0.19l0.028,0.103l0.015,0.054l0.018,0.054
				l0.037,0.11l0.043,0.112c0.034,0.077,0.066,0.151,0.1,0.226l0.025,0.057l0.03,0.055l0.059,0.11
				c0.021,0.038,0.042,0.072,0.062,0.106l0.063,0.103c0.022,0.035,0.044,0.066,0.064,0.098l0.065,0.092
				c0.048,0.062,0.088,0.116,0.126,0.165l0.059,0.073l0.026,0.033l0.027,0.031c0.036,0.039,0.067,0.073,0.093,0.101
				c0.051,0.056,0.08,0.088,0.08,0.088s-0.025-0.035-0.069-0.096c-0.021-0.03-0.048-0.066-0.078-0.109l-0.022-0.032l-0.022-0.036
				l-0.048-0.076c-0.031-0.053-0.064-0.108-0.103-0.172l-0.051-0.096c-0.017-0.032-0.033-0.064-0.052-0.1l-0.047-0.104
				c-0.016-0.035-0.03-0.069-0.047-0.107l-0.042-0.109l-0.021-0.055l-0.018-0.056l-0.064-0.221l-0.026-0.108l-0.021-0.105
				l-0.01-0.051l-0.007-0.05l-0.013-0.097c-0.005-0.063-0.01-0.121-0.014-0.176l-0.003-0.078v-0.069l0.002-0.057
				c0.979,0.281,1.814,1.026,2.272,1.928C660.003,73.673,659.282,74.168,659.234,75.392z"/>
			<path fill="#A0BAA1" d="M669.566,76.552c-0.871,0.014-1.764-0.362-2.271-1.043c-0.46-0.606-0.5-1.365-0.224-1.958l0.01,0.021
				c0.021,0.045,0.044,0.092,0.068,0.143l0.042,0.077l0.022,0.039l0.023,0.038l0.05,0.077l0.055,0.077l0.119,0.152l0.03,0.038
				l0.033,0.036l0.065,0.072c0.024,0.024,0.045,0.045,0.067,0.068l0.066,0.065c0.025,0.022,0.046,0.041,0.067,0.061l0.066,0.057
				c0.048,0.038,0.087,0.069,0.126,0.099l0.057,0.043l0.026,0.02l0.026,0.018c0.033,0.022,0.062,0.042,0.088,0.058
				c0.048,0.032,0.075,0.05,0.075,0.05s-0.024-0.021-0.068-0.058c-0.022-0.019-0.049-0.041-0.079-0.066l-0.023-0.02l-0.022-0.022
				l-0.051-0.048c-0.033-0.034-0.067-0.068-0.108-0.11l-0.057-0.062c-0.019-0.021-0.036-0.042-0.057-0.065l-0.056-0.069
				l-0.056-0.072l-0.053-0.075l-0.026-0.038l-0.024-0.039l-0.091-0.155l-0.041-0.077l-0.036-0.076l-0.018-0.037l-0.016-0.037
				l-0.029-0.071c-0.016-0.047-0.031-0.091-0.045-0.133l-0.019-0.059l-0.014-0.054l-0.011-0.045
				c0.802,0.011,1.589,0.374,2.087,1.032C669.862,75.078,669.402,75.584,669.566,76.552z"/>
		</g>
	</g>
</g>
</svg>
